<svg width="20" height="20" viewBox="0 0 20 20" fill="none" xmlns="http://www.w3.org/2000/svg">
<g clip-path="url(#clip0_3_1000)">
<path d="M19.4238 12.2539L12.2666 19.4037C12.0653 19.6048 11.8431 19.7504 11.5932 19.8545C11.3433 19.9585 11.0934 20.007 10.8435 20.007C10.5935 20.007 10.3436 19.9585 10.0937 19.8545C9.8438 19.7504 9.62166 19.6048 9.42034 19.4037L0.576189 10.5757C0.395696 10.3954 0.249913 10.1804 0.152725 9.93769C0.0555363 9.69497 0 9.43838 0 9.17486V1.99732C0 1.44947 0.194377 0.977907 0.590073 0.582623C0.985769 0.187339 1.45089 -0.00683594 2.00625 -0.00683594H9.19125C9.45505 -0.00683594 9.71885 0.0486426 9.96876 0.152665C10.2187 0.256687 10.4339 0.409253 10.6213 0.589558L19.4308 9.41757C19.6321 9.61868 19.7779 9.8406 19.8681 10.0903C19.9583 10.3399 20.0069 10.5896 20.0069 10.8392C20.0069 11.0889 19.9583 11.3385 19.8681 11.5743C19.7779 11.8101 19.6321 12.0389 19.4308 12.24L19.4238 12.2539ZM10.8365 18.0029L17.9938 10.8531L9.16349 1.99732H1.99931V9.14712L10.8365 17.9959V18.0029ZM4.50538 5.99871C4.9219 5.99871 5.27595 5.85308 5.56751 5.56182C5.85908 5.27056 6.00486 4.91688 6.00486 4.50079C6.00486 4.0847 5.85908 3.73103 5.56751 3.43977C5.27595 3.1485 4.9219 3.00287 4.50538 3.00287C4.08886 3.00287 3.73481 3.1485 3.44325 3.43977C3.15168 3.73103 3.0059 4.0847 3.0059 4.50079C3.0059 4.91688 3.15168 5.27056 3.44325 5.56182C3.73481 5.85308 4.08886 5.99871 4.50538 5.99871Z" fill="#DA2222"/>
</g>
<defs>
<clipPath id="clip0_3_1000">
<rect width="20" height="20" fill="white"/>
</clipPath>
</defs>
</svg>
