<svg width="70" height="70" viewBox="0 0 70 70" fill="none" xmlns="http://www.w3.org/2000/svg">
<g clip-path="url(#clip0_3_715)">
<path d="M0.145508 69.8545V27.943L24.5358 17.5713V24.5439L41.9558 17.5713V28.0303H69.8313V69.8545H0.145508ZM7.11583 62.8819H62.8668V34.9971H34.9913V27.8498L17.5713 34.8225V28.0244L7.11583 32.6399V62.876V62.8819ZM69.8313 28.0303H52.4113L55.8965 0.145508H66.352L69.8371 28.0303H69.8313Z" fill="#243C84"/>
<path d="M69.8313 28.0303H41.9558V17.5713L24.5358 24.5439V17.5713L0.145508 27.943V69.8545H69.8313V28.0303ZM69.8313 28.0303H52.4113L55.8965 0.145508H66.352L69.8371 28.0303H69.8313ZM7.11583 62.8819H62.8668V34.9971H34.9913V27.8498L17.5713 34.8225V28.0244L7.11583 32.6399V62.876V62.8819Z" stroke="#243C84" stroke-width="0.5" stroke-miterlimit="10"/>
<path d="M38.4767 42.1327H31.5063V56.0722H38.4767V42.1327Z" fill="#DA2222"/>
<path d="M24.5358 42.1327H17.5654V56.0722H24.5358V42.1327Z" fill="#DA2222"/>
<path d="M52.4112 42.1327H45.4409V56.0722H52.4112V42.1327Z" fill="#DA2222"/>
</g>
<defs>
<clipPath id="clip0_3_715">
<rect width="70" height="70" fill="white"/>
</clipPath>
</defs>
</svg>
