<svg width="96" height="28" viewBox="0 0 96 28" fill="none" xmlns="http://www.w3.org/2000/svg">
<g clip-path="url(#clip0_3_919)">
<path d="M17.1788 1.86243V27.9428C14.6386 27.813 11.9377 28.1144 9.41594 27.9483C5.89615 27.7173 2.60333 25.6734 1.03077 22.393C-2.82244 14.3482 4.77211 5.77866 13.0574 8.65644V1.86243H17.1799H17.1788ZM9.20634 23.7791C10.4553 23.9067 11.8953 23.6845 13.166 23.7791C13.1953 23.6988 13.0574 23.6481 13.0574 23.6151V13.3141C13.0574 13.2767 12.926 13.1491 12.9423 13.0457L12.7533 13.1249C9.98828 11.2207 5.93633 12.5144 4.59292 15.6122C3.05077 19.1698 5.36617 23.3863 9.20634 23.7791Z" fill="black"/>
<path d="M62.7951 12.2735C62.6886 12.2966 62.1467 12.7069 62.0305 12.8169C61.4289 13.3868 61.3246 14.0259 61.5787 14.8179C61.8405 15.6342 62.4942 16.1259 63.337 16.2183C67.1631 16.6397 71.5093 14.8807 74.1103 18.7045C76.2064 21.7847 74.8825 26.098 71.4366 27.3598C71.228 27.4368 70.3147 27.725 70.1702 27.725H57.9666V23.5613H69.7369C70.18 23.5613 70.9033 22.7648 70.9772 22.294C71.1531 21.1752 70.6981 20.2732 69.5251 20.1588C66.7156 19.8838 63.4184 20.7473 60.7827 19.4558C56.7839 17.4977 56.368 11.6949 60.0377 9.1614C60.5579 8.80278 61.9784 8.11084 62.5768 8.11084H70.4961L70.659 8.27475V12.1096L70.4961 12.2735H62.794H62.7951Z" fill="black"/>
<path d="M31.3363 8.21863C36.8794 8.81376 38.806 16.2788 33.984 19.3315C31.3678 20.9882 28.062 19.9926 25.1482 20.2688C23.8265 20.3942 23.1064 21.865 23.858 23.0046C24.0654 23.3192 24.6757 23.7791 25.0439 23.7791H36.597V27.9428H24.6095C23.9275 27.9428 22.1811 27.1486 21.6218 26.6898C18.7558 24.3346 18.7439 19.9277 21.6251 17.5868C24.3358 15.3845 28.1358 16.7639 31.2321 16.3327C32.6591 16.1336 33.264 14.1304 32.3007 13.0512C32.1476 12.8796 31.4178 12.3824 31.2266 12.3824H23.5789V8.38254L23.7418 8.21863H31.3352H31.3363Z" fill="black"/>
<path d="M80.748 8.10864V18.6836C80.748 20.5933 82.7408 22.9815 84.5208 23.5294C87.9885 24.5964 91.8135 21.9838 91.8135 18.2447V8.10864H95.936C95.6895 11.9424 96.3813 16.3041 95.6656 20.0543C94.3319 27.0485 86.2248 30.1947 80.5384 26.0177C74.8965 21.8738 77.0414 14.1491 76.6265 8.10864H80.7491H80.748Z" fill="black"/>
<path d="M51.5676 8.10859H55.7988V12.2723H51.8392C51.8055 12.2723 51.7718 12.1689 51.7306 12.1645L51.6209 12.2723C51.4992 12.3482 51.6762 12.3978 51.6762 12.4363V27.7228H47.5537V0H51.5133L51.6762 0.16391V7.94358C51.6762 7.97658 51.5394 8.02719 51.5676 8.10749V8.10859Z" fill="black"/>
<path d="M44.2988 8.10864H40.1763V27.7239H44.2988V8.10864Z" fill="black"/>
<path d="M44.2988 0H40.1763V6.02727H44.2988V0Z" fill="black"/>
</g>
<defs>
<clipPath id="clip0_3_919">
<rect width="96" height="28" fill="white"/>
</clipPath>
</defs>
</svg>
