<svg width="158" height="41" viewBox="0 0 158 41" fill="none" xmlns="http://www.w3.org/2000/svg">
<path d="M22.249 40.2022C22.249 36.9971 22.249 33.792 22.249 30.5868C22.249 30.086 22.1822 30.1361 22.7164 30.1361C26.2721 30.1361 29.8278 30.1361 33.4002 30.1361C33.6673 30.1361 33.7452 30.0137 33.6339 29.7689C29.0599 19.9197 24.4859 10.0706 19.9119 0.221531C19.8952 0.188145 19.8785 0.154757 19.8618 0.104677C19.8618 0.07129 19.8618 0.0379034 19.8618 0.0045166C22.8499 0.0045166 25.7212 0.622173 28.3921 1.97434C34.5019 5.07931 38.2079 10.0539 39.3096 16.7981C40.378 23.4254 38.5918 29.3348 33.9844 34.2761C31.0297 37.4478 27.3405 39.3342 23.0503 40.0854C22.8666 40.1188 22.6663 40.0854 22.4994 40.2022H22.249Z" fill="black"/>
<path d="M19.8454 0.0212427C19.8454 0.0546295 19.8454 0.0880174 19.8454 0.121404C19.6618 0.171484 19.6451 0.355111 19.595 0.488659C18.6769 2.44179 17.7754 4.39491 16.874 6.34804C15.1045 10.1708 13.3183 13.9936 11.5321 17.8164C10.4971 20.0366 9.46209 22.2569 8.4271 24.4771C7.59243 26.2633 6.77446 28.0662 5.92309 29.8524C5.77285 30.1862 5.97317 30.1194 6.1568 30.1194C9.74588 30.1194 13.335 30.1194 16.924 30.1194C17.1911 30.1194 17.3302 30.253 17.3414 30.5201C17.3414 33.7419 17.3414 36.9804 17.3414 40.2023H17.2078C16.6069 40.0854 16.0226 39.9686 15.4216 39.835C14.0361 39.5345 12.7173 39.0671 11.4319 38.4662C9.11153 37.3811 7.09163 35.8954 5.37221 34.009C2.85151 31.2546 1.21555 28.0495 0.447656 24.3936C0.0804009 22.6241 -0.0698397 20.8379 0.0303207 19.035C0.163868 16.6646 0.647977 14.3776 1.58281 12.1907C2.63449 9.70342 4.1202 7.49989 6.05664 5.61353C8.10993 3.61032 10.4804 2.10792 13.1847 1.1397C14.9709 0.505352 16.8239 0.121404 18.7269 0.0379372C19.1109 0.0212438 19.4781 -0.0121438 19.8621 0.00454959L19.8454 0.0212427Z" fill="black"/>
<path d="M158 15.0787C156.998 15.0787 155.997 15.0954 154.995 15.0787C154.678 15.0787 154.578 15.1455 154.578 15.4793C154.578 19.4858 154.578 23.4922 154.578 27.4986C154.578 27.8158 154.511 27.9159 154.177 27.8992C153.226 27.8825 152.258 27.8825 151.306 27.8992C151.022 27.8992 150.955 27.8158 150.955 27.5487C150.955 23.5422 150.955 19.5358 150.955 15.5294C150.955 15.2401 150.805 15.0954 150.505 15.0954C149.637 15.0954 148.752 15.0954 147.884 15.0954C147.667 15.0954 147.6 15.0286 147.6 14.8116C147.6 14.0604 147.6 13.3259 147.6 12.5747C147.6 12.3744 147.65 12.2909 147.867 12.2909C151.239 12.2909 154.611 12.2909 157.983 12.2909V15.062L158 15.0787Z" fill="black"/>
<path d="M86.7858 20.2036C86.7858 21.489 86.6523 22.741 86.2517 23.9596C85.4003 26.5471 83.2969 28.0996 80.5592 28.133C79.4741 28.1497 78.3891 28.0662 77.3708 27.6656C75.7515 27.0312 74.6497 25.8627 74.0989 24.2434C73.1807 21.6226 73.1473 18.9516 74.0488 16.3307C74.9168 13.7767 77.087 12.2909 79.808 12.2409C81.0433 12.2242 82.2452 12.3911 83.3637 12.9587C84.8661 13.7266 85.7842 14.9786 86.3017 16.5478C86.6857 17.733 86.8192 18.9516 86.8192 20.1869L86.7858 20.2036ZM82.9964 20.4373C82.9964 19.5025 82.963 18.8014 82.8462 18.1169C82.7126 17.3157 82.5123 16.5478 82.0282 15.88C81.1602 14.6614 79.3573 14.5612 78.339 15.663C77.8549 16.1972 77.6212 16.8482 77.4542 17.5327C77.1204 19.0351 77.1204 20.5375 77.304 22.0399C77.4208 22.9413 77.6212 23.8094 78.1887 24.5439C79.157 25.846 81.0934 25.8126 82.0282 24.4938C82.2786 24.1433 82.4456 23.7426 82.5791 23.3253C82.8963 22.307 82.963 21.2386 82.963 20.4206L82.9964 20.4373Z" fill="black"/>
<path d="M121.008 20.187C122.126 20.3372 122.56 21.1051 122.844 21.9732C123.461 23.8762 124.046 25.7793 124.647 27.6823C124.697 27.8492 124.663 27.916 124.496 27.916C123.378 27.916 122.243 27.916 121.124 27.916C120.941 27.916 120.891 27.8158 120.857 27.6823C120.457 26.2634 120.056 24.8611 119.639 23.4422C119.505 23.0081 119.355 22.5908 119.104 22.2069C118.771 21.6727 117.936 21.5725 117.502 21.656C117.302 21.6894 117.368 21.8396 117.368 21.9565C117.368 22.8579 117.368 23.7427 117.368 24.6441C117.368 25.629 117.368 26.6139 117.368 27.6155C117.368 27.8492 117.335 27.9494 117.051 27.9494C116.033 27.9494 115.015 27.9494 113.98 27.9494C113.763 27.9494 113.696 27.8826 113.696 27.6656C113.696 22.6576 113.696 17.6329 113.696 12.6249C113.696 12.3911 113.779 12.3411 113.996 12.3411C115.899 12.3411 117.786 12.3411 119.689 12.3411C120.891 12.3411 121.992 12.6415 122.927 13.4762C123.378 13.8769 123.695 14.361 123.862 14.9452C124.163 15.9468 124.163 16.9484 123.812 17.95C123.395 19.1019 122.543 19.7696 121.391 20.1202C121.325 20.1369 121.241 20.1536 121.174 20.187C121.141 20.187 121.124 20.2037 121.024 20.2537L121.008 20.187ZM117.185 16.9484C117.185 17.5327 117.185 18.1003 117.185 18.6846C117.185 18.8682 117.235 18.9517 117.435 18.935C117.736 18.935 118.019 18.935 118.32 18.935C119.839 18.9683 120.74 17.7163 120.306 16.1472C120.173 15.6631 119.839 15.3125 119.355 15.1122C118.687 14.8451 118.003 14.9619 117.318 14.9452C117.135 14.9452 117.185 15.0955 117.185 15.1956C117.185 15.7799 117.185 16.3475 117.185 16.9318V16.9484Z" fill="black"/>
<path d="M111.676 19.8697C111.676 21.8061 111.425 23.4421 110.641 24.9612C109.572 26.9811 107.886 28.0494 105.599 28.1663C104.498 28.2331 103.429 28.1162 102.428 27.6655C100.875 26.9644 99.8735 25.7624 99.2725 24.1933C98.6382 22.5239 98.4879 20.7878 98.6215 19.0183C98.7216 17.6828 98.9887 16.3975 99.6231 15.2122C100.691 13.2424 102.327 12.174 104.581 12.0405C105.733 11.9737 106.851 12.0906 107.903 12.5914C109.455 13.3259 110.44 14.5779 111.008 16.1471C111.475 17.4157 111.659 18.7512 111.642 19.8697H111.676ZM107.953 19.9365C107.97 19.3689 107.92 18.6344 107.803 17.9332C107.669 17.0986 107.436 16.2973 106.935 15.5962C106.134 14.4944 104.514 14.3609 103.563 15.3291C102.995 15.8966 102.745 16.6145 102.578 17.3657C102.227 18.9682 102.227 20.6042 102.461 22.2234C102.578 23.0748 102.812 23.8928 103.312 24.5939C103.88 25.3785 104.865 25.7124 105.766 25.4286C106.584 25.1782 107.035 24.5605 107.352 23.826C107.853 22.6408 107.936 21.3721 107.936 19.9365H107.953Z" fill="black"/>
<path d="M58.691 24.21C58.741 25.1949 58.7911 26.1131 58.8579 27.0145C58.8579 27.1314 58.8245 27.1815 58.7244 27.2315C56.3372 28.2165 53.9167 28.5503 51.4293 27.6489C49.7934 27.0479 48.6582 25.8794 48.0406 24.2768C46.822 21.1218 46.9722 17.9834 48.7083 15.0454C50.6114 11.8235 54.1504 11.7901 56.3706 12.8919C57.8062 13.6097 58.5908 14.845 59.0749 16.3141C59.5757 17.8498 59.6592 19.419 59.6425 21.0216C59.6425 21.2386 59.5089 21.2219 59.3754 21.2219C58.6242 21.2219 57.8563 21.2219 57.1051 21.2219C55.1687 21.2219 53.2322 21.2219 51.2958 21.2219C50.8618 21.2219 50.8618 21.2219 50.8785 21.6559C50.8951 22.1401 50.9619 22.6242 51.1122 23.0916C51.4961 24.377 52.3475 25.1115 53.6662 25.3285C54.985 25.5455 56.2704 25.4287 57.5057 24.9279C57.9231 24.7609 58.2903 24.5272 58.7077 24.21H58.691ZM53.4492 18.8681C54.2338 18.8681 55.0351 18.8681 55.8197 18.8681C55.9366 18.8681 56.0868 18.9015 56.0701 18.7012C56.0534 17.8499 55.9699 16.9985 55.6361 16.1972C55.2855 15.3959 54.7179 14.8784 53.7998 14.795C52.8316 14.7115 52.0971 15.0787 51.5796 15.8967C51.0621 16.7147 50.8951 17.6495 50.8451 18.6011C50.8451 18.8181 50.8951 18.8681 51.1122 18.8681C51.8968 18.8681 52.6646 18.8681 53.4492 18.8681Z" fill="black"/>
<path d="M126.333 20.1034C126.333 17.6161 126.333 15.1455 126.333 12.6581C126.333 12.3577 126.416 12.2909 126.7 12.2909C129.437 12.2909 132.175 12.2909 134.913 12.2909C135.18 12.2909 135.263 12.3577 135.247 12.6248C135.23 13.3259 135.247 14.0103 135.247 14.7114C135.247 14.9618 135.18 15.0286 134.93 15.0286C133.344 15.0286 131.741 15.0286 130.155 15.0286C129.905 15.0286 129.805 15.0787 129.805 15.3458C129.821 16.2973 129.805 17.2321 129.805 18.1837C129.805 18.4341 129.872 18.5008 130.122 18.5008C131.624 18.5008 133.127 18.5008 134.646 18.5008C134.93 18.5008 134.996 18.5843 134.996 18.8514C134.98 19.5525 134.996 20.237 134.996 20.9381C134.996 21.2052 134.913 21.2886 134.663 21.2719C133.16 21.2719 131.674 21.2719 130.172 21.2719C129.888 21.2719 129.821 21.3387 129.821 21.6225C129.821 22.7076 129.821 23.7926 129.821 24.8777C129.821 25.1281 129.905 25.1949 130.155 25.1949C131.825 25.1949 133.511 25.1949 135.18 25.1949C135.43 25.1949 135.531 25.245 135.531 25.5288C135.514 26.2299 135.531 26.931 135.531 27.6488C135.531 27.8491 135.497 27.9493 135.247 27.9493C132.376 27.9493 129.504 27.9493 126.616 27.9493C126.349 27.9493 126.349 27.8158 126.349 27.6154C126.349 25.1281 126.349 22.6241 126.349 20.1368L126.333 20.1034Z" fill="black"/>
<path d="M145.864 13.0587C145.83 13.7765 145.78 14.4776 145.747 15.1954C145.747 15.4458 145.68 15.4458 145.48 15.3457C144.478 14.8949 143.443 14.6112 142.341 14.6779C141.407 14.728 140.806 15.2288 140.672 16.1303C140.572 16.798 140.856 17.3155 141.39 17.6994C141.958 18.1335 142.625 18.3672 143.276 18.651C143.977 18.9681 144.662 19.302 145.263 19.8195C146.365 20.771 146.749 22.023 146.732 23.4253C146.715 25.729 145.213 27.5318 142.926 27.9826C141.423 28.2831 139.938 28.1328 138.452 27.8323C138.118 27.7656 137.784 27.6654 137.434 27.5819C137.233 27.5319 137.166 27.4317 137.183 27.2314C137.25 26.38 137.317 25.5453 137.367 24.694C137.367 24.4436 137.467 24.477 137.634 24.5437C138.235 24.7941 138.819 25.0779 139.453 25.2282C140.221 25.4285 141.006 25.5119 141.774 25.2282C142.425 24.9945 142.876 24.5604 142.976 23.8593C143.076 23.1582 142.876 22.5739 142.291 22.1399C141.69 21.6892 140.989 21.4221 140.305 21.1216C139.737 20.8545 139.153 20.6041 138.652 20.2201C137.717 19.519 137.183 18.5842 137.016 17.449C136.849 16.2805 137 15.162 137.634 14.1437C138.402 12.9084 139.57 12.3242 140.973 12.1071C142.592 11.8401 144.178 12.1071 145.747 12.4911C145.88 12.5245 145.931 12.5913 145.914 12.7081C145.914 12.825 145.914 12.9418 145.914 13.0587H145.864Z" fill="black"/>
<path d="M71.9792 24.5939C72.046 25.5455 72.1128 26.4636 72.1796 27.3651C72.1796 27.4652 72.1796 27.5487 72.046 27.5821C69.4752 28.3667 66.9378 28.5336 64.5173 27.0646C63.3821 26.3801 62.6142 25.3618 62.1635 24.1432C61.1953 21.6058 61.1452 19.0184 62.1301 16.4643C63.0983 13.9436 65.0348 12.6248 67.6723 12.3076C69.0579 12.1407 70.3934 12.341 71.7121 12.775C71.9292 12.8418 71.9959 12.9586 71.9792 13.1757C71.8958 14.0437 71.8457 14.9118 71.7789 15.7798C71.5953 15.7798 71.4784 15.6797 71.3449 15.6296C70.4601 15.2123 69.542 14.9952 68.5571 15.1288C67.2049 15.2957 66.22 15.9802 65.7359 17.2489C65.0515 19.0517 65.0014 20.9214 65.6524 22.741C66.3703 24.7108 68.1564 25.6623 70.2264 25.2116C70.8274 25.0781 71.395 24.8944 71.9792 24.5773V24.5939Z" fill="black"/>
<path d="M88.856 20.07C88.856 17.6161 88.856 15.1454 88.856 12.6915C88.856 12.391 88.906 12.2742 89.2399 12.2742C91.8441 12.2742 94.4649 12.2742 97.0691 12.2742C97.3696 12.2742 97.4531 12.3576 97.4364 12.6414C97.4197 13.2758 97.4364 13.9268 97.4364 14.5612C97.4364 14.8505 97.2973 14.9952 97.019 14.9952C95.5834 14.9952 94.1478 14.9952 92.7288 14.9952C92.445 14.9952 92.3449 15.062 92.3449 15.3624C92.3616 16.314 92.3449 17.2822 92.3449 18.2337C92.3449 18.5175 92.4283 18.6177 92.7288 18.6177C94.1144 18.6177 95.5166 18.6177 96.9022 18.6177C97.1526 18.6177 97.2361 18.6844 97.2194 18.9348C97.2194 19.6527 97.2194 20.3872 97.2194 21.105C97.2194 21.322 97.1526 21.3888 96.9356 21.3888C95.55 21.3888 94.1812 21.3888 92.7956 21.3888C92.3616 21.3888 92.3616 21.3888 92.3616 21.8228C92.3616 23.7092 92.3616 25.6122 92.3616 27.4986C92.3616 27.8157 92.2948 27.9159 91.9609 27.8992C91.0428 27.8825 90.108 27.8825 89.1898 27.8992C88.9394 27.8992 88.8727 27.8157 88.8727 27.582C88.8727 25.078 88.8727 22.574 88.8727 20.07H88.856Z" fill="black"/>
</svg>
