<svg width="69" height="69" viewBox="0 0 69 69" fill="none" xmlns="http://www.w3.org/2000/svg">
<g clip-path="url(#clip0_3_698)">
<path d="M67.414 32.5678V36.4241C67.3768 36.61 67.3181 36.7919 67.3045 36.9798C66.9836 41.5737 65.7941 45.9387 63.5402 49.9437C57.4772 60.7242 48.2329 66.5918 35.8798 67.3529C29.9674 67.7168 24.3093 66.449 19.1247 63.5611C8.29572 57.5292 2.41656 48.2631 1.64767 35.8841C1.2779 29.948 2.58677 24.2858 5.4569 19.0658C10.5613 9.78207 18.35 4.1101 28.7701 2.10662C30.0261 1.86597 31.3076 1.7564 32.5754 1.58618C33.8608 1.58618 35.1462 1.58618 36.4315 1.58618C36.5959 1.62336 36.7602 1.68009 36.9285 1.69183C41.5418 2.00292 45.9125 3.22184 49.9526 5.45424C59.2204 10.5745 64.8961 18.3517 66.8936 28.7682C67.1342 30.0223 67.2419 31.3 67.4121 32.5678H67.414ZM34.5299 6.99011C19.383 6.96859 7.00837 19.328 6.99859 34.4852C6.99076 49.615 19.2949 61.9509 34.4457 61.9998C49.5809 62.0507 61.9731 49.7031 62.0083 34.5361C62.0455 19.3945 49.6924 7.01163 34.5299 6.98815V6.99011Z" fill="#1C3D88" stroke="#1C3D88" stroke-width="2" stroke-miterlimit="10"/>
<path d="M39.8548 10.3103C39.92 10.3429 39.9914 10.3674 40.0485 10.4102C40.1851 10.5101 40.2095 10.6508 40.1687 10.8057C40.0056 11.4193 39.8405 12.0309 39.6774 12.6425C38.9252 15.4538 38.1709 18.2651 37.4186 21.0764C36.7173 23.6981 36.014 26.3178 35.3127 28.9394C35.2821 29.0536 35.2515 29.1698 35.2189 29.2982C35.2658 29.3023 35.2984 29.3105 35.331 29.3105C36.9212 29.3105 38.5134 29.3064 40.1035 29.3064C44.1645 29.3064 48.2255 29.3064 52.2865 29.3064C52.3517 29.3064 52.419 29.3084 52.4822 29.3166C52.6391 29.337 52.7431 29.4185 52.7961 29.5714C52.8471 29.7203 52.8002 29.8426 52.6962 29.9404C52.5454 30.0791 52.3863 30.2095 52.2294 30.34C51.4832 30.9557 50.7371 31.5713 49.9869 32.185C49.2468 32.7904 48.5027 33.3898 47.7647 33.9973C46.8942 34.7109 46.0278 35.4305 45.1553 36.1461C44.4254 36.7454 43.6895 37.3366 42.9596 37.936C40.8456 39.6668 38.7315 41.3997 36.6174 43.1305C35.4799 44.0621 34.3403 44.9938 33.2047 45.9275C32.3852 46.6002 31.5718 47.2811 30.7502 47.9519C28.8828 49.4788 27.0134 51.0017 25.146 52.5286C24.1898 53.3094 23.2358 54.0943 22.2796 54.8751C22.1063 55.0178 21.9371 55.1666 21.7557 55.2971C21.5355 55.4561 21.2399 55.344 21.1971 55.083C21.1808 54.9872 21.2195 54.8669 21.2664 54.7772C21.5416 54.2411 21.825 53.707 22.1104 53.1769C23.7189 50.1903 25.3274 47.2057 26.9359 44.2211C28.1795 41.9134 29.423 39.6056 30.6666 37.2979C30.8256 37.0023 30.9948 36.7128 31.1702 36.3968C31.111 36.3927 31.0723 36.3887 31.0336 36.3887C27.2356 36.3887 23.4376 36.3907 19.6396 36.3927C18.7956 36.3927 17.9516 36.3927 17.1076 36.3927C16.8548 36.3927 16.6978 36.2786 16.6611 36.0747C16.6346 35.934 16.7019 35.828 16.7896 35.7302C17.3787 35.0717 17.9659 34.4132 18.555 33.7568C19.6049 32.5866 20.6569 31.4184 21.7088 30.2523C22.6384 29.2187 23.5701 28.1872 24.5017 27.1556C25.3417 26.224 26.1796 25.2923 27.0195 24.3606C27.8635 23.4229 28.7095 22.4871 29.5556 21.5473C30.4974 20.4995 31.4393 19.4516 32.3811 18.4037C33.5003 17.1622 34.6236 15.9227 35.7449 14.6812C36.4951 13.8494 37.2392 13.0156 37.9874 12.1838C38.4726 11.6456 38.9578 11.1095 39.4491 10.5774C39.5429 10.4754 39.6693 10.4041 39.7814 10.3185C39.8038 10.3185 39.8283 10.3185 39.8507 10.3185L39.8548 10.3103Z" fill="#FD1E1E"/>
</g>
<defs>
<clipPath id="clip0_3_698">
<rect width="69" height="69" fill="white"/>
</clipPath>
</defs>
</svg>
