<svg width="20" height="32" viewBox="0 0 20 32" fill="none" xmlns="http://www.w3.org/2000/svg">
<g clip-path="url(#clip0_1_30)">
<path d="M0.443132 32L-0.00729942 28.0906L5.13763 14.134C5.58806 14.5481 6.07853 14.8982 6.60403 15.1792C7.12954 15.4602 7.69508 15.6771 8.29565 15.825L3.3309 29.2491L0.443132 32.0049V32ZM19.3963 32L16.5085 29.2442L11.5438 15.8201C12.1443 15.6722 12.7099 15.4552 13.2354 15.1742C13.7609 14.8932 14.2514 14.5432 14.7018 14.1291L19.8467 28.0857L19.3963 31.9951V32ZM9.91721 14.2228C8.41076 14.2228 7.13454 13.7051 6.08353 12.6649C5.03253 11.6247 4.50202 10.3676 4.50202 8.88861C4.50202 7.73502 4.84235 6.70467 5.51799 5.79757C6.19364 4.89046 7.05947 4.26437 8.11048 3.90941V0H11.7189V3.90941C12.7699 4.26437 13.6358 4.89539 14.3114 5.79757C14.9871 6.69974 15.3274 7.73009 15.3274 8.88861C15.3274 10.3725 14.8019 11.6296 13.7459 12.6649C12.6899 13.7002 11.4136 14.2228 9.9122 14.2228H9.91721ZM9.91721 10.6683C10.4277 10.6683 10.8581 10.4958 11.2034 10.1556C11.5488 9.81544 11.7239 9.39146 11.7239 8.88861C11.7239 8.38576 11.5488 7.96179 11.2034 7.62163C10.8581 7.28147 10.4277 7.10892 9.91721 7.10892C9.40672 7.10892 8.9763 7.28147 8.63097 7.62163C8.28564 7.96179 8.11048 8.38576 8.11048 8.88861C8.11048 9.39146 8.28564 9.81544 8.63097 10.1556C8.9763 10.4958 9.40672 10.6683 9.91721 10.6683Z" fill="#DA2222"/>
</g>
<defs>
<clipPath id="clip0_1_30">
<rect width="19.854" height="32" fill="white" transform="translate(-0.00729942)"/>
</clipPath>
</defs>
</svg>
