<svg width="69" height="69" viewBox="0 0 69 69" fill="none" xmlns="http://www.w3.org/2000/svg">
<g clip-path="url(#clip0_3_720)">
<path d="M65.7275 60.0515C65.6714 62.555 64.6179 64.4897 62.2947 65.5271C60.1437 66.4925 58.0288 66.2081 56.2944 64.6058C53.9351 62.4308 51.7 60.1236 49.4248 57.8645C46.2444 54.7041 43.092 51.5156 39.8915 48.3752C38.7099 47.2176 37.9568 45.9799 38.2693 44.2335C38.3334 43.869 38.089 43.3402 37.8166 43.0398C36.8954 42.0264 35.91 41.0771 34.9286 40.1198C34.3118 39.5189 33.775 39.4709 32.9979 39.8634C32.1768 40.28 31.8483 40.2319 31.1634 39.595C30.9912 39.4348 30.8189 39.2746 30.6507 39.1064C29.9577 38.4094 29.9337 37.7645 30.6146 37.0795C32.7095 34.9686 34.8125 32.8657 36.9234 30.7708C37.5803 30.1219 38.2412 30.1499 38.9062 30.8028C39.1265 31.0191 39.3348 31.2434 39.543 31.4677C39.9957 31.9564 40.0758 32.4731 39.7473 33.082C39.2506 34.0073 39.3348 34.4919 40.0678 35.233C40.933 36.1062 41.8142 36.9594 42.6674 37.8406C43.128 38.3173 43.6528 38.5296 44.3177 38.4454C45.7317 38.2692 46.8893 38.7659 47.8867 39.7673C53.178 45.0907 58.4774 50.4021 63.7848 55.7095C64.9905 56.9151 65.7195 58.3131 65.7275 60.0475V60.0515ZM41.8422 43.7648C47.2418 49.1684 52.6493 54.5839 57.9767 59.9153C58.5735 59.3465 59.2104 58.7377 59.7311 58.237C54.3476 52.8455 48.9441 47.4339 43.5847 42.0665C43.0199 42.6152 42.399 43.2201 41.8422 43.7608V43.7648Z" fill="#FD1E1E"/>
<path d="M5.74403 0.500732C8.13936 1.90268 10.5387 3.30864 12.934 4.70658C13.8513 5.24333 14.7726 5.77207 15.6939 6.29279C16.3468 6.66531 16.6111 7.21007 16.491 7.9511C16.3708 8.69614 16.2266 9.44117 16.1705 10.1902C16.1505 10.4946 16.2466 10.9032 16.4469 11.1075C22.3031 16.9957 28.1792 22.8679 34.0554 28.74C34.1876 28.8722 34.3318 28.9844 34.496 29.1326C34.8646 28.8041 35.197 28.4757 35.5615 28.1873C36.7992 27.2099 38.4816 27.0457 39.7914 27.9229C40.5805 28.4556 41.2975 29.1446 41.9144 29.8736C42.6033 30.6827 42.5913 31.7162 42.363 32.7095C42.2548 33.1822 42.2989 33.5307 42.6874 33.8311C42.8156 33.9312 42.9318 34.0554 43.0359 34.1836C43.813 35.1529 44.6902 35.7658 46.0601 35.7618C47.438 35.7618 48.6077 36.5068 49.597 37.4922C55.0566 42.9478 60.5202 48.3954 65.9838 53.8429C67.2616 55.1167 68.0427 56.6428 68.3672 58.4133C68.3872 58.5215 68.4473 58.6256 68.4913 58.7297V61.1371C68.4393 61.2893 68.3752 61.4335 68.3431 61.5897C67.542 65.0786 65.5232 67.4258 61.9983 68.3551C61.8902 68.3832 61.794 68.4513 61.6939 68.5033H58.2931C56.6388 67.9826 55.0967 67.2857 53.847 66.0199C50.5103 62.6472 47.1496 59.2985 43.801 55.9419C41.7181 53.855 39.6432 51.756 37.5483 49.6772C36.2785 48.4154 35.6336 46.9133 35.6216 45.1108C35.6216 44.7583 35.3693 44.3978 35.197 44.0653C35.1129 43.9051 34.9286 43.805 34.8045 43.6608C34.0314 42.7796 33.2743 42.0946 31.8844 42.4391C30.138 42.8757 28.3114 40.7648 27.7106 39.3828C27.0176 37.7926 27.4102 36.3386 28.5958 35.0889C28.7721 34.9046 28.9443 34.7203 29.1486 34.504C28.9443 34.2837 28.7761 34.0915 28.5958 33.9112C22.8038 28.1192 17.0117 22.3311 11.2277 16.531C10.8992 16.2026 10.6068 16.0343 10.1181 16.1505C9.45319 16.3107 8.76423 16.3468 8.09129 16.475C7.2341 16.6392 6.64528 16.3308 6.21268 15.5737C4.39014 12.3813 2.54758 9.19283 0.705017 6.0084C0.648939 5.91226 0.568827 5.83215 0.500732 5.74403C0.500732 5.45963 0.500732 5.17924 0.500732 4.89485C1.91871 3.43281 3.33267 1.96677 4.75065 0.504738C5.08311 0.504738 5.41157 0.504738 5.74403 0.504738V0.500732ZM65.7275 59.8713C65.7195 58.1329 64.9905 56.739 63.7848 55.5333C58.4774 50.2259 53.178 44.9145 47.8867 39.5911C46.8893 38.5897 45.7317 38.089 44.3177 38.2693C43.6488 38.3534 43.128 38.1411 42.6674 37.6644C41.8142 36.7832 40.933 35.93 40.0678 35.0568C39.3348 34.3198 39.2466 33.8311 39.7473 32.9058C40.0758 32.297 39.9957 31.7803 39.5431 31.2916C39.3348 31.0673 39.1265 30.8389 38.9062 30.6266C38.2412 29.9737 37.5803 29.9457 36.9234 30.5946C34.8125 32.6895 32.7095 34.7924 30.6146 36.9034C29.9337 37.5923 29.9577 38.2372 30.6507 38.9302C30.8189 39.0984 30.9872 39.2587 31.1634 39.4189C31.8484 40.0518 32.1768 40.0998 32.998 39.6873C33.775 39.2947 34.3158 39.3468 34.9286 39.9436C35.91 40.8969 36.8954 41.8503 37.8167 42.8637C38.089 43.1641 38.3374 43.6928 38.2693 44.0573C37.9569 45.7998 38.7099 47.0375 39.8915 48.1991C43.092 51.3395 46.2444 54.5279 49.4248 57.6883C51.7 59.9515 53.9391 62.2587 56.2944 64.4297C58.0288 66.0279 60.1437 66.3163 62.2947 65.351C64.6139 64.3095 65.6714 62.3788 65.7275 59.8753V59.8713ZM32.6415 31.0232C32.325 30.7588 32.0566 30.5666 31.8243 30.3382C25.9001 24.418 19.9798 18.4938 14.0476 12.5815C13.4668 12.0007 13.1423 11.4119 13.3666 10.5707C13.5028 10.05 13.5188 9.49725 13.631 8.96851C13.7351 8.48784 13.631 8.20746 13.1624 7.9511C11.2036 6.86559 9.27294 5.724 7.33024 4.61045C6.74142 4.27398 6.07649 3.64511 5.54375 3.73724C4.96294 3.83737 4.51432 4.63048 3.98158 5.08711C3.62508 5.39154 3.62107 5.6519 3.8574 6.04845C4.99499 7.97914 6.09652 9.92985 7.21808 11.8685C7.55855 12.4574 7.79088 13.2905 8.3076 13.5509C8.8123 13.8072 9.61742 13.4748 10.2904 13.4027C10.3625 13.3947 10.4346 13.4027 10.5026 13.3827C11.3879 13.1103 12.0168 13.4748 12.6336 14.0956C18.5418 20.0319 24.4701 25.9481 30.3823 31.8764C30.6106 32.1047 30.7228 32.4412 30.891 32.7296C30.9711 32.6414 31.0512 32.5573 31.1314 32.4692C31.588 32.0326 32.0446 31.596 32.6415 31.0232Z" fill="#243C84" stroke="#243C84" stroke-width="0.5" stroke-miterlimit="10"/>
<path d="M61.7941 68.8999L58.1811 68.8799C56.7951 68.4433 55.0167 67.7583 53.5706 66.2963C51.2234 63.921 48.82 61.5177 46.4968 59.1944L41.5659 54.2516C40.1359 52.8136 38.706 51.3796 37.272 49.9496C35.9101 48.5957 35.2411 47.0095 35.2291 45.1028C35.2291 44.9226 35.0929 44.6822 34.9647 44.4499C34.9247 44.3778 34.8846 44.3097 34.8486 44.2376C34.8326 44.2096 34.7645 44.1495 34.7124 44.1094C34.6403 44.0494 34.5682 43.9853 34.5081 43.9172C33.6629 42.9598 33.0741 42.5513 31.9886 42.8197C29.9418 43.3324 27.955 40.933 27.3502 39.5351C26.6251 37.8648 26.9576 36.2305 28.3115 34.8085L28.6079 34.4961C28.5118 34.3879 28.4156 34.2878 28.3195 34.1917L24.1777 30.0499C19.7676 25.6397 15.3575 21.2296 10.9513 16.8115C10.6669 16.5271 10.5107 16.467 10.2183 16.5391C9.81376 16.6352 9.40519 16.6913 9.01264 16.7394C8.73225 16.7754 8.45186 16.8115 8.17548 16.8635C7.17008 17.0558 6.397 16.6833 5.87628 15.77C4.42226 13.2225 2.95622 10.6829 1.48617 8.14341L0.360605 6.20471C0.336571 6.16065 0.300521 6.1206 0.264471 6.08054C0.236432 6.0485 0.212399 6.01645 0.188365 5.98841L0.104248 5.88026V4.73066L4.58248 0.10022H5.85225L7.96719 1.33794C9.68958 2.34735 11.412 3.35675 13.1384 4.36215C14.0557 4.89489 14.9729 5.42363 15.8942 5.94836C16.6913 6.40099 17.0358 7.11398 16.8916 8.01924C16.8636 8.19148 16.8355 8.36772 16.8075 8.53996C16.7154 9.09273 16.6192 9.66953 16.5792 10.2263C16.5631 10.4626 16.6513 10.743 16.7394 10.8312C22.0107 16.1345 27.3902 21.51 32.5935 26.7092L34.3479 28.4637C34.396 28.5117 34.448 28.5598 34.5001 28.6039C34.5241 28.5798 34.5482 28.5558 34.5762 28.5358C34.8165 28.3155 35.0649 28.0872 35.3253 27.8789C36.7312 26.7653 38.6218 26.6532 40.0238 27.5945C40.7768 28.0992 41.5179 28.7801 42.2309 29.6173C42.8998 30.4024 43.076 31.4438 42.7676 32.8017C42.6715 33.2183 42.7516 33.3665 42.9439 33.5147C43.0881 33.6229 43.2282 33.7631 43.3604 33.9353C44.1696 34.9487 44.9506 35.3613 46.0602 35.3613H46.0802C47.4021 35.3613 48.6478 35.9661 49.8935 37.2119C54.8044 42.1187 59.7232 47.0255 64.642 51.9283L66.2803 53.5626C67.5982 54.8764 68.4353 56.4827 68.7758 58.3412C68.7798 58.3653 68.8038 58.4174 68.8239 58.4614C68.8439 58.5015 68.8599 58.5415 68.8759 58.5816L68.904 58.6537V61.2052L68.8839 61.2653C68.8679 61.3174 68.8479 61.3695 68.8279 61.4215C68.7958 61.5056 68.7638 61.5938 68.7438 61.6819C67.8826 65.4351 65.6515 67.8104 62.1105 68.7477C62.0865 68.7557 62.0384 68.7798 61.9944 68.8038C61.9543 68.8238 61.9183 68.8479 61.8782 68.8639L61.7941 68.9039V68.8999ZM58.3613 68.0988H61.5978C61.6779 68.0548 61.7781 67.9987 61.8982 67.9666C65.1748 67.1014 67.1575 64.9825 67.9587 61.4976C67.9867 61.3775 68.0268 61.2613 68.0708 61.1411C68.0788 61.1171 68.0908 61.0931 68.0989 61.065V58.8059C68.0989 58.8059 68.0948 58.7939 68.0908 58.7899C68.0508 58.7058 68.0027 58.6016 67.9827 58.4774C67.6743 56.7831 66.9092 55.317 65.7115 54.1194L64.0733 52.4851C59.1544 47.5823 54.2356 42.6795 49.3247 37.7686C48.2392 36.6831 47.1737 36.1544 46.0762 36.1544H46.0562C44.7103 36.1544 43.6849 35.6216 42.7316 34.428C42.6354 34.3078 42.5433 34.2157 42.4512 34.1436C41.8263 33.6669 41.8824 33.042 41.9785 32.6175C42.2309 31.5079 42.1147 30.7188 41.614 30.13C40.9491 29.3489 40.2641 28.716 39.5712 28.2554C38.4416 27.4943 36.9635 27.5945 35.8139 28.5037C35.5736 28.692 35.3493 28.9003 35.109 29.1206C34.9968 29.2247 34.8806 29.3289 34.7645 29.433L34.5001 29.6694L34.0795 29.3008C33.9674 29.2047 33.8672 29.1206 33.7751 29.0245L32.0207 27.27C26.8174 22.0708 21.4379 16.6953 16.1666 11.3919C15.8582 11.0835 15.746 10.5387 15.7741 10.1622C15.8181 9.56539 15.9183 8.97256 16.0144 8.39977C16.0424 8.22753 16.0705 8.05929 16.0985 7.88705C16.1906 7.31426 16.0064 6.92972 15.4977 6.64132C14.5724 6.11659 13.6511 5.58785 12.7338 5.05111C11.0074 4.04571 9.28502 3.0363 7.56262 2.0269L5.63594 0.901334H4.92295L0.901357 5.05511V5.59587C0.95343 5.65595 1.0055 5.72404 1.05357 5.80416L2.17513 7.74285C3.64517 10.2824 5.11121 12.8259 6.56524 15.3735C6.92173 16.0023 7.34632 16.2066 8.01926 16.0784C8.31167 16.0224 8.60808 15.9823 8.90049 15.9463C9.29303 15.8942 9.66155 15.8461 10.0261 15.758C10.735 15.5898 11.1596 15.8902 11.5121 16.2427C15.9183 20.6568 20.3284 25.067 24.7385 29.4771L28.8803 33.6189C29.0045 33.743 29.1246 33.8712 29.2528 34.0114L29.7014 34.4961L28.8883 35.3533C27.7587 36.5429 27.4863 37.8407 28.0792 39.2106C28.6079 40.4243 30.2983 42.4071 31.7883 42.0386C33.4026 41.634 34.3118 42.4832 35.1049 43.3844C35.141 43.4245 35.1851 43.4605 35.2251 43.4966C35.3333 43.5887 35.4654 43.7009 35.5496 43.8651C35.5816 43.9292 35.6177 43.9933 35.6537 44.0574C35.826 44.3618 36.0182 44.7103 36.0222 45.0948C36.0342 46.7812 36.6231 48.1791 37.8287 49.3768C39.2667 50.8068 40.6967 52.2448 42.1267 53.6828L47.0536 58.6216C49.3768 60.9449 51.7802 63.3482 54.1274 65.7235C55.1488 66.757 56.4547 67.486 58.3493 68.0868L58.3613 68.0988ZM59.8674 66.3043C58.4735 66.3043 57.1596 65.7716 56.0221 64.7261C54.2476 63.0919 52.5172 61.3534 50.8428 59.6751C50.2741 59.1063 49.7093 58.5375 49.1405 57.9727C47.9588 56.7991 46.7852 55.6215 45.6076 54.4478C43.6488 52.4891 41.622 50.4583 39.6112 48.4875C38.6058 47.4982 37.4963 46.0962 37.8768 43.9893C37.9128 43.789 37.7446 43.3804 37.5203 43.1361C36.6591 42.1868 35.7178 41.2735 34.8085 40.3883L34.6523 40.2361C34.1716 39.7674 33.8272 39.7233 33.1823 40.0478C32.2129 40.5365 31.7002 40.4644 30.8951 39.7153C30.7188 39.5511 30.5426 39.3869 30.3704 39.2146C29.5172 38.3574 29.5052 37.4602 30.3343 36.623C32.5694 34.3679 34.6363 32.305 36.6471 30.3143C37.4522 29.5131 38.3575 29.5252 39.1906 30.3463C39.4149 30.5666 39.6272 30.7949 39.8395 31.0272C40.4163 31.6521 40.5045 32.3531 40.0999 33.1061C39.6913 33.8632 39.7354 34.1596 40.3522 34.7845C40.6887 35.1249 41.0252 35.4614 41.3657 35.7979C41.8984 36.3266 42.4311 36.8554 42.9559 37.3961C43.3444 37.7967 43.753 37.9489 44.2697 37.8808C45.7277 37.6965 47.0416 38.1812 48.1711 39.3188C53.5426 44.7223 58.894 50.0858 64.0692 55.261C65.4472 56.6389 66.1201 58.149 66.1281 59.8794V59.8914C66.068 62.6993 64.8303 64.662 62.459 65.7235C61.5818 66.1161 60.7086 66.3123 59.8674 66.3123V66.3043ZM33.8832 39.0344C34.3559 39.0344 34.7805 39.2387 35.2091 39.6593L35.3653 39.8115C36.2826 40.7047 37.2319 41.63 38.1131 42.5953C38.4576 42.9719 38.754 43.6208 38.6659 44.1295C38.4176 45.5194 38.8542 46.6169 40.172 47.9147C42.1868 49.8935 44.2136 51.9203 46.1763 53.883C47.354 55.0607 48.5276 56.2343 49.7093 57.408C50.2781 57.9727 50.8469 58.5455 51.4156 59.1143C53.082 60.7887 54.8084 62.5191 56.5708 64.1413C58.169 65.6154 60.0917 65.9078 62.1346 64.9905C64.1974 64.0652 65.2749 62.3428 65.331 59.8754C65.323 58.3693 64.7262 57.0434 63.5045 55.8217C58.3293 50.6465 52.9778 45.2831 47.6063 39.8796C46.645 38.9142 45.5835 38.5177 44.3698 38.6699C43.5968 38.766 42.9479 38.5297 42.3791 37.9489C41.8583 37.4121 41.3296 36.8874 40.8009 36.3627C40.4604 36.0262 40.1199 35.6857 39.7835 35.3453C38.9223 34.476 38.8181 33.7911 39.3949 32.7256C39.6352 32.277 39.5952 31.9445 39.2507 31.572C39.0464 31.3517 38.8421 31.1314 38.6298 30.9191C38.1131 30.4104 37.7006 30.4024 37.2119 30.8871C35.2051 32.8778 33.1422 34.9407 30.9071 37.1918C30.3904 37.7125 30.3984 38.1091 30.9432 38.6579C31.1074 38.8221 31.2756 38.9783 31.4439 39.1345C32.0086 39.6593 32.1528 39.6793 32.8258 39.3388C33.2143 39.1425 33.5628 39.0424 33.8913 39.0424L33.8832 39.0344ZM30.815 33.4026L30.5426 32.9339C30.4865 32.8338 30.4344 32.7336 30.3824 32.6295C30.2902 32.4452 30.2061 32.273 30.098 32.1648C27.4503 29.5091 24.8026 26.8574 22.1509 24.2058C18.8784 20.9332 15.6098 17.6607 12.3453 14.3801C11.7084 13.7392 11.2397 13.575 10.6149 13.7672C10.5227 13.7953 10.4386 13.7993 10.3745 13.8033H10.3265C10.1422 13.8273 9.93793 13.8674 9.72563 13.9154C9.17287 14.0316 8.60007 14.1558 8.1194 13.9154C7.63072 13.6671 7.37436 13.1223 7.12602 12.5976C7.0419 12.4174 6.95778 12.2371 6.86565 12.0769C6.48112 11.408 6.09659 10.739 5.71205 10.0701C4.98304 8.79632 4.25002 7.52255 3.50899 6.25678C3.29268 5.88827 3.08039 5.3355 3.71727 4.78674C3.8775 4.65055 4.03372 4.4703 4.19794 4.28604C4.56646 3.86946 4.95099 3.43686 5.47172 3.34473C6.01247 3.25261 6.5412 3.61311 7.04991 3.95759C7.21013 4.06574 7.37036 4.17789 7.52257 4.26602C8.21954 4.66257 8.9125 5.06713 9.60547 5.46769C10.8272 6.17667 12.0929 6.90569 13.3507 7.60266C13.9555 7.93913 14.1598 8.38775 14.0156 9.05668C13.9675 9.27699 13.9395 9.5053 13.9075 9.74564C13.8674 10.0501 13.8273 10.3625 13.7472 10.6749C13.591 11.2758 13.7512 11.7284 14.324 12.3012C18.1694 16.1305 22.0027 19.9679 25.8401 23.8012C27.927 25.8881 30.0139 27.971 32.1008 30.0579C32.241 30.1981 32.4012 30.3263 32.5854 30.4705C32.6816 30.5466 32.7857 30.6307 32.8939 30.7188L33.2383 31.0072L31.4038 32.7657L30.815 33.4066V33.4026ZM11.0675 12.886C11.8686 12.886 12.4654 13.3587 12.9101 13.8113C16.1746 17.0919 19.4432 20.3644 22.7157 23.637C25.3674 26.2887 28.0151 28.9403 30.6628 31.596C30.799 31.7322 30.9031 31.8925 30.9872 32.0527L32.0327 31.0513C31.8564 30.9111 31.6922 30.7749 31.54 30.6227C29.4531 28.5398 27.3662 26.4529 25.2793 24.366C21.4419 20.5286 17.6046 16.6953 13.7633 12.866C13.2385 12.3453 12.6777 11.6002 12.9782 10.4666C13.0463 10.2063 13.0823 9.9299 13.1184 9.63749C13.1504 9.38914 13.1824 9.13679 13.2385 8.88043C13.3066 8.57601 13.2786 8.46786 12.9701 8.29963C11.7084 7.59865 10.4386 6.86563 9.21292 6.15665C8.51996 5.75609 7.82699 5.35553 7.13002 4.95898C6.95778 4.85884 6.78154 4.73867 6.60129 4.61851C6.26081 4.38618 5.83222 4.09378 5.60791 4.13383C5.36357 4.17389 5.07917 4.49834 4.80278 4.81478C4.62654 5.01506 4.44228 5.21934 4.242 5.39559C4.07778 5.53979 4.03772 5.57183 4.20195 5.85222C4.94699 7.12199 5.68001 8.39576 6.41303 9.67354C6.79756 10.3425 7.17809 11.0114 7.56663 11.6763C7.67478 11.8606 7.76691 12.0609 7.85904 12.2571C8.0473 12.6617 8.24357 13.0783 8.48791 13.2024C8.71222 13.3146 9.14483 13.2265 9.56541 13.1344C9.78972 13.0863 10.022 13.0382 10.2464 13.0142C10.2784 13.0142 10.3145 13.0102 10.3465 13.0062C10.3625 13.0062 10.3785 13.0062 10.3946 13.0062C10.6349 12.9301 10.8592 12.898 11.0715 12.898L11.0675 12.886Z" fill="#243C84" stroke="#243C84" stroke-width="0.5" stroke-miterlimit="10"/>
<path d="M68.4995 17.2159C68.0869 18.8102 67.7785 20.4404 67.2377 21.9906C66.2283 24.8586 64.7703 27.5023 62.7275 29.7854C59.7713 33.086 55.6015 34.1114 51.4478 32.5733C50.6547 32.2809 49.8656 31.9524 49.1125 31.5639C48.5958 31.2955 48.2273 31.2715 47.8468 31.7682C47.5784 32.1207 47.2339 32.4211 46.8934 32.7135C46.2806 33.2382 45.4755 33.2382 44.9667 32.7415C44.45 32.2328 44.414 31.4317 44.9667 30.8229C45.6477 30.0738 46.3767 29.3608 47.1097 28.6639C47.6865 28.1151 48.3154 28.2192 49.0084 28.5237C50.4023 29.1445 51.7882 29.8455 53.2503 30.2421C56.1984 31.0392 58.7659 30.2741 60.7487 27.8868C63.2522 24.8706 64.9826 21.4859 65.4953 17.5484C65.5394 17.2199 65.5474 16.8915 65.5634 16.559C65.5634 16.4749 65.5314 16.3908 65.4953 16.2186C65.251 16.4429 65.0627 16.6031 64.8865 16.7793C63.5005 18.1613 62.1226 19.5552 60.7287 20.9331C58.8741 22.7637 56.4948 22.7677 54.6402 20.9291C52.4091 18.718 50.194 16.4949 47.9789 14.2718C46.0923 12.3772 46.0923 9.96585 47.9789 8.06721C49.3408 6.6933 50.7268 5.33942 52.1007 3.97752C52.2769 3.80128 52.4371 3.61302 52.6054 3.42876C52.5813 3.35666 52.5533 3.28456 52.5293 3.21246C51.3837 3.40473 50.206 3.49285 49.1005 3.8133C45.9081 4.73458 42.992 6.22465 40.5566 8.50783C38.4537 10.4826 37.7407 12.966 38.5458 15.7419C38.9344 17.0838 39.5873 18.3615 40.2121 19.6233C40.7609 20.7328 40.7569 21.1815 39.8757 22.0667C38.8102 23.1362 37.7407 24.2057 36.6712 25.2711C36.523 25.4194 36.3668 25.5676 36.1945 25.6917C35.6017 26.1283 34.8527 26.0803 34.392 25.5876C33.9394 25.1069 33.9033 24.3058 34.384 23.7811C35.2813 22.8117 36.1985 21.8584 37.1519 20.9451C37.5364 20.5766 37.5484 20.2882 37.3081 19.8556C36.2426 17.9049 35.4896 15.85 35.5336 13.5949C35.6057 9.88174 37.5044 7.17798 40.3964 5.07906C43.4526 2.86397 46.8253 1.33385 50.5505 0.612843C50.6346 0.596821 50.7107 0.532732 50.7908 0.492676C52.3009 0.492676 53.811 0.492676 55.3252 0.492676C55.5615 0.580798 55.7978 0.680938 56.0381 0.757044C57.2158 1.13357 57.5282 2.27916 56.6951 3.19644C56.4908 3.42475 56.2665 3.63304 56.0502 3.85335C54.0153 5.88818 51.9765 7.91901 49.9457 9.95384C49.1526 10.7469 49.0845 11.54 49.7774 12.237C52.0206 14.4962 54.2717 16.7473 56.5308 18.9864C57.2719 19.7194 58.081 19.6914 58.826 18.9584C59.4469 18.3455 60.0638 17.7287 60.6806 17.1118C62.2668 15.5296 63.853 13.9474 65.4432 12.3732C66.6129 11.2156 67.7705 11.5481 68.179 13.1503C68.2952 13.6029 68.3873 14.0596 68.4915 14.5122V17.2039L68.4995 17.2159Z" fill="#243C84" stroke="#243C84" stroke-width="0.5" stroke-miterlimit="10"/>
<path d="M55.2009 33.6629C53.9231 33.6629 52.6093 33.4265 51.3075 32.9459C50.3742 32.6014 49.6171 32.2729 48.9282 31.9204C48.4956 31.6961 48.3754 31.7402 48.1671 32.0126C47.8787 32.3851 47.5262 32.7015 47.1577 33.018C46.3926 33.6749 45.3552 33.6829 44.6903 33.03C44.0053 32.3611 43.9973 31.2956 44.6702 30.5585C45.4033 29.7494 46.1763 29.0044 46.8333 28.3755C47.6304 27.6185 48.4996 27.8628 49.1685 28.1592C49.4529 28.2874 49.7373 28.4156 50.0257 28.5478C51.1032 29.0404 52.2207 29.5532 53.3543 29.8576C56.1943 30.6266 58.5776 29.8776 60.4402 27.6305C63.1039 24.422 64.626 21.1094 65.0987 17.4964C65.1147 17.3642 65.1267 17.232 65.1347 17.0958C64.634 17.5965 64.1333 18.0972 63.6326 18.6019C62.7594 19.4751 61.8862 20.3524 61.009 21.2176C58.9862 23.2163 56.3745 23.2123 54.3557 21.2135C52.0886 18.9664 49.8134 16.6832 47.6944 14.5523C45.6516 12.4974 45.6516 9.84173 47.6944 7.78286C48.5757 6.89363 49.4649 6.01641 50.3542 5.13918C50.8268 4.67053 51.3035 4.20188 51.7761 3.73323C51.684 3.74525 51.5919 3.75726 51.5037 3.76928C50.7387 3.87342 49.9456 3.98558 49.2126 4.19788C45.8839 5.15921 43.064 6.70536 40.8329 8.80028C38.8381 10.6749 38.1812 13.0382 38.9303 15.6338C39.2868 16.8555 39.8796 18.0532 40.4524 19.2068L40.5725 19.4471C41.1534 20.6207 41.2255 21.2816 40.16 22.3511C39.0945 23.4206 38.025 24.4901 36.9555 25.5556C36.8073 25.7038 36.6311 25.872 36.4348 26.0162C35.6817 26.569 34.7044 26.5009 34.1035 25.864C33.4867 25.2071 33.4867 24.1737 34.0955 23.5127C35.1089 22.4152 36.0222 21.4819 36.8794 20.6568C37.1157 20.4325 37.1277 20.3483 36.9635 20.0479C35.6817 17.6967 35.1009 15.6458 35.141 13.5869C35.2091 10.05 36.8554 7.15799 40.172 4.75465C43.3444 2.45545 46.8172 0.929328 50.4863 0.220341C50.4863 0.220341 50.5024 0.204319 50.5184 0.196308C50.5504 0.17628 50.5865 0.156252 50.6225 0.136224L50.7066 0.0921631H55.4092L55.7096 0.208325C55.8618 0.268408 56.018 0.328492 56.1742 0.380564C56.8712 0.604876 57.3639 1.07753 57.5241 1.67837C57.6843 2.27921 57.4961 2.93211 57.0074 3.46886C56.8512 3.64511 56.683 3.80933 56.5147 3.97356L54.4438 6.04444C53.0459 7.44239 51.6439 8.84033 50.25 10.2383C49.4088 11.0835 49.7493 11.6242 50.0818 11.9567C52.5372 14.4321 54.7483 16.6392 56.8352 18.7061C57.416 19.2789 57.9647 19.2708 58.5696 18.678C59.0022 18.2534 59.4348 17.8208 59.8634 17.3922L61.8862 15.3734C62.9837 14.2799 64.0853 13.1824 65.1868 12.0929C65.8557 11.4319 66.5767 11.1636 67.2216 11.3438C67.8705 11.5241 68.3592 12.1329 68.5955 13.0582C68.6756 13.3706 68.7437 13.6871 68.8158 14.0035L68.92 14.5202L68.908 17.3121C68.7798 17.8048 68.6636 18.3015 68.5475 18.7942C68.2871 19.8917 68.0187 21.0293 67.6382 22.1148C66.5647 25.1711 65.0185 27.8388 63.0478 30.0418C60.9289 32.4131 58.161 33.6549 55.2249 33.6549L55.2009 33.6629ZM48.4996 30.9751C48.784 30.9751 49.0563 31.0833 49.2967 31.2075C49.9576 31.5479 50.6826 31.8604 51.5879 32.1968C55.6175 33.6869 59.571 32.7135 62.4269 29.5171C64.3256 27.3941 65.8197 24.8146 66.8571 21.8584C67.2256 20.813 67.49 19.6954 67.7423 18.6179C67.8585 18.1333 67.9707 17.6486 68.0948 17.1679V14.5723L68.0067 14.1838C67.9386 13.8753 67.8705 13.5669 67.7944 13.2625C67.6302 12.6256 67.3458 12.221 66.9853 12.1209C66.6328 12.0208 66.1842 12.217 65.7275 12.6697C64.626 13.7592 63.5285 14.8527 62.431 15.9502L60.4081 17.969C59.9755 18.4016 59.5429 18.8302 59.1103 19.2588C58.2051 20.1521 57.1356 20.1601 56.2504 19.2869C54.1634 17.22 51.9524 15.0089 49.493 12.5335C48.6438 11.6803 48.7079 10.6388 49.6612 9.6815C51.0591 8.28356 52.4571 6.88561 53.859 5.48767L55.9339 3.41679C56.0901 3.26057 56.2504 3.10435 56.3986 2.94413C56.707 2.60366 56.8272 2.23514 56.735 1.89868C56.6429 1.56221 56.3545 1.29784 55.9139 1.15765C55.7416 1.10157 55.5734 1.03748 55.4012 0.969384L55.245 0.9093H50.8949C50.8268 0.949356 50.7347 1.00143 50.6225 1.02146C47.0696 1.70641 43.7049 3.18847 40.6286 5.41557C37.5283 7.6627 35.9902 10.3424 35.9301 13.615C35.894 15.5296 36.4428 17.4523 37.6565 19.6754C37.993 20.2883 37.9209 20.7729 37.4242 21.2456C36.575 22.0547 35.6777 22.98 34.6723 24.0655C34.3519 24.414 34.3519 24.9788 34.6723 25.3233C34.9968 25.6677 35.5175 25.6918 35.9461 25.3793C36.1023 25.2672 36.2465 25.127 36.3787 24.9948C37.4482 23.9293 38.5177 22.8638 39.5832 21.7904C40.3122 21.0573 40.3442 20.817 39.8475 19.8076L39.7274 19.5673C39.1385 18.3816 38.5297 17.1519 38.1532 15.8581C37.312 12.9541 38.045 10.3144 40.2761 8.21947C42.5994 6.03643 45.5274 4.42619 48.9802 3.42881C49.7693 3.20049 50.5905 3.08833 51.3836 2.97618C51.7401 2.92811 52.1006 2.87604 52.4531 2.81595L52.7855 2.75987L53.0499 3.52494L52.7335 3.86942C52.6133 4.0016 52.4931 4.13379 52.369 4.26196C51.8803 4.74664 51.3916 5.22731 50.9029 5.71198C50.0137 6.5892 49.1284 7.46642 48.2472 8.35165C46.5208 10.0941 46.5208 12.2531 48.2472 13.9915C50.3662 16.1225 52.6413 18.4016 54.9045 20.6488C56.6069 22.3351 58.7258 22.3391 60.4282 20.6528C61.3054 19.7836 62.1746 18.9144 63.0478 18.0411C63.5605 17.5284 64.0732 17.0157 64.586 16.503C64.7061 16.3828 64.8343 16.2667 64.9825 16.1345L65.7235 15.4575L65.8677 16.1425C65.8798 16.1986 65.8918 16.2426 65.8998 16.2827C65.9238 16.3788 65.9478 16.471 65.9438 16.5831V16.7073C65.9238 16.9997 65.9118 17.3001 65.8717 17.6005C65.3791 21.3658 63.7969 24.8146 61.037 28.1432C58.9862 30.6146 56.2463 31.4758 53.126 30.6306C51.9283 30.3062 50.7827 29.7815 49.6732 29.2768C49.3888 29.1486 49.1084 29.0164 48.824 28.8922C48.1311 28.5838 47.7385 28.5998 47.366 28.9563C46.7171 29.5692 45.96 30.3062 45.243 31.0953C44.8545 31.5239 44.8505 32.0807 45.231 32.4572C45.5955 32.8177 46.1683 32.7977 46.617 32.4091C46.9654 32.1087 47.2739 31.8363 47.5142 31.5239C47.8306 31.1113 48.1631 30.9751 48.4835 30.9751H48.4996Z" fill="#243C84" stroke="#243C84" stroke-width="0.5" stroke-miterlimit="10"/>
<path d="M13.1103 68.4993C12.3573 68.3271 11.5962 68.1709 10.8472 67.9786C3.74932 66.1361 -0.716899 58.6937 0.989475 51.5638C2.47554 45.3551 7.65475 41.0451 14.0156 40.7728C14.8127 40.7367 15.6298 40.7928 16.4069 40.953C17.0759 41.0932 17.4924 40.917 17.9531 40.4443C19.8317 38.5176 21.7504 36.631 23.653 34.7284C24.0415 34.3398 24.5262 34.0074 25.0349 34.2998C25.4195 34.5241 25.804 34.9647 25.9162 35.3853C26.0123 35.7378 25.836 36.3146 25.5717 36.5869C23.3366 38.8901 21.0494 41.1453 18.7822 43.4205C18.2375 43.9652 17.6006 43.9011 16.9317 43.7609C13.9315 43.1441 11.1196 43.6007 8.50393 45.223C4.43427 47.7545 2.5196 52.7134 3.7413 57.5721C4.86286 62.0263 8.98059 65.4231 13.619 65.7195C19.6835 66.108 24.5623 62.2507 25.5156 56.2663C25.7479 54.8163 25.7199 53.3463 25.2472 51.9243C25.0269 51.2554 25.1231 50.6745 25.6278 50.1658C27.258 48.5276 28.8803 46.8733 30.5186 45.243C31.0994 44.6662 31.7443 44.57 32.3171 44.9145C32.9099 45.271 33.0781 45.8278 32.8859 46.4407C32.7777 46.7811 32.5133 47.0936 32.257 47.3579C30.9512 48.6878 29.6093 49.9856 28.3195 51.3315C28.1192 51.5397 27.979 51.9764 28.0511 52.2447C29.3169 57.0474 26.8454 63.3121 21.9466 66.3443C20.2363 67.4058 18.3937 68.0828 16.4029 68.3591C16.2467 68.3792 16.0945 68.4513 15.9383 68.4993C14.993 68.4993 14.0476 68.4993 13.1063 68.4993H13.1103Z" fill="#243C84" stroke="#243C84" stroke-width="0.5" stroke-miterlimit="10"/>
<path d="M16.0024 68.8999L13.0183 68.8879C12.7819 68.8359 12.5456 68.7838 12.3133 68.7317C11.8006 68.6196 11.2678 68.4994 10.7471 68.3672C3.38085 66.4565 -1.17349 58.878 0.600977 51.4717C2.1231 45.1149 7.50659 40.6526 13.9996 40.3723C14.8688 40.3322 15.706 40.3963 16.4911 40.5605C16.9918 40.6647 17.2762 40.5685 17.6687 40.164C19.0787 38.718 20.5327 37.2719 21.9387 35.87L23.3727 34.444C24.0336 33.7831 24.6625 33.6189 25.2393 33.9513C25.744 34.2437 26.1726 34.7765 26.3047 35.2772C26.4329 35.7538 26.2286 36.4828 25.8601 36.8634C24.2258 38.5457 22.5395 40.2281 20.9092 41.8583C20.2964 42.4712 19.6795 43.084 19.0667 43.7009C18.3737 44.3979 17.5606 44.2977 16.8516 44.1495C13.9315 43.5447 11.1917 44.0213 8.71627 45.5595C4.79481 47.9949 2.95225 52.7815 4.13389 57.472C5.20739 61.734 9.20895 65.0346 13.6511 65.319C19.4913 65.6955 24.2098 61.9463 25.1271 56.2023C25.3714 54.6601 25.2913 53.3022 24.8748 52.0485C24.5984 51.2113 24.7586 50.4823 25.3514 49.8815C25.9643 49.2646 26.5771 48.6478 27.19 48.0269C28.2034 47.0015 29.2208 45.9761 30.2422 44.9546C30.9432 44.2537 31.7764 44.1135 32.5294 44.5661C33.2504 44.9987 33.5308 45.7437 33.2744 46.5569C33.1342 47.0015 32.7938 47.386 32.5494 47.6344C32.0127 48.1791 31.4719 48.7199 30.9312 49.2606C30.1661 50.0257 29.373 50.8148 28.616 51.6039C28.4958 51.7281 28.4157 52.0245 28.4437 52.1366C29.7976 57.2718 27.0418 63.6567 22.163 66.6769C20.3965 67.7704 18.4819 68.4673 16.463 68.7477C16.395 68.7557 16.3148 68.7878 16.2267 68.8198C16.1706 68.8399 16.1186 68.8599 16.0625 68.8759L16.0064 68.8919L16.0024 68.8999ZM13.1544 68.0988H15.8782C15.9023 68.0908 15.9263 68.0828 15.9543 68.0708C16.0705 68.0307 16.2027 67.9827 16.3509 67.9626C18.2575 67.6983 20.0721 67.0374 21.7424 66.0039C26.3368 63.16 28.9364 57.1596 27.6706 52.3489C27.5545 51.9083 27.7708 51.3355 28.0392 51.0551C28.8042 50.258 29.5973 49.4649 30.3664 48.6998C30.9071 48.1631 31.4439 47.6223 31.9766 47.0816C32.1649 46.8933 32.4212 46.6049 32.5094 46.3245C32.6536 45.8639 32.5214 45.5034 32.1168 45.2591C31.6882 45.0027 31.2476 45.0908 30.807 45.5274C29.7856 46.5448 28.7722 47.5703 27.7588 48.5917C27.1459 49.2126 26.5331 49.8294 25.9202 50.4463C25.5397 50.8268 25.4516 51.2434 25.6358 51.7962C26.0924 53.1741 26.1846 54.6561 25.9202 56.3265C24.9388 62.495 19.8718 66.5166 13.6031 66.1161C8.82442 65.8076 4.51843 62.2547 3.36082 57.6643C2.09506 52.6373 4.07781 47.4982 8.29969 44.8785C10.9554 43.2282 13.8915 42.7195 17.0198 43.3644C17.7088 43.5086 18.1294 43.5126 18.5059 43.1321C19.1187 42.5152 19.7356 41.9024 20.3485 41.2895C21.9787 39.6633 23.6611 37.9809 25.2913 36.3026C25.4596 36.1263 25.5917 35.6897 25.5357 35.4855C25.4556 35.189 25.1551 34.8245 24.8387 34.6443C24.7386 34.5842 24.5022 34.448 23.9415 35.0088L22.5075 36.4348C21.1015 37.8327 19.6515 39.2787 18.2455 40.7207C17.6607 41.3216 17.1039 41.5018 16.3309 41.3416C15.6099 41.1934 14.8408 41.1333 14.0397 41.1694C7.90714 41.4337 2.82407 45.6476 1.38607 51.652C-0.256215 58.5175 4.12588 65.8157 10.9554 67.5861C11.4641 67.7183 11.9848 67.8345 12.4935 67.9466C12.7178 67.9947 12.9381 68.0468 13.1625 68.0948L13.1544 68.0988Z" fill="#243C84" stroke="#243C84" stroke-width="0.5" stroke-miterlimit="10"/>
<path d="M12.5737 62.4189C12.3494 62.2907 11.9569 62.1585 11.6845 61.8941C10.1303 60.38 8.60421 58.8379 7.07409 57.2997C6.63748 56.8631 6.51731 56.3584 6.69356 55.7456C7.26635 53.7508 7.81512 51.752 8.35987 49.7532C8.54413 49.0763 8.94869 48.6637 9.63365 48.4795C11.6124 47.9427 13.5871 47.394 15.5539 46.8252C16.2428 46.6249 16.7916 46.7811 17.2883 47.2858C18.7463 48.7599 20.2164 50.2259 21.6904 51.6879C22.1671 52.1606 22.3553 52.6773 22.1831 53.3502C21.6624 55.357 21.1617 57.3678 20.657 59.3786C20.5088 59.9755 20.1723 60.4001 19.5675 60.5643C17.3844 61.1651 15.2014 61.7539 13.0184 62.3468C12.9262 62.3708 12.8341 62.3748 12.5697 62.4149L12.5737 62.4189ZM13.2507 59.4627C13.483 59.3987 13.6192 59.3626 13.7554 59.3266C15.0292 58.9901 16.3029 58.6336 17.5847 58.3332C18.0253 58.229 18.2016 58.0047 18.2977 57.5961C18.5981 56.3104 18.9466 55.0366 19.223 53.7508C19.2751 53.5105 19.1869 53.142 19.0187 52.9657C18.0454 51.9403 17.048 50.9389 16.0185 49.9695C15.8463 49.8053 15.4738 49.7292 15.2334 49.7853C13.9276 50.0937 12.6258 50.4342 11.344 50.8267C11.0757 50.9068 10.7792 51.2313 10.6951 51.5037C10.3106 52.7654 9.97011 54.0392 9.6737 55.325C9.61362 55.5813 9.70575 55.9819 9.886 56.1702C10.8353 57.1836 11.8327 58.1529 12.8221 59.1303C12.9623 59.2705 13.1385 59.3746 13.2507 59.4627Z" fill="#243C84" stroke="#243C84" stroke-width="0.5" stroke-miterlimit="10"/>
<path d="M12.4975 62.8354L12.3774 62.7674C12.3213 62.7353 12.2532 62.7033 12.1771 62.6672C11.9407 62.5551 11.6483 62.4149 11.408 62.1825C10.0942 60.9008 8.78035 59.5789 7.50658 58.3011L6.79359 57.5841C6.25684 57.0474 6.09662 56.3905 6.31292 55.6374C6.88171 53.6507 7.42647 51.6719 7.97924 49.6491C8.20355 48.824 8.71226 48.3152 9.53741 48.0949C11.6443 47.5261 13.579 46.9854 15.4536 46.4406C16.2748 46.2043 16.9717 46.3886 17.5806 47.0054C18.9505 48.3873 20.3885 49.8294 21.9787 51.4035C22.5836 52.0044 22.7798 52.6733 22.5755 53.4504C22.1029 55.2729 21.6382 57.1315 21.1896 58.93L21.0534 59.4748C20.8612 60.2478 20.3885 60.7566 19.6835 60.9488C17.8289 61.4575 15.9744 61.9622 14.1198 62.4669L13.1344 62.7353C13.0663 62.7553 12.9942 62.7634 12.874 62.7834C12.814 62.7914 12.7419 62.7994 12.6417 62.8154L12.5055 62.8354H12.4975ZM16.1065 47.1416C15.9704 47.1416 15.8262 47.1656 15.6699 47.2097C13.7913 47.7545 11.8526 48.2952 9.74169 48.864C9.19693 49.0122 8.89651 49.3086 8.74831 49.8574C8.19554 51.8842 7.65078 53.867 7.08199 55.8537C6.9458 56.3264 7.03392 56.6869 7.36238 57.0154L8.07537 57.7324C9.34514 59.0101 10.659 60.328 11.9688 61.6057C12.113 61.7459 12.3293 61.8501 12.5216 61.9382C12.5656 61.9582 12.6097 61.9783 12.6457 61.9983C12.6898 61.9903 12.7298 61.9863 12.7619 61.9823C12.834 61.9743 12.8781 61.9662 12.9181 61.9582L13.9035 61.6899C15.7581 61.1852 17.6126 60.6845 19.4632 60.1757C19.8878 60.0596 20.1442 59.7752 20.2683 59.2785L20.4045 58.7337C20.8531 56.9352 21.3178 55.0726 21.7945 53.2461C21.9226 52.7494 21.8105 52.3649 21.4099 51.9683C19.8157 50.3901 18.3777 48.9481 17.0078 47.5622C16.7234 47.2738 16.439 47.1376 16.1065 47.1376V47.1416ZM13.1665 59.9034L13.0102 59.7832C12.9822 59.7592 12.9461 59.7351 12.9101 59.7111C12.8019 59.635 12.6698 59.5389 12.5456 59.4187L12.0289 58.906C11.2238 58.1089 10.3906 57.2877 9.6015 56.4466C9.33713 56.1622 9.20094 55.6334 9.29307 55.2369C9.6055 53.895 9.95399 52.6012 10.3225 51.3875C10.4467 50.979 10.8512 50.5624 11.2398 50.4422C12.4054 50.0857 13.6511 49.7492 15.1532 49.3927C15.4897 49.3126 16.0144 49.3968 16.3068 49.6731C17.3242 50.6345 18.3376 51.6479 19.319 52.6853C19.5714 52.9497 19.7035 53.4544 19.6234 53.8309C19.4552 54.6 19.2629 55.3731 19.0787 56.1181C18.9505 56.6388 18.8183 57.1595 18.6982 57.6843C18.562 58.2691 18.2495 58.5895 17.6887 58.7217C16.7715 58.934 15.8382 59.1864 14.9409 59.4267C14.5844 59.5228 14.2279 59.619 13.8714 59.7111L13.1785 59.8994L13.1665 59.9034ZM15.4136 50.1658C15.3855 50.1658 15.3575 50.1658 15.3335 50.1738C13.8474 50.5263 12.6217 50.8548 11.4681 51.2073C11.3359 51.2473 11.1276 51.4676 11.0836 51.6198C10.719 52.8135 10.3746 54.0873 10.0661 55.4131C10.0341 55.5573 10.1022 55.8137 10.1783 55.8938C10.9594 56.7229 11.7845 57.5441 12.5856 58.3332L13.1024 58.8459C13.1665 58.91 13.2506 58.9701 13.3267 59.0261L13.6511 58.938C14.0076 58.8459 14.3641 58.7498 14.7206 58.6536C15.6259 58.4093 16.5632 58.1609 17.4925 57.9406C17.7568 57.8806 17.837 57.7924 17.905 57.5C18.0292 56.9753 18.1574 56.4506 18.2896 55.9258C18.4738 55.1848 18.6661 54.4197 18.8303 53.6627C18.8584 53.5385 18.7943 53.3102 18.7262 53.2381C17.7528 52.2127 16.7514 51.2073 15.742 50.258C15.69 50.2099 15.5297 50.1658 15.4056 50.1658H15.4136Z" fill="#243C84" stroke="#243C84" stroke-width="0.5" stroke-miterlimit="10"/>
<path d="M41.8423 43.5847C42.3991 43.044 43.0199 42.4391 43.5847 41.8904C48.9402 47.2538 54.3437 52.6654 59.7312 58.0609C59.2104 58.5576 58.5736 59.1704 57.9767 59.7392C52.6493 54.4078 47.2418 48.9923 41.8423 43.5887V43.5847Z" fill="#243C84" stroke="#243C84" stroke-width="0.5" stroke-miterlimit="10"/>
</g>
<defs>
<clipPath id="clip0_3_720">
<rect width="69" height="69" fill="white"/>
</clipPath>
</defs>
</svg>
