<svg width="20" height="23" viewBox="0 0 20 23" fill="none" xmlns="http://www.w3.org/2000/svg">
<path d="M3.33333 23C2.4068 23 1.61732 22.6654 0.970395 21.9961C0.323465 21.3268 0 20.51 0 19.5514V16.1028H3.33333V0L5 1.72429L6.66667 0L8.33333 1.72429L10 0L11.6667 1.72429L13.3333 0L15 1.72429L16.6667 0L18.3333 1.72429L20 0V19.5514C20 20.51 19.6765 21.3268 19.0296 21.9961C18.3827 22.6654 17.5932 23 16.6667 23H3.33333ZM16.6721 20.7028C16.9846 20.7028 17.2533 20.5951 17.4616 20.3739C17.67 20.1527 17.7796 19.8804 17.7796 19.5571V3.44858H5.55921V16.0972H15.5647V19.5457C15.5647 19.8691 15.6689 20.147 15.8827 20.3625C16.0965 20.5781 16.3596 20.6915 16.6721 20.6915V20.7028ZM6.67215 8.04858V5.74575H13.3443V8.04858H6.67215ZM6.67215 11.5028V9.2H13.3443V11.5028H6.67215ZM15.5647 8.04858C15.2522 8.04858 14.9836 7.94081 14.7752 7.71961C14.5669 7.4984 14.4572 7.22614 14.4572 6.90284C14.4572 6.57953 14.5614 6.3016 14.7752 6.08607C14.989 5.87053 15.2522 5.75709 15.5647 5.75709C15.8772 5.75709 16.1458 5.86486 16.3542 6.08607C16.5625 6.30727 16.6721 6.57953 16.6721 6.90284C16.6721 7.22614 16.568 7.50407 16.3542 7.71961C16.1404 7.93514 15.8772 8.04858 15.5647 8.04858ZM15.5647 11.5028C15.2522 11.5028 14.9836 11.3951 14.7752 11.1739C14.5669 10.9527 14.4572 10.6804 14.4572 10.3571C14.4572 10.0338 14.5614 9.75586 14.7752 9.54032C14.989 9.32478 15.2522 9.21134 15.5647 9.21134C15.8772 9.21134 16.1458 9.31911 16.3542 9.54032C16.5625 9.76153 16.6721 10.0338 16.6721 10.3571C16.6721 10.6804 16.568 10.9583 16.3542 11.1739C16.1404 11.3894 15.8772 11.5028 15.5647 11.5028ZM3.33333 20.7028H13.3388V18.4H2.22588V19.5514C2.22588 19.8747 2.33004 20.1527 2.54386 20.3682C2.75768 20.5837 3.02083 20.6972 3.33333 20.6972V20.7028Z" fill="#DA2222"/>
</svg>
