<?xml version="1.0" encoding="utf-8"?>
<!-- Generator: Adobe Illustrator 27.8.0, SVG Export Plug-In . SVG Version: 6.00 Build 0)  -->
<svg version="1.1" id="Layer_1" xmlns="http://www.w3.org/2000/svg" xmlns:xlink="http://www.w3.org/1999/xlink" x="0px" y="0px"
	 viewBox="0 0 170 43" style="enable-background:new 0 0 170 43;" xml:space="preserve">
<style type="text/css">
	.st0{fill:#BF0000;}
	.st1{fill:#FFFFFF;}
</style>
<g>
	<path class="st0" d="M49,16.1c-0.1-1-1.1-1.5-2.1-0.7c0,0-2.3,1.9-3.7,2.8c-0.2,0.1-0.4,0-0.4-0.2V9.7c0-0.9-0.6-1.8-1.4-2.2
		L25.3,0.2c-0.6-0.3-1.4-0.3-2,0L7.6,7.5C6.6,7.9,6.1,8.9,6.1,9.8v8.3c0,0.6-1.3-0.7-1.7-1c-0.6-0.5-1-0.9-1.6-1.4
		c-0.4-0.4-0.8-0.8-1.5-0.7c-0.5,0.1-1,0.5-1.1,1c-0.1,0.7-0.1,0.3-0.1,1c-0.1,1-0.1,2,0,3c0.7,13.9,13.4,24.9,28,22.7
		c10.4-1.5,18.7-9.6,20.4-20C48.9,20.7,49.2,18.1,49,16.1L49,16.1z M24.5,3.4l14.6,6.7c0.2,0.1,0.3,0.3,0.3,0.5v9.5
		c0,0.2-0.1,0.4-0.3,0.5c-2.8,1.3-6,2.7-9.3,3.2c-0.4,0.1-0.8-0.3-0.7-0.7c0.2-0.9,0.3-1.9,0.4-3.2c0-2.6-0.4-4.4-1.1-5.5
		c-0.8-1.1-2.1-1.7-4.1-1.7c-2,0-3.3,0.5-4,1.6c-0.7,1.1-1.1,2.9-1.1,5.4c0,1.3,0.1,2.4,0.3,3.3c0.1,0.4-0.3,0.8-0.7,0.7
		c-3.3-0.6-6.5-1.7-9.3-3.3c-0.2-0.1-0.3-0.3-0.3-0.5v-9.4c0-0.2,0.1-0.4,0.3-0.5L24,3.4C24.2,3.3,24.4,3.3,24.5,3.4z M5.4,21.8
		c3,2.2,6.6,3.9,10.5,4.9c0.6,0.1,0.6,0.9,0.1,1.1c-3.3,1.2-7,2-9.4,1.6c-0.2,0-0.3-0.1-0.4-0.3c-1.1-1.9-1.9-4.1-2.4-6.3
		C3.7,21.9,4.7,21.3,5.4,21.8L5.4,21.8z M24.4,39.5c-6.1,0-11.5-2.6-15.3-6.6c0.2,0,0.3,0,0.5,0c1.8,0,3.7-0.4,5.6-1
		c0.2-0.1,0.4,0,0.6,0.1c2.9,2.6,6.7,4.8,10.7,6.3c0.6,0.2,0.5,1.1-0.1,1.1C25.7,39.5,25.1,39.5,24.4,39.5L24.4,39.5z M39.7,32.9
		c-0.1,0.1-0.2,0.2-0.3,0.3c-1.2,1.2-2.5,2.3-4,3.2c-0.1,0.1-0.3,0.1-0.4,0.1C29.5,36,24.3,34,20.3,30.8c-0.3-0.3-0.3-0.8,0.1-1
		c0.4-0.2,0.9-0.4,1.4-0.6c0.9-0.4,1.8-0.8,2.6-1.2c0.8,0.4,1.7,0.8,2.6,1.2c3.9,1.8,8.2,3.7,12.2,3.7
		C39.4,32.9,39.6,32.9,39.7,32.9 M44.7,23.9c-0.4,1.8-1.1,3.5-2.1,5.1c-0.1,0.2-0.3,0.3-0.4,0.3c-2.3,0.3-5.8-0.4-9-1.4
		c-0.6-0.2-0.5-1,0.1-1.1c3.6-0.8,7-2.2,10-3.9C44,22.4,44.9,23.1,44.7,23.9L44.7,23.9z"/>
	<path class="st1" d="M61.2,36.2c-0.3,0-0.5-0.2-0.5-0.5V9.8c0-1.4,0.2-2.3,0.6-2.7c0.4-0.4,1.3-0.6,2.8-0.6h9
		c0.1,0,0.3,0.1,0.4,0.2l12.4,19.7c0.2,0.4,0.8,0.2,0.8-0.2V7c0-0.3,0.2-0.5,0.5-0.5H93c0.3,0,0.6,0.3,0.5,0.6c0,0.1,0,0.1,0,0.2
		c0,0.4,0,0.9,0,1.3v24.7c0,1.3-0.3,2.1-0.8,2.4c-0.6,0.3-1.6,0.5-3.1,0.5h-8.1c-0.2,0-0.4-0.1-0.5-0.2L68.6,16
		c-0.3-0.5-1-0.2-1,0.3v19.4c0,0.3-0.2,0.5-0.5,0.5L61.2,36.2L61.2,36.2z"/>
	<path class="st1" d="M105.1,36.4c-2.7,0-4.5-0.5-5.5-1.5c-1-1-1.5-2.7-1.5-5l0.1-16.1c0-0.3,0.2-0.5,0.5-0.5h7.8
		c0.3,0,0.5,0.2,0.5,0.5v15.7c0,1.2,0.2,2.1,0.6,2.6c0.4,0.5,1,0.8,1.9,0.8c0.5,0,0.9,0,1.3-0.1c0.3-0.1,0.7,0.2,0.7,0.5v2.1
		c0,0.2-0.2,0.5-0.4,0.5c-0.1,0-0.3,0.1-0.5,0.1c-0.4,0.1-1.1,0.2-1.9,0.2C107.8,36.4,106.6,36.4,105.1,36.4L105.1,36.4z
		 M102.6,10.9c-1.4,0-2.4-0.2-3-0.5c-0.6-0.3-0.9-0.9-0.9-1.7S99,7.3,99.7,7c0.6-0.3,1.6-0.5,3.1-0.5c1.3,0,2.3,0.2,2.9,0.5
		c0.6,0.3,0.8,0.9,0.8,1.7c0,0.8-0.3,1.4-0.8,1.7C105.1,10.8,104.1,10.9,102.6,10.9z"/>
	<path class="st1" d="M111.7,24.4c0-3.2,0.5-4.8,1.4-6.5c0.9-1.8,2.3-2.9,4.1-3.6c1.8-0.7,3.8-1,6.2-1c0.8,0,1.6,0,2.5,0.1
		c0.9,0.1,1.8,0.2,2.6,0.3c0.9,0.1,1.6,0.3,2.3,0.5c0.2,0.1,0.3,0.1,0.4,0.2c0.4,0.2,0.4,0.8,0,1l-0.3,0.1c-0.4,0.1-0.7-0.1-0.7-0.5
		V7c0-0.3,0.2-0.5,0.5-0.5h7.7c0.3,0,0.5,0.2,0.5,1.4l-0.1,17.4c0,1.8-0.2,3.9-0.7,5.5c-0.5,1.6-1.3,2.8-2.3,3.6
		c-1.1,0.8-2.6,1.3-4.4,1.6c-1.8,0.2-4.1,0.4-6.8,0.4c-2.5,0-4.6-0.2-6.2-0.5c-1.7-0.3-3-0.9-4-1.8c-1-0.9-1.7-2.1-2.1-3.6
		C111.9,29,111.7,26.9,111.7,24.4z M125.1,31.8c1.1,0,2-0.1,2.6-0.3c0.7-0.2,1.2-0.5,1.5-1c0.4-0.5,0.6-1.1,0.8-1.9
		c0.1-0.8,0.2-1.9,0.2-3.2l-0.1-6.5c0-0.3-0.2-0.5-0.5-0.5c-0.1,0-0.3,0-0.5,0c-0.4,0-0.9,0-1.3-0.1c-0.5,0-0.9,0-1.3,0
		c-1.5,0-2.7,0.2-3.5,0.6c-0.9,0.4-1.4,1.1-1.8,2.1c-0.4,1-0.5,1.7-0.5,3.7s0.1,3.6,0.4,4.6c0.3,1,0.8,1.7,1.4,2.1
		C123.2,31.6,124,31.8,125.1,31.8L125.1,31.8z"/>
	<path class="st1" d="M156.2,36.5c-2.3,0-4.3-0.2-6-0.5c-1.7-0.3-3.2-0.9-4.4-1.8c-1.2-0.9-2.1-2.1-2.6-3.7
		c-0.6-1.6-0.9-2.8-0.9-5.3s0.3-4.5,0.9-6.1c0.6-1.6,1.5-2.8,2.6-3.7c1.2-0.9,2.6-1.5,4.4-1.8c1.7-0.3,3.7-0.5,6-0.5
		c2.3,0,4.3,0.2,6,0.5c1.7,0.3,3.1,0.9,4.3,1.8c1.1,0.9,2,2.1,2.6,3.7c0.6,1.6,0.9,3.6,0.9,6.1s-0.3,3.7-0.9,5.3
		c-0.6,1.6-1.5,2.8-2.6,3.7c-1.2,0.8-2.6,1.4-4.3,1.7C160.4,36.4,158.5,36.5,156.2,36.5L156.2,36.5z M156.2,32.3
		c1.1,0,2-0.2,2.7-0.6c0.7-0.4,1.2-1.2,1.6-2.3s0.5-1.9,0.5-4s-0.2-3.7-0.5-4.9c-0.4-1.1-0.9-1.9-1.6-2.3c-0.7-0.4-1.6-0.6-2.7-0.6
		c-1,0-1.9,0.2-2.7,0.6c-0.8,0.4-1.3,1.2-1.7,2.3c-0.4,1.1-0.6,2.7-0.6,4.9c0,2.1,0.2,2.9,0.6,4c0.4,1.1,0.9,1.9,1.7,2.3
		C154.3,32,155.2,32.3,156.2,32.3z"/>
</g>
</svg>
