<svg width="73" height="54" viewBox="0 0 73 54" fill="none" xmlns="http://www.w3.org/2000/svg">
<g clip-path="url(#clip0_32_271)">
<path d="M69.4523 54H3.54296C1.58563 54 0 52.4299 0 50.4975V3.49781C0 1.57006 1.59033 0 3.54296 0H69.4523C71.4097 0 73 1.57006 73 3.49781V50.4975C73 52.4299 71.4097 54 69.4523 54ZM4.58279 49.4756H68.4125V4.52439H4.58279V49.4756Z" fill="#243C84"/>
<path d="M45.9506 43.2511C44.5155 43.2511 43.4286 42.8284 42.6852 41.983C41.9418 41.1375 41.5701 40.1713 41.5701 39.089C41.5701 38.369 41.7301 37.6676 42.0547 36.9894C42.3794 36.3112 42.8781 35.7492 43.551 35.3032C44.1673 34.913 44.6661 34.416 45.0472 33.8075C45.4283 33.199 45.6871 32.544 45.8283 31.8519L45.3248 31.601C45.1554 31.5174 45.0002 31.4199 44.859 31.3084L40.982 32.6833C40.5021 32.8506 40.041 32.9899 39.5893 33.1014C39.1376 33.2129 38.6765 33.2686 38.1965 33.2686C36.4274 33.2686 34.8606 32.5068 33.4961 30.9786C32.1316 29.455 31.4541 27.2206 31.4541 24.2802C31.4541 22.8635 31.8823 21.7904 32.7386 21.0565C33.5949 20.3226 34.5595 19.9556 35.6275 19.9556C36.3568 19.9556 37.0767 20.1135 37.7778 20.4341C38.4789 20.7546 39.0576 21.247 39.5046 21.9112C39.8998 22.5197 40.4032 23.0121 41.0196 23.3884C41.636 23.7646 42.2994 24.0201 43.0005 24.1595L43.2546 23.6624C43.3392 23.4952 43.4381 23.3419 43.551 23.2026L42.1583 19.375C41.9889 18.9012 41.8477 18.4459 41.7348 18C41.6219 17.5541 41.5654 17.1128 41.5654 16.6668C41.5654 14.8924 42.3371 13.3316 43.885 11.9845C45.433 10.6374 47.6915 9.96851 50.6698 9.96851C52.1049 9.96851 53.1918 10.3912 53.9352 11.2366C54.6786 12.0821 55.0503 13.0343 55.0503 14.0888C55.0503 14.8088 54.8903 15.5195 54.5657 16.2116C54.241 16.9037 53.7423 17.4751 53.0694 17.9164C52.4531 18.3066 51.9543 18.8036 51.5732 19.4121C51.1921 20.0206 50.9333 20.6756 50.7922 21.3677L51.2956 21.6186C51.465 21.7022 51.6203 21.7997 51.7614 21.9112L55.6384 20.4944C56.1184 20.3272 56.5748 20.1972 57.0076 20.0996C57.4405 20.0021 57.9016 19.9556 58.3768 19.9556C60.6541 19.9556 62.3527 20.8846 63.4772 22.7427C64.6017 24.6008 65.1616 26.6679 65.1616 28.944C65.1616 30.3608 64.7099 31.4338 63.8112 32.1677C62.9126 32.9017 61.9151 33.2686 60.8188 33.2686C60.1177 33.2686 59.4355 33.1107 58.7768 32.7902C58.118 32.4697 57.5628 31.9773 57.1111 31.313C56.7159 30.7045 56.2125 30.2121 55.5961 29.8359C54.9797 29.4596 54.3163 29.2041 53.6152 29.0648L53.3612 29.5618C53.2765 29.729 53.1777 29.8823 53.0647 30.0217L54.4575 33.8493C54.6268 34.2952 54.768 34.7179 54.8809 35.1174C54.9938 35.5169 55.0503 35.9443 55.0503 36.3855C55.0785 38.1879 54.321 39.7858 52.773 41.1701C51.2297 42.559 48.9525 43.2511 45.9459 43.2511H45.9506ZM48.3079 29.1019C49.0089 29.1019 49.6065 28.8604 50.1005 28.3726C50.5945 27.8849 50.8392 27.2996 50.8392 26.6028C50.8392 25.9061 50.5945 25.3208 50.1005 24.833C49.6065 24.3453 49.0136 24.1037 48.3079 24.1037C47.6021 24.1037 47.0092 24.3453 46.5152 24.833C46.0212 25.3208 45.7765 25.9061 45.7765 26.6028C45.7765 27.2996 46.0212 27.8849 46.5152 28.3726C47.0092 28.8604 47.6021 29.1019 48.3079 29.1019ZM46.3693 21.1122C46.5387 21.0565 46.7128 21.0101 46.8963 20.9682C47.0798 20.9264 47.2539 20.8939 47.4233 20.8661C47.6491 19.7001 48.0773 18.6178 48.7078 17.6191C49.3383 16.6204 50.1758 15.7889 51.2156 15.1246C51.3568 15.0132 51.4697 14.8738 51.5544 14.7066C51.6391 14.5393 51.6814 14.3303 51.6814 14.0841C51.6814 13.8612 51.5967 13.6753 51.4274 13.5221C51.258 13.3688 51.0039 13.2944 50.6698 13.2944C49.6018 13.2944 48.3925 13.5221 47.0469 13.9819C45.7012 14.4418 44.9955 15.3337 44.939 16.6668C44.939 16.9177 44.9719 17.1546 45.0425 17.3729C45.1131 17.5912 45.1742 17.8049 45.2307 17.9953L46.3693 21.1169V21.1122ZM38.1918 29.9334C38.5871 29.9334 39.0482 29.8359 39.5846 29.6408L42.7464 28.5166C42.6899 28.3494 42.6429 28.1775 42.6005 27.9964C42.5582 27.8152 42.5253 27.6433 42.497 27.4761C41.316 27.2532 40.2197 26.8304 39.2081 26.208C38.1965 25.5855 37.3543 24.7587 36.6815 23.7321C36.5686 23.5928 36.4227 23.4813 36.2392 23.3977C36.0557 23.3141 35.8534 23.2722 35.6275 23.2722C35.3735 23.2722 35.1759 23.3559 35.0394 23.5231C34.903 23.6903 34.8277 23.9412 34.8277 24.271C34.8277 25.7667 35.1147 27.0859 35.6934 28.224C36.2721 29.3621 37.105 29.9288 38.2013 29.9288L38.1918 29.9334ZM45.9506 39.9205C47.2727 39.9205 48.5713 39.6557 49.8511 39.1308C51.1309 38.6059 51.7426 37.6862 51.6861 36.3855C51.6861 36.1626 51.6532 35.9535 51.5826 35.7631C51.512 35.568 51.4509 35.3868 51.3944 35.2242L50.2558 32.1027C50.0864 32.1584 49.9123 32.2049 49.7288 32.2467C49.5453 32.2885 49.3712 32.321 49.2018 32.3489C48.976 33.5148 48.5478 34.5972 47.9173 35.5959C47.2868 36.5946 46.4493 37.4261 45.4095 38.0903C45.2683 38.2018 45.1507 38.3458 45.0519 38.527C44.9531 38.7081 44.9202 38.8939 44.9484 39.089C44.9766 39.312 45.0613 39.5071 45.2025 39.6697C45.3436 39.8322 45.5977 39.9205 45.96 39.9205H45.9506ZM60.8282 29.9334C61.0823 29.9334 61.3081 29.8637 61.501 29.7244C61.6939 29.585 61.7974 29.3202 61.7974 28.9347C61.7974 27.8802 61.5716 26.6818 61.1246 25.3347C60.6729 23.9876 59.7601 23.3048 58.3862 23.2769C58.1322 23.2769 57.8922 23.3048 57.6711 23.3605C57.4499 23.4162 57.2335 23.472 57.0406 23.5277L53.8787 24.6937C53.9352 24.8609 53.9822 25.0328 54.0246 25.2139C54.0669 25.3951 54.0999 25.567 54.1281 25.7342C55.3091 25.9572 56.4054 26.3799 57.417 27.0023C58.4286 27.6248 59.2708 28.4516 59.9436 29.4782C60.0283 29.6175 60.1554 29.729 60.3247 29.8126C60.4941 29.8962 60.6635 29.9381 60.8282 29.9381V29.9334Z" fill="#DA2222"/>
<path d="M25.5349 20.0532H9.77277C8.86468 20.0532 8.12598 19.3239 8.12598 18.4274C8.12598 17.5308 8.86468 16.8015 9.77277 16.8015H25.5349C26.443 16.8015 27.1817 17.5308 27.1817 18.4274C27.1817 19.3239 26.443 20.0532 25.5349 20.0532Z" fill="#243C84"/>
<path d="M25.5349 28.2379H9.77277C8.86468 28.2379 8.12598 27.5087 8.12598 26.6121C8.12598 25.7156 8.86468 24.9863 9.77277 24.9863H25.5349C26.443 24.9863 27.1817 25.7156 27.1817 26.6121C27.1817 27.5087 26.443 28.2379 25.5349 28.2379Z" fill="#243C84"/>
<path d="M25.5349 36.4134H9.77277C8.86468 36.4134 8.12598 35.6841 8.12598 34.7876C8.12598 33.8911 8.86468 33.1618 9.77277 33.1618H25.5349C26.443 33.1618 27.1817 33.8911 27.1817 34.7876C27.1817 35.6841 26.443 36.4134 25.5349 36.4134Z" fill="#243C84"/>
</g>
<defs>
<clipPath id="clip0_32_271">
<rect width="73" height="54" fill="white"/>
</clipPath>
</defs>
</svg>
