<svg width="72" height="69" viewBox="0 0 72 69" fill="none" xmlns="http://www.w3.org/2000/svg">
<g clip-path="url(#clip0_3_737)">
<path d="M66.4666 22.2701C69.5181 22.2701 71.9918 19.8228 71.9918 16.8039C71.9918 13.785 69.5181 11.3378 66.4666 11.3378C63.4151 11.3378 60.9414 13.785 60.9414 16.8039C60.9414 19.8228 63.4151 22.2701 66.4666 22.2701Z" fill="#DA2222"/>
<path d="M3.77102 69V57.8163H15.4527L5.84503 26.6819C4.14812 25.7493 2.75452 24.3787 1.65603 22.5783C0.557544 20.7778 0.00830078 18.8477 0.00830078 16.7958C0.00830078 13.6897 1.10679 11.0458 3.30376 8.87234C5.50073 6.69886 8.17316 5.61212 11.3129 5.61212C13.764 5.61212 15.9445 6.30958 17.8628 7.71261C19.781 9.10753 21.1173 10.8998 21.8632 13.0733H33.922V9.34272C33.922 8.28842 34.2827 7.40443 35.0041 6.68264C35.7255 5.96896 36.619 5.61212 37.6929 5.61212C38.2586 5.61212 38.8078 5.73377 39.3406 5.98518C39.8735 6.23659 40.3326 6.60965 40.7097 7.10436L47.1202 1.13539C47.6859 0.575798 48.3581 0.218958 49.145 0.0648675C49.932 -0.0892227 50.7026 0.0162074 51.4568 0.389268L66.1552 7.10436C66.9094 7.47742 67.4258 8.02079 67.7127 8.73447C67.9996 9.44815 67.9833 10.1456 67.6635 10.835C67.2865 11.5811 66.7372 12.0596 66.0158 12.2785C65.2944 12.4975 64.5894 12.4489 63.8926 12.1407L50.3255 5.98518L41.472 14.1844V19.4072L50.3255 27.4199L63.8926 21.2644C64.5812 20.9563 65.3026 20.9238 66.0568 21.1752C66.811 21.4266 67.3438 21.8889 67.6553 22.5702C68.0324 23.3163 68.0652 24.03 67.7455 24.7112C67.434 25.3924 66.9012 25.9196 66.147 26.2927L51.4486 33.1943C50.6944 33.5673 49.9238 33.6728 49.1368 33.5187C48.3499 33.3646 47.6777 33.0077 47.112 32.4482L40.7015 26.4792C40.3244 26.8522 39.8653 27.1929 39.3325 27.501C38.7996 27.8092 38.2504 27.9633 37.6847 27.9633C36.619 27.9633 35.7255 27.6065 34.9959 26.8928C34.2663 26.1791 33.9138 25.2951 33.9138 24.2327V20.5021H21.855C21.6665 20.9968 21.4616 21.4672 21.2402 21.897C21.0189 22.3269 20.7238 22.7972 20.3467 23.2919L39.1931 57.7838H52.7602V68.9675H3.77102V69ZM11.3047 20.5264C12.3704 20.5264 13.2639 20.1696 13.9935 19.4559C14.7149 18.7422 15.0756 17.8582 15.0756 16.7958C15.0756 15.7334 14.7149 14.8575 13.9935 14.1357C13.2721 13.4139 12.3786 13.0652 11.3047 13.0652C10.2308 13.0652 9.34543 13.4221 8.61584 14.1357C7.89444 14.8494 7.53375 15.7334 7.53375 16.7958C7.53375 17.8582 7.89444 18.7341 8.61584 19.4559C9.33723 20.1777 10.2308 20.5264 11.3047 20.5264ZM23.1831 57.8163H30.5364L14.3296 27.9876H13.9525L23.1831 57.8163Z" fill="#243C84"/>
</g>
<defs>
<clipPath id="clip0_3_737">
<rect width="72" height="69" fill="white"/>
</clipPath>
</defs>
</svg>
