<svg width="70" height="65" viewBox="0 0 70 65" fill="none" xmlns="http://www.w3.org/2000/svg">
<g clip-path="url(#clip0_32_68)">
<path d="M17.3989 20.7742L24.6145 18.4341H28.8726L33.4566 22.1297L38.3667 23.1278L44.9541 22.6591L52.1969 25.1476V18.8118V10.5877L48.3972 6.88875L44.9541 5.4557L39.8879 5.07805L36.1833 1.83429L31.9083 0.927246L22.9439 1.60837L18.9168 4.38007L17.3989 7.78231V20.7742Z" fill="#DA2222"/>
<path d="M18.1631 47.4088C13.141 47.4088 9.05273 43.2344 9.05273 38.1024C9.05273 32.9704 13.1376 28.796 18.1631 28.796C23.1886 28.796 27.2734 32.9704 27.2734 38.1024C27.2734 43.2344 23.1886 47.4088 18.1631 47.4088ZM18.1631 30.8663C14.2548 30.8663 11.0765 34.1134 11.0765 38.1058C11.0765 42.0981 14.2548 45.3452 18.1631 45.3452C22.0714 45.3452 25.2497 42.0981 25.2497 38.1058C25.2497 34.1134 22.0714 30.8663 18.1631 30.8663Z" fill="#243C84" stroke="#243C84" stroke-miterlimit="10"/>
<path d="M35.0254 64.6358C34.4651 64.6358 34.0135 64.1739 34.0135 63.6007C34.0135 54.6719 26.9032 47.4055 18.1629 47.4055C9.4227 47.4055 2.31234 54.6753 2.31234 63.604C2.31234 64.1739 1.86073 64.6392 1.30046 64.6392C0.740187 64.6392 0.288574 64.1773 0.288574 63.604C0.288574 53.5356 8.30555 45.3419 18.1629 45.3419C28.0203 45.3419 36.0373 53.5322 36.0373 63.604C36.0373 64.1739 35.5857 64.6392 35.0254 64.6392V64.6358Z" fill="#243C84" stroke="#243C84" stroke-miterlimit="10"/>
<path d="M51.8916 47.4088C46.8695 47.4088 42.7812 43.2344 42.7812 38.1024C42.7812 32.9704 46.8661 28.796 51.8916 28.796C56.9171 28.796 61.002 32.9704 61.002 38.1024C61.002 43.2344 56.9171 47.4088 51.8916 47.4088ZM51.8916 30.8663C47.9833 30.8663 44.805 34.1134 44.805 38.1058C44.805 42.0981 47.9833 45.3452 51.8916 45.3452C55.7999 45.3452 58.9782 42.0981 58.9782 38.1058C58.9782 34.1134 55.7999 30.8663 51.8916 30.8663Z" fill="#243C84" stroke="#243C84" stroke-miterlimit="10"/>
<path d="M68.7539 64.6358C68.1937 64.6358 67.742 64.1739 67.742 63.6007C67.742 54.6719 60.6317 47.4055 51.8915 47.4055C43.1512 47.4055 36.0409 54.6685 36.0409 63.6007C36.0409 64.1705 35.5892 64.6358 35.029 64.6358C34.4687 64.6358 34.0171 64.1739 34.0171 63.6007C34.0171 53.5322 42.0341 45.3385 51.8915 45.3385C61.7488 45.3385 69.7658 53.5288 69.7658 63.6007C69.7658 64.1705 69.3142 64.6358 68.7539 64.6358Z" fill="#243C84" stroke="#243C84" stroke-miterlimit="10"/>
<path d="M52.8283 26.3446C52.723 26.3446 52.6177 26.3277 52.5193 26.294L45.1203 23.8561C44.8418 23.8797 44.5634 23.8932 44.2918 23.8932H36.8418C31.5753 23.8932 27.2935 19.5165 27.2935 14.1383C27.2935 8.76014 31.5787 4.38342 36.8418 4.38342H44.2918C49.5583 4.38342 53.8435 8.76014 53.8435 14.1383V25.3128C53.8435 25.6432 53.6873 25.9534 53.4259 26.149C53.2493 26.2805 53.0422 26.3479 52.8317 26.3479L52.8283 26.3446ZM45.2289 21.7723C45.3342 21.7723 45.4395 21.7891 45.5379 21.8229L51.8164 23.8932V14.1383C51.8164 9.89984 48.4412 6.45039 44.2884 6.45039H36.8384C32.689 6.45039 29.3104 9.89984 29.3104 14.1383C29.3104 18.3768 32.6856 21.8262 36.8384 21.8262H44.2884C44.5566 21.8262 44.8351 21.8094 45.1169 21.779C45.1542 21.7757 45.1916 21.7723 45.2255 21.7723H45.2289Z" fill="#243C84" stroke="#243C84" stroke-miterlimit="10"/>
<path d="M17.2258 22.1297C17.0152 22.1297 16.8047 22.0623 16.6315 21.9308C16.3701 21.7352 16.2139 21.425 16.2139 21.0946V9.92347C16.2139 7.31699 17.2088 4.86563 19.0118 3.02457C20.8115 1.18352 23.2122 0.168579 25.7656 0.168579H33.2122C36.584 0.168579 39.64 1.92871 41.3887 4.87911C41.6774 5.36804 41.5246 6.00196 41.0492 6.29868C40.5704 6.59541 39.949 6.4403 39.6604 5.95138C38.2818 3.62477 35.8709 2.23555 33.2156 2.23555H25.769C23.7555 2.23555 21.8675 3.03469 20.4448 4.48798C19.022 5.93789 18.2376 7.86998 18.2376 9.92347V19.6784L24.5161 17.6114C24.6519 17.5676 24.7945 17.5507 24.9337 17.5676C25.2224 17.5979 25.494 17.6148 25.7656 17.6148H29.5348C30.095 17.6148 30.5466 18.0767 30.5466 18.6499C30.5466 19.2232 30.095 19.6851 29.5348 19.6851H25.7656C25.494 19.6851 25.219 19.6716 24.9371 19.648L17.5347 22.0859C17.4329 22.1196 17.3276 22.1365 17.2258 22.1365V22.1297Z" fill="#243C84" stroke="#243C84" stroke-miterlimit="10"/>
<path d="M35.1713 15.4331H34.4684C33.9082 15.4331 33.4565 14.9712 33.4565 14.398C33.4565 13.8247 33.9082 13.3628 34.4684 13.3628H35.1713C35.7316 13.3628 36.1832 13.8247 36.1832 14.398C36.1832 14.9712 35.7316 15.4331 35.1713 15.4331Z" fill="white"/>
<path d="M40.9198 15.4331H40.217C39.6567 15.4331 39.2051 14.9712 39.2051 14.398C39.2051 13.8247 39.6567 13.3628 40.217 13.3628H40.9198C41.4801 13.3628 41.9317 13.8247 41.9317 14.398C41.9317 14.9712 41.4801 15.4331 40.9198 15.4331Z" fill="white"/>
<path d="M46.6723 15.4331H45.9694C45.4091 15.4331 44.9575 14.9712 44.9575 14.398C44.9575 13.8247 45.4091 13.3628 45.9694 13.3628H46.6723C47.2326 13.3628 47.6842 13.8247 47.6842 14.398C47.6842 14.9712 47.2326 15.4331 46.6723 15.4331Z" fill="white"/>
<path d="M1.52786 64.9932H65.7554C66.6246 64.9932 67.4939 65.0101 68.3598 64.9932C68.3971 64.9932 68.4345 64.9932 68.4718 64.9932C69.2698 64.9932 70.0372 64.2953 69.9998 63.4759C69.9625 62.6565 69.3275 61.9585 68.4718 61.9585H4.24433C3.37506 61.9585 2.50579 61.9417 1.63991 61.9585C1.60256 61.9585 1.56521 61.9585 1.52786 61.9585C0.729896 61.9585 -0.0375062 62.6565 -0.000154794 63.4759C0.0371967 64.2953 0.672171 64.9932 1.52786 64.9932Z" fill="#243C84"/>
</g>
<defs>
<clipPath id="clip0_32_68">
<rect width="70" height="65" fill="white"/>
</clipPath>
</defs>
</svg>
