<svg width="28" height="21" viewBox="0 0 28 21" fill="none" xmlns="http://www.w3.org/2000/svg">
<g clip-path="url(#clip0_1_42)">
<path d="M2.60784 21C1.89583 21 1.27818 20.7406 0.772056 20.2305C0.265928 19.7205 0.00857544 19.098 0.00857544 18.3804V2.62823C0.00857544 1.91065 0.265928 1.28818 0.772056 0.778089C1.27818 0.268002 1.89583 0.00863647 2.60784 0.00863647H10.4228L13.0306 2.63688H23.4534C24.1654 2.63688 24.7831 2.89624 25.2892 3.40633C25.7953 3.91642 26.0527 4.5389 26.0527 5.25647H11.9498L9.34191 2.62823H2.60784V18.3804L5.73039 7.87607H28L24.6458 19.1326C24.4743 19.7032 24.1483 20.1527 23.685 20.4985C23.2218 20.8444 22.7071 21.0086 22.1409 21.0086H2.60784V21ZM5.33578 18.3717H22.1323L24.4743 10.4957H7.68627L5.34436 18.3717H5.33578Z" fill="#DA2222"/>
</g>
<defs>
<clipPath id="clip0_1_42">
<rect width="28" height="21" fill="white"/>
</clipPath>
</defs>
</svg>
