<svg width="42" height="54" viewBox="0 0 42 54" fill="none" xmlns="http://www.w3.org/2000/svg">
<g clip-path="url(#clip0_32_307)">
<path d="M14.6298 15.3167C14.6298 16.1688 14.0688 16.7989 13.2833 16.8229C12.4948 16.8469 11.8882 16.2258 11.8215 15.3347C11.7336 14.1406 10.6236 13.4145 9.49846 13.8135C8.78274 14.0686 8.32177 14.7646 8.37939 15.5117C8.43398 16.2318 9.08601 16.9369 9.83509 17.0809C10.4598 17.2009 11.1149 17.2279 11.7032 17.4379C13.3712 18.035 14.3296 19.2711 14.554 20.9993C14.8391 23.1926 13.8019 24.8878 11.7427 25.8029C11.6426 25.8479 11.5577 26.0069 11.5334 26.1269C11.4667 26.4629 11.494 26.829 11.3818 27.144C11.1695 27.7351 10.5629 28.0351 9.91697 27.9541C9.3165 27.8791 8.84643 27.429 8.74938 26.826C8.71602 26.6189 8.69176 26.4029 8.71602 26.1989C8.74331 25.9589 8.67963 25.8509 8.44004 25.7609C6.75386 25.1248 5.60749 23.4566 5.60446 21.6684C5.60446 20.8643 6.11092 20.2852 6.8691 20.2342C7.69096 20.1772 8.28538 20.6723 8.37636 21.5214C8.44611 22.1755 8.6675 22.7245 9.26191 23.0756C9.85329 23.4236 10.6539 23.3786 11.1816 22.9645C11.7305 22.5325 11.9489 21.7914 11.7336 21.0803C11.5425 20.4413 10.936 19.9462 10.2536 19.9162C8.46127 19.8412 7.07229 19.0731 6.15338 17.5399C4.96759 15.5597 5.63782 12.9764 7.65457 11.7013C7.93055 11.5273 8.23989 11.4073 8.52496 11.2452C8.60684 11.1972 8.68569 11.0892 8.69782 10.9992C8.72512 10.8012 8.70086 10.6002 8.71602 10.3991C8.76454 9.61906 9.33469 9.067 10.0929 9.058C10.8056 9.049 11.494 9.61606 11.4728 10.3541C11.4546 10.9812 11.6941 11.2422 12.24 11.4973C13.8322 12.2414 14.648 14.1646 14.6328 15.3137L14.6298 15.3167Z" fill="#DA2222"/>
<path d="M30.6757 31.1885C22.8938 31.1885 15.1118 31.1885 7.32991 31.1885C7.12976 31.1885 6.92353 31.2005 6.72944 31.2425C6.06527 31.3835 5.6134 31.9416 5.61037 32.5986C5.60733 33.2137 6.04101 33.7568 6.69608 33.9068C6.95083 33.9668 7.22074 33.9818 7.48458 33.9818C11.3119 33.9848 15.1391 33.9848 18.9664 33.9848C22.8362 33.9848 26.7059 33.9848 30.5756 33.9818C30.7546 33.9818 30.9396 33.9818 31.1155 33.9548C31.9586 33.8408 32.4771 33.1267 32.3043 32.3286C32.1375 31.5575 31.6098 31.1885 30.6757 31.1885Z" fill="#243C84" stroke="#243C84" stroke-width="0.5" stroke-miterlimit="10"/>
<path d="M30.9154 39.0673C30.788 39.0613 30.6607 39.0613 30.5333 39.0613C26.6969 39.0613 22.8575 39.0613 19.0211 39.0613C15.1635 39.0613 11.3029 39.0613 7.44526 39.0613C7.2542 39.0613 7.06011 39.0613 6.87208 39.0823C6.28677 39.1513 5.79547 39.5564 5.65596 40.0995C5.50736 40.6815 5.69842 41.1556 6.15939 41.5306C6.52028 41.8246 6.95699 41.8517 7.39674 41.8517C15.1787 41.8517 22.9606 41.8517 30.7395 41.8517C30.8244 41.8517 30.9093 41.8517 30.9943 41.8456C31.7949 41.7676 32.3681 41.1616 32.3347 40.4295C32.3014 39.6344 31.7433 39.0973 30.9154 39.0673Z" fill="#243C84" stroke="#243C84" stroke-width="0.5" stroke-miterlimit="10"/>
<path d="M31.4311 15.5657C31.1642 15.4787 30.87 15.4577 30.585 15.4547C27.4946 15.4487 24.4043 15.4487 21.314 15.4547C21.0804 15.4547 20.8439 15.4637 20.6164 15.5027C19.8674 15.6257 19.3366 16.4778 19.5429 17.2009C19.743 17.9 20.2707 18.263 21.0804 18.263C22.706 18.263 24.3315 18.263 25.954 18.263V18.251C27.3036 18.251 28.6531 18.251 29.9996 18.251C30.3605 18.251 30.7214 18.26 31.0823 18.233C31.7677 18.179 32.2499 17.711 32.347 17.0299C32.4349 16.4208 32.0467 15.7698 31.4281 15.5687L31.4311 15.5657Z" fill="#243C84" stroke="#243C84" stroke-width="0.5" stroke-miterlimit="10"/>
<path d="M30.9815 23.3426C29.3014 23.3336 27.6212 23.3426 25.9442 23.3426C24.2974 23.3426 22.6476 23.3426 21.0008 23.3426C20.1426 23.3426 19.4814 23.9667 19.4814 24.7617C19.4814 25.5448 20.1335 26.1179 21.013 26.1119C23.148 26.0999 25.2861 26.0819 27.4211 26.0789C28.431 26.0789 29.4409 26.1119 30.4477 26.0969C30.845 26.0909 31.2666 26.0669 31.6274 25.9229C32.1946 25.7009 32.4554 25.0378 32.3128 24.4437C32.1521 23.7776 31.6517 23.3486 30.9815 23.3456V23.3426Z" fill="#243C84" stroke="#243C84" stroke-width="0.5" stroke-miterlimit="10"/>
<path d="M41.9087 4.07746C41.8329 2.76931 41.3052 1.67719 40.2285 0.888103C39.3642 0.252032 38.3816 0.0750122 37.3141 0.0750122C27.5852 0.0930142 17.8593 0.0870135 8.13035 0.0900139C6.46842 0.0900139 4.91568 1.23314 4.37585 2.78731C4.26061 3.12035 4.20299 3.45639 4.16963 3.79543C4.13627 3.79543 4.10291 3.79543 4.06955 3.79543C2.40762 3.79543 0.854876 4.93855 0.315054 6.49273C0.0481756 7.26081 0.07547 8.0469 0.07547 8.83599C0.07547 22.8775 0.07547 36.9221 0.07547 50.9637C0.07547 51.4917 0.0572738 52.0168 0.07547 52.5448C0.0936663 53.1359 0.396937 53.553 0.933727 53.808C1.45839 54.06 1.90419 53.865 2.31968 53.553C2.44705 53.4599 2.55623 53.3399 2.6654 53.2259C3.9998 51.8098 5.33116 50.3906 6.66555 48.9744C6.7262 48.9084 6.79899 48.8514 6.87177 48.7824C6.97488 48.8724 7.05374 48.9414 7.12955 49.0135C8.62771 50.4176 10.1228 51.8248 11.621 53.2289C12.5611 54.111 13.2223 54.123 14.1594 53.2529C15.1025 52.3738 16.0306 51.4737 16.9677 50.5826C17.6318 49.9496 18.299 49.3135 18.9693 48.6744C19.0451 48.7434 19.0997 48.7914 19.1542 48.8424C20.7616 50.3636 22.3629 51.8878 23.9763 53.3999C24.7223 54.099 25.3895 54.084 26.1264 53.3819C26.7542 52.7819 27.3759 52.1758 28.0098 51.5817C29.0045 50.6486 30.0053 49.7245 31.0819 48.7194C31.1668 48.8394 31.2184 48.9354 31.2881 49.0105C32.6498 50.4596 34.0054 51.9148 35.3853 53.3489C35.6037 53.574 35.9039 53.775 36.2041 53.859C37.0351 54.093 37.8479 53.3519 37.8479 52.4068C37.8479 50.9247 37.8479 49.4455 37.8479 47.9633C38.3786 48.5244 38.9093 49.0855 39.4461 49.6405C39.6645 49.8655 39.9647 50.0666 40.2649 50.1506C41.0959 50.3846 41.9087 49.6435 41.9087 48.6984C41.9087 34.3388 41.9087 19.9792 41.9087 5.61963C41.9087 5.10357 41.9329 4.58451 41.9026 4.07146L41.9087 4.07746ZM35.0456 26.4029C35.0456 33.5977 35.0456 40.7955 35.0456 47.9903V48.9264C34.7575 48.6234 34.518 48.3744 34.2814 48.1224C33.596 47.3873 32.9137 46.6492 32.2313 45.9111C31.7855 45.4281 31.2487 45.251 30.6209 45.4791C30.4238 45.5511 30.2479 45.7101 30.0872 45.8571C28.4859 47.3543 26.8907 48.8544 25.2985 50.3606C25.1196 50.5286 25.0043 50.5556 24.8072 50.3666C23.2575 48.8784 21.6957 47.4023 20.1399 45.9231C19.3726 45.194 18.6478 45.185 17.8805 45.9171C16.3005 47.4203 14.7235 48.9234 13.1555 50.4416C12.9615 50.6306 12.8553 50.5856 12.6915 50.4296C11.1327 48.9354 9.56179 47.4563 8.00601 45.9561C7.52381 45.4911 6.99915 45.236 6.34105 45.4821C6.1045 45.5691 5.88311 45.7521 5.70721 45.9381C4.81863 46.8742 3.94824 47.8253 3.06875 48.7704C3.0263 48.8154 2.98081 48.8544 2.88376 48.9444V48.5874C2.88376 35.0499 2.88376 21.5094 2.88376 7.97189C2.88376 7.1438 3.40539 6.58874 4.25151 6.53173C4.51536 6.51373 4.78224 6.51973 5.04911 6.51973C14.4899 6.51973 23.9308 6.51973 33.3716 6.51673C34.2693 6.51673 34.7818 6.83476 34.9941 7.54584C35.0396 7.70186 35.0426 7.87588 35.0426 8.0439C35.0426 14.1646 35.0426 20.2853 35.0426 26.4089L35.0456 26.4029ZM39.1064 22.6945C39.1064 29.8893 39.1064 37.0871 39.1064 44.2819V45.218C38.8183 44.915 38.5788 44.666 38.3422 44.4139C38.1784 44.2399 38.0177 44.0629 37.8539 43.8889C37.8539 32.3706 37.8539 20.8523 37.8539 9.33104C37.8539 8.81498 37.8782 8.29593 37.8479 7.78287C37.7721 6.47472 37.2444 5.3826 36.1678 4.59351C35.3034 3.95744 34.3208 3.78042 33.2533 3.78042C24.507 3.79543 15.7606 3.79243 7.01431 3.79543C7.17504 3.23136 7.63905 2.86532 8.31231 2.81732C8.57616 2.79932 8.84303 2.80532 9.10991 2.80532C18.5507 2.80532 27.9916 2.80532 37.4324 2.80232C38.3301 2.80232 38.8426 3.12035 39.0549 3.83143C39.1004 3.98745 39.1034 4.16147 39.1034 4.32949C39.1034 10.4502 39.1034 16.5708 39.1034 22.6945H39.1064Z" fill="#243C84" stroke="#243C84" stroke-width="0.5" stroke-miterlimit="10"/>
</g>
<defs>
<clipPath id="clip0_32_307">
<rect width="42" height="54" fill="white"/>
</clipPath>
</defs>
</svg>
