<svg width="25" height="20" viewBox="0 0 25 20" fill="none" xmlns="http://www.w3.org/2000/svg">
<g clip-path="url(#clip0_3_992)">
<path d="M0 20V17.7778H25V20H0ZM3.40909 16.6667C2.78409 16.6667 2.25 16.4444 1.80682 16.0111C1.36364 15.5778 1.13636 15.0556 1.13636 14.4444V2.22222C1.13636 1.61111 1.36364 1.08889 1.80682 0.655556C2.25 0.222222 2.78409 0 3.40909 0H21.5909C22.2159 0 22.75 0.222222 23.1932 0.655556C23.6364 1.08889 23.8636 1.61111 23.8636 2.22222V14.4444C23.8636 15.0556 23.6364 15.5778 23.1932 16.0111C22.75 16.4444 22.2159 16.6667 21.5909 16.6667H3.40909ZM3.40909 14.4444H21.5909V2.22222H3.40909V14.4444Z" fill="#DA2222"/>
</g>
<defs>
<clipPath id="clip0_3_992">
<rect width="25" height="20" fill="white"/>
</clipPath>
</defs>
</svg>
