<svg width="28" height="28" viewBox="0 0 28 28" fill="none" xmlns="http://www.w3.org/2000/svg">
<path d="M8.40407 28C7.63081 28 6.96948 27.7255 6.42006 27.1765C5.87064 26.6274 5.59593 25.9666 5.59593 25.1939C5.59593 24.4212 5.87064 23.7603 6.42006 23.2113C6.96948 22.6623 7.63081 22.3878 8.40407 22.3878C9.17733 22.3878 9.83866 22.6623 10.3881 23.2113C10.9375 23.7603 11.2122 24.4212 11.2122 25.1939C11.2122 25.9666 10.9375 26.6274 10.3881 27.1765C9.83866 27.7255 9.17733 28 8.40407 28ZM22.4142 28C21.641 28 20.9797 27.7255 20.4302 27.1765C19.8808 26.6274 19.6061 25.9666 19.6061 25.1939C19.6061 24.4212 19.8808 23.7603 20.4302 23.2113C20.9797 22.6623 21.641 22.3878 22.4142 22.3878C23.1875 22.3878 23.8488 22.6623 24.3983 23.2113C24.9477 23.7603 25.2224 24.4212 25.2224 25.1939C25.2224 25.9666 24.9477 26.6274 24.3983 27.1765C23.8488 27.7255 23.1875 28 22.4142 28ZM7.21366 5.60203L10.5712 12.6071H20.3794L24.2355 5.60203H7.21366ZM5.88081 2.79593H26.5451C27.0843 2.79593 27.4913 3.03994 27.766 3.51779C28.0407 3.99564 28.061 4.48366 27.7965 4.97168L22.8212 13.9288C22.5669 14.3965 22.2209 14.7524 21.7834 15.0167C21.3459 15.281 20.8779 15.403 20.3692 15.403H9.93023L8.3939 18.199H25.202V20.9949H8.40407C7.3561 20.9949 6.5625 20.5374 6.02326 19.6122C5.48401 18.687 5.46366 17.772 5.95203 16.8671L7.84448 13.4408L2.79797 2.79593H0V0H4.55814L5.89099 2.79593H5.88081Z" fill="#DA2222"/>
</svg>
