<svg width="44" height="47" viewBox="0 0 44 47" fill="none" xmlns="http://www.w3.org/2000/svg">
<g clip-path="url(#clip0_32_279)">
<path d="M6.1974 46.901C4.12388 46.901 2.59212 46.4731 1.59433 45.6133C0.596549 44.7536 0.0976562 43.47 0.0976562 41.7505C0.0976562 39.4883 1.03698 38.0461 2.91952 37.4201C4.79816 36.7942 7.02369 36.4851 9.59611 36.4851H10.8044V33.2086C10.8044 31.8814 10.7849 30.7998 10.7459 29.9639C10.7069 29.1279 10.5939 28.4346 10.399 27.8878C10.208 27.3411 9.98587 26.9607 9.73642 26.7468C9.48697 26.5328 9.15178 26.4259 8.73084 26.4259C8.38395 26.4259 8.06825 26.4853 7.77982 26.6002C7.4914 26.7151 7.25365 26.8736 7.05877 27.0677C6.90676 27.2618 6.80932 27.4679 6.77035 27.6818C6.73137 27.8957 6.75086 28.1216 6.82881 28.3553C7.05877 28.7832 7.3277 29.2032 7.63561 29.6112C7.94352 30.0193 8.09553 30.4987 8.09553 31.0455C8.09553 32.0201 7.76034 32.8481 7.08995 33.5335C6.41956 34.2189 5.60496 34.5557 4.64226 34.5557C3.67955 34.5557 2.86885 34.215 2.19456 33.5335C1.52418 32.8521 1.18898 32.024 1.18898 31.0455C1.18898 29.9916 1.41894 29.1358 1.87886 28.4702C2.33878 27.8046 2.96239 27.2816 3.74971 26.8894C4.53702 26.4972 5.44906 26.2278 6.48192 26.0693C7.51479 25.9108 8.6295 25.8356 9.81827 25.8356C13.0806 25.8356 15.3451 26.4298 16.6079 27.6184C17.8746 28.807 18.506 30.9028 18.506 33.9059V42.5072C18.506 43.2481 18.5918 43.7948 18.7633 44.1435C18.9348 44.4921 19.2349 44.6704 19.6558 44.6704C20.1157 44.6704 20.4899 44.3178 20.7783 43.6166C21.0667 42.9153 21.2499 41.8218 21.324 40.3401H21.9554C21.8385 42.7568 21.3902 44.4565 20.6029 45.4311C19.8156 46.4057 18.5021 46.893 16.6625 46.893C15.0138 46.893 13.7159 46.6316 12.7765 46.1046C11.8372 45.5777 11.2331 44.7893 10.9642 43.7354C10.5822 44.8646 10.0131 45.6767 9.26481 46.1641C8.51647 46.6514 7.4914 46.897 6.18571 46.897L6.1974 46.901ZM27.6654 46.901C26.8976 46.901 26.2739 46.5801 25.7945 45.9343C25.3151 45.2885 25.2294 44.5991 25.5373 43.8582L31.4071 28.1216C31.676 27.4599 32.0969 26.9132 32.6738 26.4853C33.2506 26.0574 33.9015 25.8435 34.6304 25.8435C35.3592 25.8435 36.0101 26.0574 36.587 26.4853C37.1638 26.9132 37.5848 27.4599 37.8537 28.1216L43.7235 43.8582C44.0314 44.5991 43.9457 45.2924 43.4662 45.9343C42.9868 46.5761 42.3632 46.901 41.5954 46.901C41.1355 46.901 40.7145 46.7663 40.3287 46.4929C39.9428 46.2195 39.6583 45.8511 39.4673 45.3796L38.3175 41.9882H30.9511L29.8013 45.3796C29.6493 45.8075 29.3803 46.168 28.9945 46.4612C28.6086 46.7544 28.1682 46.901 27.6693 46.901H27.6654ZM9.01926 45.2013C9.51815 45.2013 9.93909 44.8012 10.286 44.0009C10.6329 43.2006 10.8044 42.2378 10.8044 41.1047V37.1864C9.80658 37.1864 9.07773 37.4875 8.61781 38.0937C8.15789 38.6998 7.92793 39.6824 7.92793 41.0492V41.6911C7.92793 43.0936 8.00589 44.0326 8.15789 44.5001C8.3099 44.9676 8.59832 45.2013 9.01926 45.2013ZM32.4399 37.8916H36.8715L34.6265 31.2237L32.4399 37.8916ZM2.40114 21.1605V8.2883C2.40114 6.02606 3.18845 4.09662 4.75919 2.49601C6.32992 0.895402 8.23195 0.0990601 10.4575 0.0990601C12.683 0.0990601 14.5811 0.899364 16.1558 2.49601C17.7304 4.09265 18.5138 6.02606 18.5138 8.2883V21.1566H13.9107V16.4775H7.0042V21.1566H2.40114V21.1605ZM7.0042 11.7985H13.9107V8.2883C13.9107 7.31368 13.5756 6.48564 12.9052 5.80023C12.2348 5.11482 11.4202 4.77806 10.4575 4.77806C9.49477 4.77806 8.68407 5.11879 8.00978 5.80023C7.3355 6.48168 7.0042 7.30972 7.0042 8.2883V11.7985Z" fill="#243C84" stroke="#243C84" stroke-width="0.5" stroke-miterlimit="10"/>
<path d="M29.2239 21.838C27.3803 21.838 25.9148 21.1843 24.8196 19.8768C23.7244 18.5694 23.1787 16.8064 23.1787 14.5837C23.1787 10.5268 24.4454 7.20273 26.9789 4.60769C29.5123 2.01264 32.7512 0.717102 36.7034 0.717102C38.3131 0.717102 39.6188 0.903311 40.6166 1.27177C41.6144 1.64022 42.1133 2.11961 42.1133 2.70598C42.1133 2.93973 42.0743 3.17348 41.9963 3.40723C41.9184 3.64098 41.7859 3.85493 41.5949 4.04906C41.4039 4.32243 41.1622 4.51656 40.8738 4.63542C40.5854 4.75428 40.2892 4.77012 39.9813 4.69485C39.4434 4.54033 38.8315 4.40167 38.1377 4.28677C37.4439 4.17188 36.8125 4.11245 36.2396 4.11245C33.5151 4.11245 31.3286 5.04746 29.6799 6.92144C28.0312 8.79541 27.2049 11.2716 27.2049 14.35C27.2049 15.2097 27.3569 16.1051 27.6648 17.0401C27.9728 17.9751 28.6626 18.4426 29.7384 18.4426C30.1593 18.4426 30.5725 18.3436 30.9739 18.1495C31.3754 17.9553 31.73 17.682 32.038 17.3293C32.6889 16.6281 33.293 15.4554 33.8503 13.8191C34.4077 12.1828 34.9144 10.194 35.3743 7.85248C35.4523 7.34536 35.651 6.98483 35.9784 6.77088C36.3058 6.55694 36.754 6.44997 37.3309 6.44997C38.0208 6.44997 38.5508 6.63618 38.9133 7.00464C39.2758 7.37309 39.3849 7.83267 39.229 8.37941C38.7691 10.0553 38.4339 11.5172 38.2234 12.7652C38.013 14.0132 37.9077 15.1424 37.9077 16.1566C37.9077 16.9371 38.013 17.5037 38.2234 17.8523C38.4339 18.201 38.7496 18.3792 39.1745 18.3792C39.5993 18.3792 40.0085 18.2247 40.41 17.9117C40.8115 17.5988 41.3805 17.0164 42.1094 16.1566C42.1873 16.0378 42.4757 15.9031 42.9707 15.7485C43.2786 15.7485 43.5086 15.8674 43.6606 16.1012C43.8126 16.3349 43.8906 16.6677 43.8906 17.0956C43.8906 18.1891 43.2747 19.239 42.047 20.2532C40.8192 21.2675 39.533 21.7746 38.1923 21.7746C37.1945 21.7746 36.3409 21.5012 35.6315 20.9545C34.9222 20.4077 34.4311 19.6272 34.1621 18.613C33.5853 19.6272 32.8759 20.4157 32.0341 20.9822C31.1922 21.5488 30.249 21.8301 29.2122 21.8301L29.2239 21.838Z" fill="#DA2222"/>
</g>
<defs>
<clipPath id="clip0_32_279">
<rect width="44" height="47" fill="white"/>
</clipPath>
</defs>
</svg>
