<svg width="72" height="72" viewBox="0 0 72 72" fill="none" xmlns="http://www.w3.org/2000/svg">
<g clip-path="url(#clip0_3_710)">
<path d="M34.5093 52.6482L53.933 72L71.9998 54L52.5761 34.6482M53.7525 53.8202L57.7295 49.9512L61.7933 54L53.933 61.8313L39.6626 47.5206L47.4294 39.7825L52.5761 44.8236L48.6927 48.7858L53.7525 53.8269V53.8202Z" fill="#243C84"/>
<path d="M37.5774 19.4384L18.0668 0L0 18L19.4237 37.3518M10.2065 18L18.0668 10.1687L22.1307 14.2175L18.2473 18.1798L23.3071 23.2209L27.2841 19.2586L32.3439 24.3862L24.5771 32.2175L10.2065 18Z" fill="#243C84"/>
<path d="M67.9763 13.212C67.6154 12.313 67.074 11.5005 66.3521 10.7813L61.5663 5.92005C60.8445 5.20085 60.029 4.66145 59.1267 4.30185C58.2243 3.94225 57.2886 3.76245 56.3261 3.76245C55.3636 3.76245 54.4278 3.94225 53.5255 4.30185C52.6232 4.66145 51.8077 5.20085 51.0858 5.92005L3.48242 53.2674V68.5704H18.8422L34.6499 52.8213L39.7966 47.6936L47.5634 39.9556L52.7101 34.8279L66.3521 21.1498C67.074 20.4306 67.6154 19.6315 67.9763 18.7658C68.3372 17.8934 68.5177 16.9811 68.5177 16.0222C68.5177 15.0632 68.3372 14.1309 67.9763 13.2319V13.212ZM15.7676 61.3651H10.7078V56.3241L46.0261 21.0433L48.6462 23.6537L51.1727 26.1709L15.7609 61.3585L15.7676 61.3651Z" fill="#DA2222"/>
</g>
<defs>
<clipPath id="clip0_3_710">
<rect width="72" height="72" fill="white"/>
</clipPath>
</defs>
</svg>
