<?xml version="1.0" encoding="UTF-8"?>
<svg id="Layer_2" data-name="Layer 2" xmlns="http://www.w3.org/2000/svg" xmlns:xlink="http://www.w3.org/1999/xlink" viewBox="0 0 49.02 42.99">
  <defs>
    <style>
      .cls-1 {
        fill: url(#linear-gradient);
        stroke-width: 0px;
      }
    </style>
    <linearGradient id="linear-gradient" x1="0" y1="22.51" x2="49.02" y2="22.51" gradientTransform="translate(0 44) scale(1 -1)" gradientUnits="userSpaceOnUse">
      <stop offset="0" stop-color="#06307b"/>
      <stop offset=".07" stop-color="#252867"/>
      <stop offset=".16" stop-color="#4d1e4d"/>
      <stop offset=".27" stop-color="#6f1638"/>
      <stop offset=".38" stop-color="#8b0f26"/>
      <stop offset=".5" stop-color="#a10a19"/>
      <stop offset=".63" stop-color="#b0060f"/>
      <stop offset=".78" stop-color="#b90409"/>
      <stop offset="1" stop-color="#bc0408"/>
    </linearGradient>
  </defs>
  <g id="Layer_1-2" data-name="Layer 1">
    <path class="cls-1" d="m48.93,16.14c-.09-1.04-1.15-1.5-2.11-.74,0,0-2.31,1.86-3.67,2.83-.18.12-.43,0-.43-.23v-8.28c0-.92-.56-1.79-1.4-2.18L25.27.21c-.64-.28-1.4-.28-2.02,0L7.54,7.52c-.91.42-1.49,1.33-1.49,2.32v8.28c0,.62-1.29-.65-1.72-1.01-.56-.46-1.02-.87-1.59-1.42-.43-.39-.82-.76-1.45-.67-.52.09-.97.46-1.07.97-.14.73-.07.3-.14,1.04-.11,1.01-.09,2,0,2.96.66,13.95,13.36,24.85,28.04,22.71,10.44-1.52,18.75-9.63,20.39-19.95.34-2.09.64-4.67.47-6.64l-.04.02ZM24.51,3.4l14.65,6.71c.2.09.34.3.34.53v9.52c0,.23-.13.42-.34.51-2.85,1.33-6.03,2.67-9.35,3.19-.41.07-.75-.3-.66-.69.21-.89.34-1.95.38-3.2,0-2.58-.38-4.43-1.15-5.54-.77-1.12-2.11-1.66-4.06-1.66s-3.28.53-3.99,1.61c-.73,1.08-1.09,2.87-1.09,5.38,0,1.33.09,2.44.27,3.35.09.41-.27.76-.68.69-3.35-.58-6.5-1.7-9.26-3.26-.18-.11-.29-.3-.29-.5v-9.4c0-.23.13-.42.34-.51l14.41-6.73c.16-.07.34-.07.48,0ZM5.41,21.83c3.03,2.21,6.62,3.86,10.55,4.85.56.14.59.92.05,1.1-3.33,1.15-6.96,2-9.36,1.59-.16-.04-.3-.12-.39-.28-1.11-1.93-1.92-4.05-2.36-6.32-.16-.87.81-1.47,1.52-.96v.02Zm19,17.72c-6.05,0-11.51-2.57-15.33-6.64h.5c1.81,0,3.69-.41,5.55-1.01.2-.07.41-.02.57.12,2.9,2.6,6.7,4.83,10.72,6.32.57.21.47,1.06-.14,1.12-.61.05-1.24.09-1.86.09h-.02Zm15.33-6.64c-.09.09-.16.18-.25.27-1.18,1.22-2.52,2.3-3.99,3.2-.11.07-.25.11-.38.09-5.66-.51-10.85-2.48-14.82-5.7-.34-.27-.27-.8.13-.97.45-.21.91-.41,1.36-.62.91-.41,1.77-.8,2.61-1.17.84.35,1.7.76,2.61,1.17,3.89,1.77,8.2,3.74,12.21,3.74h.5m4.94-9.03c-.45,1.81-1.15,3.52-2.06,5.12-.09.16-.25.27-.43.28-2.35.28-5.8-.42-9.02-1.43-.56-.18-.52-.97.05-1.12,3.63-.83,7.04-2.16,10.03-3.89.73-.42,1.63.23,1.41,1.04h.02Z"/>
  </g>
</svg>