<svg width="118" height="30" viewBox="0 0 118 30" fill="none" xmlns="http://www.w3.org/2000/svg">
<g clip-path="url(#clip0_3_751)">
<path d="M33.9841 11.2675C33.9181 10.5432 33.1856 10.2155 32.5225 10.7486C32.5225 10.7486 30.9202 12.0468 29.9702 12.7269C29.8472 12.8154 29.6744 12.7216 29.6744 12.571V6.79205C29.6744 6.14561 29.2929 5.55053 28.7012 5.27956L17.5509 0.150567C17.1017 -0.0531047 16.5884 -0.0495625 16.1428 0.159423L5.24021 5.25122C4.61104 5.54522 4.21002 6.17217 4.21002 6.86289C4.21002 6.86289 4.21002 12.6365 4.21002 12.6454C4.21002 13.0758 3.30993 12.1902 3.01228 11.9423C2.62195 11.6164 2.30826 11.3384 1.9001 10.9576C1.60245 10.6795 1.33332 10.4227 0.898423 10.4918C0.53839 10.5485 0.222915 10.8088 0.153404 11.1737C0.0571575 11.6766 0.103498 11.3809 0.0535928 11.898C-0.0159185 12.6011 -0.0141362 13.2901 0.0446811 13.9648C0.499179 23.7004 9.31999 31.3035 19.5114 29.8123C26.7602 28.7514 32.5225 23.0911 33.6668 15.9006C33.8985 14.4483 34.1106 12.6472 33.9841 11.2693V11.2675ZM17.0286 2.36971L27.1915 7.04531C27.3341 7.11084 27.425 7.25252 27.425 7.41015V14.0481C27.425 14.2039 27.3359 14.3456 27.1951 14.4129C25.2167 15.3445 23.0066 16.2832 20.7109 16.6409C20.4276 16.6852 20.1834 16.4337 20.2511 16.1574C20.399 15.5411 20.4864 14.7955 20.5167 13.9223C20.5167 12.1229 20.2493 10.8371 19.7164 10.0614C19.1835 9.2857 18.2442 8.89961 16.8985 8.89961C15.5528 8.89961 14.626 9.27507 14.1216 10.0242C13.6172 10.7734 13.3641 12.022 13.3641 13.7718C13.3641 14.6963 13.4283 15.472 13.5548 16.1043C13.6101 16.3841 13.3713 16.6321 13.0879 16.5825C10.7583 16.1698 8.57141 15.3976 6.65896 14.3137C6.53241 14.2429 6.45577 14.1083 6.45577 13.9631V7.40306C6.45577 7.24721 6.54667 7.10552 6.68747 7.03999L16.6846 2.36971C16.7934 2.31835 16.9181 2.31835 17.0268 2.36971H17.0286ZM3.76978 15.2205C5.87651 16.7649 8.37179 17.9143 11.0863 18.6015C11.4766 18.7007 11.5016 19.2373 11.1202 19.3701C8.8049 20.176 6.29001 20.7622 4.61996 20.4823C4.5041 20.4629 4.40429 20.3903 4.34726 20.2893C3.57372 18.9415 3.01406 17.4591 2.71107 15.8864C2.59521 15.2843 3.2725 14.8557 3.768 15.2188L3.76978 15.2205ZM16.9538 27.5861C12.751 27.5861 8.96174 25.7991 6.3114 22.9512C6.42547 22.9565 6.53954 22.9601 6.65539 22.9601C7.91373 22.9601 9.21484 22.6802 10.5106 22.2605C10.6496 22.2162 10.8011 22.2481 10.9098 22.3455C12.9185 24.1626 15.56 25.7176 18.3529 26.7537C18.7504 26.9007 18.6737 27.4887 18.2513 27.5276C17.8236 27.5666 17.3904 27.5861 16.9538 27.5861ZM27.5961 22.953C27.5373 23.015 27.4785 23.077 27.4197 23.1389C26.5962 23.9926 25.6659 24.7453 24.6535 25.3793C24.5751 25.4272 24.4824 25.4502 24.3915 25.4413C20.465 25.08 16.8593 23.7163 14.1038 21.4671C13.8721 21.2776 13.922 20.9109 14.1947 20.7887C14.512 20.6453 14.8239 20.5036 15.134 20.3619C15.7667 20.0732 16.3638 19.8005 16.9484 19.5472C16.9484 19.5472 16.9502 19.5472 16.952 19.5472C16.952 19.5472 16.9538 19.5472 16.9556 19.5472C17.5419 19.8005 18.139 20.0732 18.7718 20.3619C21.4667 21.5928 24.461 22.9618 27.2504 22.9618C27.3662 22.9618 27.4803 22.9583 27.5944 22.953M31.0254 16.6551C30.7099 17.9179 30.2251 19.1151 29.5995 20.222C29.5389 20.33 29.4302 20.4044 29.3072 20.4204C27.6781 20.6223 25.2755 20.1299 23.0476 19.4179C22.6573 19.2922 22.6822 18.7379 23.0815 18.6458C25.6035 18.0631 27.9651 17.1368 30.0379 15.9236C30.5441 15.6279 31.168 16.0883 31.0254 16.6569V16.6551Z" fill="#06307B"/>
<path d="M42.4606 25.2465C42.2539 25.2465 42.0881 25.08 42.0881 24.8763V6.81858C42.0881 5.86044 42.2254 5.23703 42.5016 4.95011C42.7761 4.6632 43.4249 4.51975 44.4444 4.51975H50.6808C50.786 4.51975 50.884 4.57288 50.941 4.66143L59.5212 18.4367C59.6888 18.7059 60.1058 18.5873 60.1058 18.272V4.88813C60.1058 4.68268 60.2734 4.51797 60.4783 4.51797H64.592C64.8094 4.51797 64.9841 4.70039 64.9681 4.91469C64.9645 4.95011 64.9627 4.98908 64.9609 5.03158C64.9467 5.31849 64.9396 5.63374 64.9396 5.97556V23.2328C64.9396 24.136 64.7471 24.6974 64.3603 24.9171C63.9735 25.1367 63.2588 25.2447 62.2108 25.2447H56.5911C56.4609 25.2447 56.3415 25.1774 56.2738 25.0694L47.6508 11.1736C47.453 10.8566 46.9611 10.9947 46.9611 11.3684V24.8745C46.9611 25.08 46.7935 25.2447 46.5886 25.2447H42.4571L42.4606 25.2465Z" fill="#06307B"/>
<path d="M72.9602 25.4112C71.1137 25.4112 69.8322 25.0552 69.1175 24.3432C68.401 23.6313 68.0427 22.4677 68.0427 20.8525L68.0837 9.64343C68.0837 9.43975 68.2513 9.27505 68.4562 9.27505H73.8692C74.076 9.27505 74.2417 9.44153 74.2417 9.6452V20.6063C74.2417 21.4546 74.3718 22.0639 74.6338 22.434C74.8958 22.8042 75.3289 22.9884 75.9349 22.9884C76.2932 22.9884 76.5962 22.9618 76.8439 22.9069C77.0774 22.8555 77.2984 23.0326 77.2984 23.27V24.7435C77.2984 24.9206 77.1719 25.0729 76.9972 25.1066C76.9063 25.1243 76.8012 25.1437 76.6782 25.165C76.3752 25.2199 75.9349 25.2748 75.3557 25.3297C74.7764 25.3846 73.9779 25.4112 72.9584 25.4112H72.9602ZM71.2242 7.62796C70.26 7.62796 69.5702 7.51815 69.1585 7.29854C68.745 7.07893 68.5382 6.67513 68.5382 6.08714C68.5382 5.49914 68.7521 5.09003 69.1781 4.85802C69.6041 4.62601 70.3152 4.50912 71.3062 4.50912C72.2419 4.53392 72.9103 4.65612 73.3113 4.87573C73.7106 5.09534 73.8959 5.49914 73.8692 6.08714C73.8692 6.67513 73.6838 7.07893 73.3113 7.29854C72.9388 7.51815 72.2437 7.62796 71.2242 7.62796Z" fill="#06307B"/>
<path d="M77.505 17.0323C77.505 14.8149 77.8347 13.685 78.4977 12.4665C79.159 11.248 80.1018 10.4138 81.3281 9.96222C82.5543 9.5106 83.9945 9.2839 85.6467 9.2839C86.1974 9.2839 86.7838 9.31224 87.4023 9.36537C88.0226 9.42027 88.6286 9.49643 89.2203 9.59207C89.812 9.6877 90.336 9.81168 90.7905 9.96222C90.8993 9.99764 91.0026 10.0348 91.0989 10.0738C91.4144 10.1995 91.4126 10.6423 91.0971 10.7645L90.8654 10.8548C90.6212 10.9487 90.3574 10.7698 90.3574 10.5095V4.87927C90.3574 4.67383 90.525 4.50912 90.7299 4.50912H96.1001C96.3069 4.50912 96.4744 4.6756 96.4727 5.46904L96.4317 17.5813C96.4317 18.8547 96.2659 20.3389 95.9362 21.4493C95.6047 22.558 95.061 23.3939 94.3035 23.9536C93.546 24.515 92.5265 24.8852 91.245 25.0623C89.9635 25.2412 88.3862 25.3297 86.5129 25.3297C84.7769 25.3297 83.3314 25.2199 82.1729 25.0021C81.0162 24.7825 80.1 24.3733 79.4245 23.7694C78.749 23.1672 78.2607 22.3313 77.9577 21.2651C77.6547 20.1972 77.5032 18.7874 77.5032 17.0358L77.505 17.0323ZM86.8052 22.1666C87.5485 22.1666 88.1545 22.0993 88.6232 21.9612C89.092 21.8248 89.4502 21.591 89.698 21.2634C89.9457 20.9357 90.1186 20.4841 90.2148 19.9085C90.3111 19.3329 90.3592 18.5944 90.3592 17.6911L90.32 13.1785C90.32 12.9783 90.1596 12.8172 89.9582 12.8101C89.8602 12.8065 89.7532 12.803 89.6356 12.7959C89.3468 12.7817 89.0421 12.7693 88.7266 12.7552C88.4093 12.741 88.0992 12.7339 87.7962 12.7339C86.7482 12.7339 85.9301 12.865 85.3366 13.1236C84.7431 13.3839 84.3242 13.8621 84.0765 14.5617C83.8287 15.2595 83.7039 15.7182 83.7039 17.1155C83.7039 18.5129 83.8073 19.6074 84.0141 20.3194C84.2208 21.0313 84.5577 21.5166 85.0264 21.777C85.4952 22.0373 86.0869 22.1666 86.8034 22.1666H86.8052Z" fill="#06307B"/>
<path d="M108.429 25.4927C106.86 25.4927 105.472 25.3828 104.262 25.165C103.051 24.9472 102.041 24.5363 101.23 23.9359C100.419 23.3355 99.8058 22.4801 99.3941 21.3732C98.9824 20.2663 98.7756 19.4268 98.7756 17.6787C98.7756 15.9307 98.9824 14.5014 99.3941 13.3945C99.8058 12.2876 100.419 11.434 101.23 10.8318C102.041 10.2314 103.051 9.82053 104.262 9.60269C105.472 9.38485 106.86 9.27505 108.429 9.27505C109.997 9.27505 111.412 9.38485 112.596 9.60269C113.778 9.82231 114.769 10.2314 115.567 10.8318C116.364 11.434 116.97 12.2876 117.382 13.3945C117.793 14.5014 118 15.9289 118 17.6787C118 19.4285 117.793 20.2733 117.382 21.3944C116.968 22.5155 116.357 23.3692 115.546 23.9571C114.735 24.5451 113.737 24.9472 112.555 25.1668C111.371 25.3846 109.997 25.4944 108.429 25.4944V25.4927ZM108.429 22.4996C109.199 22.4996 109.824 22.3561 110.306 22.0692C110.787 21.7823 111.15 21.2492 111.398 20.4699C111.646 19.6907 111.769 19.1523 111.769 17.677C111.769 16.2017 111.646 15.0735 111.398 14.2942C111.15 13.515 110.785 12.9819 110.306 12.695C109.824 12.4081 109.199 12.2646 108.429 12.2646C107.714 12.2646 107.094 12.4081 106.572 12.695C106.049 12.9819 105.657 13.515 105.395 14.2942C105.133 15.0735 105.003 16.1999 105.003 17.677C105.003 19.154 105.133 19.6907 105.395 20.4699C105.655 21.2492 106.048 21.7823 106.572 22.0692C107.094 22.3561 107.712 22.4996 108.429 22.4996Z" fill="#06307B"/>
</g>
<defs>
<clipPath id="clip0_3_751">
<rect width="118" height="30" fill="white"/>
</clipPath>
</defs>
</svg>
