<svg width="126" height="37" viewBox="0 0 126 37" fill="none" xmlns="http://www.w3.org/2000/svg">
<path d="M78.2783 36.708C77.986 36.6548 77.6805 36.615 77.3882 36.5618C75.6079 36.2031 74.3591 35.1801 73.6682 33.5195C72.7914 31.4071 72.818 29.2814 73.7878 27.2088C74.7444 25.1761 76.6841 24.193 79.195 24.4189C81.3074 24.6049 82.8751 25.867 83.4464 27.8332C83.4995 27.9927 83.5261 28.1654 83.566 28.3647H81.1081C80.7893 27.3682 80.2313 26.611 79.1286 26.425C78.0259 26.239 77.1225 26.5711 76.4449 27.4612C75.2758 29.0024 75.2758 31.8853 76.4316 33.453C77.0693 34.3166 77.9329 34.6886 78.9957 34.5557C80.0187 34.4229 80.6564 33.8117 81.0018 32.8552C81.0417 32.7489 81.0816 32.6559 81.1347 32.5363H83.566C83.4862 33.4929 83.1275 34.3033 82.5297 35.0074C81.706 35.9773 80.6166 36.4556 79.3677 36.6017C79.1552 36.6283 78.9426 36.6681 78.7433 36.708H78.3182H78.2783Z" fill="black"/>
<path d="M110.163 36.708C109.845 36.6548 109.539 36.6017 109.22 36.5353C107.626 36.2031 106.457 35.2997 105.766 33.8516C104.716 31.6329 104.716 29.3744 105.766 27.1557C106.696 25.1761 108.609 24.2063 110.987 24.4056C113.179 24.5916 114.747 25.7873 115.345 27.7535C115.398 27.9395 115.438 28.1255 115.504 28.378C114.747 28.378 114.016 28.3912 113.299 28.3647C113.179 28.3647 113.007 28.192 112.953 28.0591C112.528 27.0494 111.824 26.425 110.695 26.3718C109.526 26.3187 108.636 26.8235 108.117 27.8465C107.227 29.5869 107.227 31.3805 108.131 33.1209C108.675 34.1572 109.579 34.662 110.775 34.5823C111.877 34.5026 112.542 33.8383 112.94 32.8552C112.993 32.7223 113.153 32.5363 113.272 32.5363C114.003 32.5098 114.734 32.523 115.451 32.523C115.478 33.9446 114.322 35.592 112.794 36.1766C112.09 36.4556 111.319 36.5353 110.575 36.708H110.15H110.163Z" fill="black"/>
<path d="M126 22.7183H123.649V10.9739H126V22.7183Z" fill="black"/>
<path d="M21.0444 0.0132853C21.35 0.544707 21.6157 1.0097 21.8814 1.46141C23.8476 4.8625 25.8139 8.2636 27.7802 11.6647C27.9263 11.9304 28.0193 12.1297 27.8466 12.4353C25.6279 16.2482 23.4225 20.0744 21.2171 23.8874C21.1773 23.9671 21.1241 24.0335 21.0178 24.1664C20.8983 23.9671 20.792 23.8077 20.699 23.6482C18.56 19.9416 16.4077 16.2216 14.2688 12.515C14.1226 12.2493 14.0296 12.05 14.2023 11.7444C16.421 7.93146 18.6264 4.10523 20.8318 0.292281C20.8717 0.212568 20.9248 0.146141 21.0311 0L21.0444 0.0132853Z" fill="black"/>
<path d="M20.9513 24.3126C20.8317 24.5384 20.7653 24.6846 20.6723 24.844C18.5333 28.5507 16.3811 32.2573 14.2421 35.9773C14.096 36.243 13.9498 36.4024 13.6044 36.4024C9.16702 36.3891 4.72965 36.4024 0.292282 36.4024C0.225854 36.4024 0.146141 36.4024 0 36.3891C0.0929987 36.2031 0.159427 36.057 0.252425 35.9109C2.40468 32.1909 4.55694 28.4577 6.69591 24.7377C6.85534 24.4454 7.02805 24.286 7.38676 24.286C11.7577 24.286 16.1154 24.286 20.4863 24.286C20.6059 24.286 20.7254 24.2993 20.9513 24.3259V24.3126Z" fill="black"/>
<path d="M21.0974 24.2727C21.3897 24.2727 21.5624 24.2727 21.7351 24.2727C25.9998 24.2727 30.2511 24.2727 34.5158 24.2727C34.9144 24.2727 35.1535 24.3923 35.3528 24.751C37.4785 28.4576 39.6174 32.151 41.7431 35.8444C41.8361 35.9905 41.9026 36.15 42.0221 36.3625C41.8228 36.3625 41.6634 36.3891 41.5173 36.3891C37.1862 36.3891 32.8551 36.3891 28.524 36.3891C28.2052 36.3891 28.0192 36.3227 27.8465 36.0304C25.6942 32.2706 23.5154 28.5108 21.3366 24.751C21.2701 24.6314 21.2037 24.5118 21.0974 24.2727Z" fill="black"/>
<path d="M55.4406 14.3484C54.856 16.4077 54.2581 18.4802 53.6736 20.5395C53.5009 21.1373 53.3149 21.7352 53.1687 22.333C53.1023 22.612 52.9695 22.705 52.6905 22.6917C52.066 22.6652 51.2955 22.891 50.8703 22.5987C50.4718 22.333 50.4452 21.5226 50.2725 20.9513C49.6879 18.9186 49.1166 16.886 48.5321 14.8533C48.4922 14.7071 48.4391 14.561 48.2797 14.4281V22.6784H46.1008V10.9473C47.1504 10.9473 48.2132 10.934 49.2761 10.9739C49.3956 10.9739 49.5418 11.2529 49.5949 11.4389C50.3123 13.817 51.0165 16.2084 51.7339 18.5865C51.7738 18.7326 51.8269 18.8921 51.9199 19.1578C52.2387 18.1082 52.5177 17.1517 52.81 16.2084C53.275 14.6274 53.7533 13.0464 54.205 11.4522C54.3113 11.0935 54.4441 10.934 54.856 10.9473C55.8126 10.9872 56.7691 10.9473 57.7522 10.9473V22.6784H55.5734V14.375C55.5203 14.375 55.4804 14.375 55.4273 14.375L55.4406 14.3484Z" fill="black"/>
<path d="M97.4095 16.4476C98.5787 16.9524 99.2562 17.7496 99.4954 18.8921C99.8806 20.7122 98.7647 22.3596 96.9047 22.6121C96.081 22.7183 95.2307 22.7051 94.3937 22.7051C93.0253 22.7183 91.6569 22.7051 90.2354 22.7051V11.0138C90.2885 10.9872 90.3283 10.9474 90.3815 10.9474C92.3345 10.9474 94.3007 10.8942 96.2537 10.9872C98.5122 11.1068 99.7478 13.0465 98.9241 14.9862C98.6318 15.6504 98.1402 16.1154 97.4095 16.4476ZM92.547 20.8849C93.6099 20.8849 94.6196 20.9381 95.6293 20.8717C96.4663 20.8185 97.0641 20.1144 97.104 19.304C97.1571 18.4803 96.7187 17.6964 95.9481 17.6167C94.8321 17.5104 93.6896 17.5901 92.547 17.5901V20.8849ZM92.5736 12.7941V15.6637C93.5833 15.6637 94.5399 15.6903 95.4964 15.6637C96.2936 15.6372 96.9047 14.9463 96.8781 14.1758C96.8648 13.4716 96.2404 12.8206 95.4964 12.8073C94.5399 12.7808 93.57 12.8073 92.5603 12.8073L92.5736 12.7941Z" fill="black"/>
<path d="M99.0038 36.3758C98.9108 35.5122 98.8178 34.662 98.7248 33.825C98.5521 32.3901 97.9144 31.8056 96.4928 31.7923C95.8684 31.7923 95.244 31.7923 94.5797 31.7923V36.3758H92.175V24.658C92.5205 24.658 92.8526 24.658 93.1848 24.658C94.6329 24.658 96.0677 24.658 97.5158 24.658C97.941 24.658 98.3661 24.6978 98.7913 24.7775C100.213 25.0565 101.143 26.0131 101.316 27.3151C101.528 28.9226 100.983 29.9589 99.5618 30.6763C99.5087 30.7029 99.4688 30.7294 99.3625 30.8092C100.771 31.3672 100.997 32.5496 101.09 33.8383C101.156 34.6885 101.302 35.5255 101.422 36.3891H99.0304L99.0038 36.3758ZM94.5664 29.8792C95.5894 29.8792 96.546 29.8925 97.5158 29.8792C98.2864 29.8659 98.9241 29.2016 99.0038 28.3912C99.0835 27.6073 98.5787 26.8102 97.8081 26.7438C96.7453 26.6508 95.6559 26.7172 94.5797 26.7172V29.8792H94.5664Z" fill="black"/>
<path d="M46.0876 24.658H54.7232V26.6641H48.4658V29.1883H54.0457V31.221H48.4525V34.3564H54.896V36.3758H46.0876V24.658Z" fill="black"/>
<path d="M112.21 14.3086H110.004C109.499 12.6878 108.184 12.1032 106.59 12.7542C105.992 13.0066 105.673 13.4317 105.673 14.003C105.673 14.5876 105.952 15.026 106.603 15.212C107.4 15.4511 108.237 15.584 109.048 15.7833C109.579 15.9161 110.124 16.049 110.629 16.2616C111.864 16.8063 112.568 17.7495 112.608 19.118C112.648 20.4864 112.13 21.6289 110.894 22.2666C108.915 23.2896 106.869 23.2896 104.889 22.2799C103.654 21.6555 103.149 20.5129 103.109 19.1047H105.301C105.873 20.8451 107.467 21.5359 109.167 20.7786C109.699 20.5395 110.097 20.1808 110.124 19.5431C110.137 18.8788 109.778 18.4537 109.194 18.2544C108.49 18.0153 107.746 17.909 107.028 17.6831C106.231 17.4174 105.368 17.1916 104.677 16.7398C102.897 15.5707 102.817 13.0598 104.438 11.6913C106.072 10.3096 108.995 10.1635 110.735 11.4123C111.705 12.1032 112.21 13.0597 112.223 14.2953L112.21 14.3086Z" fill="black"/>
<path d="M64.355 36.3626V24.6979H72.9906V26.6774H66.7464V29.1884H72.2732V31.2476H66.7464V34.3697H73.1899V36.3626H64.355Z" fill="black"/>
<path d="M69.8684 19.1046H72.0738C72.5787 20.9247 74.5981 21.6687 76.2056 20.6457C77.1356 20.0611 77.1489 18.8389 76.1525 18.3739C75.435 18.0417 74.6246 17.9354 73.8674 17.6963C73.1366 17.4704 72.3661 17.2977 71.7151 16.9257C69.616 15.7168 69.523 12.9002 71.476 11.4787C73.0569 10.3228 75.7008 10.2431 77.3482 11.3192C78.411 12.0101 78.9424 12.9932 79.0089 14.2952H76.7636C76.3119 12.6611 74.7176 11.9968 73.2031 12.8205C72.6982 13.0862 72.4591 13.4981 72.4857 14.0826C72.5122 14.6938 72.8842 15.0525 73.4024 15.1986C74.1995 15.4245 75.0365 15.5706 75.8469 15.7699C76.3783 15.9028 76.923 16.0356 77.4279 16.2615C78.5439 16.7663 79.248 17.6033 79.3676 18.8654C79.4871 20.2338 79.0354 21.3631 77.8929 22.147C76.2322 23.2895 73.0171 23.2629 71.383 22.1071C70.36 21.3897 69.9216 20.3667 69.895 19.1046H69.8684Z" fill="black"/>
<path d="M115.584 17.6034V22.6651H113.286V10.9739H115.584V15.491H120.287V10.9872H122.559V22.6651H120.341V17.6034H115.598H115.584Z" fill="black"/>
<path d="M80.0187 10.9607H82.3171V11.5452C82.3171 14.0163 82.3171 16.4875 82.3171 18.9719C82.3171 20.2871 82.8353 20.9115 84.1638 21.0444C84.6554 21.0975 85.2001 21.0444 85.6784 20.8983C86.5287 20.6458 86.9405 20.0214 86.9405 19.1313C86.9405 16.6203 86.9405 14.1093 86.9405 11.5984C86.9405 11.4124 86.9405 11.2131 86.9405 10.974H89.2788C89.2788 11.1334 89.3186 11.2928 89.3186 11.439C89.3186 13.9366 89.3186 16.421 89.3186 18.9187C89.3186 20.4333 88.8935 21.7352 87.4321 22.4128C85.5721 23.2764 83.659 23.2631 81.799 22.4128C80.5634 21.8548 80.0453 20.7255 80.032 19.4501C79.9789 16.6469 80.0187 13.8303 80.0187 10.9474V10.9607Z" fill="black"/>
<path d="M64.6474 12.98H61.7644V10.9872H69.8819V12.9402H67.0786V22.6652H64.6474V12.98Z" fill="black"/>
<path d="M83.4331 26.7039V24.6713H91.5373V26.6641H88.6942V36.3625H86.2762V26.7039H83.4331Z" fill="black"/>
<path d="M55.7328 36.3758V24.6846H58.0445V34.3564H63.5712V36.3891H55.7195L55.7328 36.3758Z" fill="black"/>
<path d="M61.0605 10.9739V22.6651H58.7488V10.9739H61.0605Z" fill="black"/>
<path d="M100.146 10.9606H102.445V22.6651H100.146V10.9606Z" fill="black"/>
<path d="M102.073 36.3626V24.6846H104.398V36.3626H102.073Z" fill="black"/>
</svg>
