<svg width="62" height="65" viewBox="0 0 62 65" fill="none" xmlns="http://www.w3.org/2000/svg">
<g clip-path="url(#clip0_32_52)">
<path d="M45.2597 32.6662L43.1724 34.416L43.1914 31.6957L45.2597 32.6662Z" fill="black"/>
<path d="M31.8078 42.1871C31.2413 42.1871 30.7812 42.6494 30.7812 43.2187V50.539C30.7812 51.1083 31.2413 51.5705 31.8078 51.5705H37.2866C37.8531 51.5705 38.3131 51.1083 38.3131 50.539V43.2187C38.3131 42.6494 37.8531 42.1871 37.2866 42.1871H31.8078ZM36.26 49.5074H32.8344V44.3534H36.26V49.5074Z" fill="#DA2222"/>
<path d="M37.2864 51.6623H31.8076C31.1879 51.6623 30.686 51.158 30.686 50.5352V43.2149C30.686 42.5921 31.1879 42.0878 31.8076 42.0878H37.2864C37.9061 42.0878 38.408 42.5921 38.408 43.2149V50.5352C38.408 51.158 37.9061 51.6623 37.2864 51.6623ZM31.8076 42.2827C31.2944 42.2827 30.8761 42.7029 30.8761 43.2187V50.539C30.8761 51.0548 31.2944 51.4751 31.8076 51.4751H37.2864C37.7997 51.4751 38.2179 51.0548 38.2179 50.539V43.2187C38.2179 42.7029 37.7997 42.2827 37.2864 42.2827H31.8076ZM36.3549 49.603H32.7391V44.2579H36.3549V49.603ZM32.9292 49.4119H36.1648V44.449H32.9292V49.4119Z" fill="#DA2222"/>
<path d="M46.3621 33.6978C46.2746 33.5068 45.5751 33.2584 45.5409 32.9643C45.4914 32.6701 45.3051 33.7169 45.039 33.587L42.9707 32.6166C42.7121 32.4714 42.5638 32.0244 42.3053 32.1696C42.0582 32.33 41.7996 31.4016 41.7996 31.6958L41.9099 35.4973L30.4961 26.7863C30.1273 26.5189 29.6331 26.5189 29.2643 26.7863L16.0522 36.8689C15.7024 37.1364 15.5617 37.6025 15.7024 38.0227C15.8354 38.443 16.2271 38.7257 16.6681 38.7219H17.9418V53.2975C17.9418 53.8668 18.4018 54.3291 18.9683 54.3291H40.8605C41.427 54.3291 41.8871 53.8668 41.8871 53.2975C41.8871 52.7283 41.427 52.266 40.8605 52.266H19.9949V37.6904C19.9873 37.3236 19.7934 37.0065 19.5082 36.8269L29.884 28.9106L40.2864 36.8498C40.2864 36.8498 40.2712 36.8651 40.2636 36.8689C40.2104 36.9071 40.161 36.953 40.1153 37.0026C40.1039 37.0141 40.0963 37.0256 40.0887 37.037C40.0431 37.0905 40.0051 37.1478 39.9708 37.209C39.9708 37.209 39.9708 37.2128 39.9708 37.2166C39.8948 37.3618 39.8416 37.5222 39.8416 37.698V44.9342C39.8416 45.5035 40.3016 45.9658 40.8681 45.9658C41.4346 45.9658 41.8947 45.5035 41.8947 44.9342V38.7296H43.1037C43.5448 38.7296 43.9326 38.4507 44.0695 38.0304C44.2139 37.6101 44.0695 37.144 43.7197 36.8766L43.1342 36.4295C43.2026 36.4028 43.271 36.3722 43.3319 36.3302L46.3735 33.7055L46.3621 33.6978Z" fill="#DA2222"/>
<path d="M40.8567 54.4284H18.9645C18.3447 54.4284 17.8429 53.9241 17.8429 53.3013V38.8212H16.6642C16.1852 38.8174 15.7555 38.5156 15.6073 38.0533C15.4514 37.5948 15.6073 37.0867 15.9875 36.7925L29.1996 26.7099C29.6026 26.4157 30.1425 26.4157 30.5455 26.7099L41.8034 35.2986L41.7007 31.6996C41.7007 31.6614 41.7007 31.5659 41.7844 31.5468C41.8718 31.5239 41.9136 31.5965 41.9897 31.7455C42.0467 31.8524 42.1608 32.074 42.2368 32.0931C42.4839 31.9594 42.6474 32.1543 42.7843 32.3147C42.8565 32.4026 42.9326 32.4905 43.0124 32.5363L45.0731 33.5029C45.1606 33.4724 45.267 33.2087 45.3165 33.0827C45.3925 32.8955 45.4267 32.8114 45.5218 32.819C45.5788 32.8267 45.6168 32.8687 45.6282 32.9489C45.6434 33.0827 45.8944 33.2393 46.0769 33.3539C46.2556 33.4647 46.3963 33.5564 46.4457 33.6596L46.4761 33.7245L43.3812 36.399C43.3546 36.4142 43.3318 36.4333 43.3052 36.4448L43.7614 36.7925C44.1454 37.0867 44.3013 37.5948 44.1416 38.0533C43.9934 38.5118 43.5751 38.8174 43.0961 38.8174H41.9745V44.9266C41.9745 45.5493 41.4726 46.0536 40.8529 46.0536C40.2331 46.0536 39.7313 45.5493 39.7313 44.9266V37.6903C39.7313 37.5108 39.7807 37.335 39.8719 37.1669C39.9138 37.0905 39.9556 37.0294 40.005 36.972C40.0164 36.9568 40.024 36.9453 40.0354 36.9338C40.062 36.9033 40.0925 36.8765 40.1229 36.8498L29.8725 29.029L19.6564 36.823C19.915 37.037 20.0709 37.3503 20.0785 37.6903V52.1742H40.8491C41.4688 52.1742 41.9707 52.6786 41.9707 53.3013C41.9707 53.9241 41.4688 54.4284 40.8491 54.4284H40.8567ZM16.6642 38.6264H18.033V53.2975C18.033 53.8133 18.4512 54.2336 18.9645 54.2336H40.8567C41.3699 54.2336 41.7882 53.8133 41.7882 53.2975C41.7882 52.7817 41.3699 52.3615 40.8567 52.3615H19.896V37.6903C19.8884 37.3732 19.7249 37.079 19.4511 36.9071L19.3371 36.8345L29.8802 28.7883L40.446 36.8498L40.3358 36.9262C40.3358 36.9262 40.3244 36.9377 40.3168 36.9415C40.2674 36.9759 40.2217 37.0179 40.1799 37.0637L40.1647 37.0828C40.1153 37.1402 40.0811 37.1936 40.0468 37.251C39.967 37.3961 39.929 37.5451 39.9252 37.6903V44.9266C39.9252 45.4423 40.3434 45.8626 40.8567 45.8626C41.3699 45.8626 41.7882 45.4423 41.7882 44.9266V38.6264H43.0999C43.4991 38.6264 43.8451 38.3704 43.9667 37.9922C44.096 37.6101 43.9667 37.186 43.6512 36.9415L42.9288 36.3875L43.0923 36.3264C43.1645 36.2996 43.2215 36.2729 43.271 36.2385L46.2328 33.6787C46.1719 33.629 46.0693 33.5641 45.9818 33.5068C45.8031 33.396 45.6054 33.2699 45.5066 33.1247C45.5066 33.1323 45.5028 33.14 45.499 33.1438C45.3925 33.4074 45.3013 33.6176 45.1568 33.671C45.1036 33.6901 45.0465 33.6901 44.9971 33.6634L42.9326 32.693C42.8147 32.628 42.7273 32.5249 42.6436 32.4255C42.4915 32.246 42.4345 32.1963 42.3509 32.2421C42.3052 32.2727 42.2482 32.2803 42.1912 32.2651C42.0809 32.2345 41.9897 32.1199 41.9022 31.9671L42.0087 35.6845L30.4353 26.8551C30.1007 26.6106 29.652 26.6106 29.3174 26.8551L16.1053 36.9338C15.786 37.1784 15.6567 37.5986 15.7898 37.9807C15.9114 38.3628 16.2612 38.6187 16.6566 38.6187H16.6642V38.6264Z" fill="#DA2222"/>
<path d="M60.9236 3.05265L55.7528 0.645672C55.5437 0.550157 55.3042 0.550157 55.0989 0.645672C54.8784 0.714443 54.7035 0.88255 54.616 1.0965L46.377 18.7439H9.03708C8.22725 17.7773 7.08283 17.1469 5.82435 16.9941C4.57348 16.8336 3.3074 17.1622 2.29225 17.911C1.18966 18.7133 0.547111 20.0047 0.569924 21.3763V60.3236C0.569924 60.3885 0.577528 60.4496 0.588934 60.507C0.573726 61.3704 0.813255 62.2453 1.34554 63.0056C1.88543 63.7736 2.71428 64.2855 3.63818 64.4269H4.18947C4.90046 64.4269 5.59243 64.2015 6.17034 63.785C6.38706 63.6207 6.51252 63.3648 6.51633 63.0935V58.2184C7.04861 58.4515 7.51627 58.8221 7.86225 59.3035C7.87366 59.3149 7.88506 59.3264 7.89647 59.3378C7.91928 59.3646 7.9459 59.3952 7.97251 59.4181C7.99532 59.441 8.01814 59.4601 8.04475 59.4792C8.06756 59.4945 8.09037 59.5098 8.11319 59.5251C8.1436 59.5442 8.17022 59.5594 8.20063 59.5747C8.22725 59.5862 8.25386 59.5938 8.27667 59.6015C8.30709 59.6129 8.33751 59.6244 8.37173 59.632C8.42876 59.6435 8.48959 59.6511 8.55422 59.6511H55.6198C56.095 59.6511 56.4828 59.2653 56.4828 58.7839V19.6073C56.4828 19.1298 56.0988 18.7401 55.6198 18.7401H54.5742L61.3571 4.1912C61.551 3.75565 61.3571 3.24369 60.9274 3.04883L60.9236 3.05265ZM4.86244 62.5892C4.56588 62.7229 4.2351 62.7649 3.91573 62.7114C3.45188 62.6427 3.03365 62.3867 2.7599 62.0008C2.7523 61.9893 2.74089 61.9741 2.73329 61.9626C1.95767 60.8508 2.22381 59.3187 3.33021 58.5355C3.77885 58.2031 4.30734 57.9968 4.86244 57.9471V62.5892ZM7.68736 56.8545C7.11705 56.5335 6.48971 56.3157 5.82435 56.2355C5.7217 56.2241 5.62285 56.2355 5.52779 56.2546C4.38338 56.1744 3.24276 56.4953 2.30746 57.1716C2.29986 57.1754 2.29605 57.183 2.28845 57.1868V21.6208C2.31887 21.5215 2.33027 21.4145 2.32267 21.3075C2.32267 20.509 2.71048 19.7602 3.35682 19.2979C4.02218 18.8203 4.83962 18.6178 5.64946 18.7248C6.44029 18.8241 7.15887 19.2062 7.68355 19.7984V56.8545H7.68736ZM54.7339 20.4746H54.7529V57.9166H9.41349V20.4746H45.5672L42.381 27.2982C42.381 27.2982 42.3734 27.3135 42.3696 27.3173C42.2784 27.5236 42.2746 27.7491 42.343 27.9477V31.6957C42.343 32.032 42.5369 32.3376 42.8411 32.4752L44.9094 33.4456C45.0235 33.4991 45.1451 33.5296 45.2706 33.5335C45.4797 33.5602 45.6888 33.5029 45.8561 33.3768L48.9396 30.7788C49.1183 30.6222 49.2171 30.4044 49.2323 30.1713L53.753 20.4746H54.7263H54.7339ZM42.4875 28.2992L48.1602 30.9393C48.3389 31.0233 48.3693 31.2602 48.221 31.3863L46.0766 33.1934C45.9436 33.3042 45.7611 33.3271 45.609 33.2546L42.6168 31.8257C42.4495 31.7454 42.3468 31.5773 42.3468 31.3939V28.3909C42.3468 28.3183 42.4229 28.2687 42.4913 28.2992H42.4875ZM47.9206 28.9602L46.8294 28.4521L44.3429 27.2447L55.8061 2.51395L59.3914 4.24468L47.9206 28.9564V28.9602Z" fill="#243C84"/>
<path d="M3.63828 65.0001L3.55084 64.9925C2.47866 64.8282 1.50533 64.2245 0.877996 63.3382C0.307689 62.5167 0.0111295 61.5577 0.0187336 60.5567C0.00732747 60.4765 -0.000276627 60.4001 -0.000276627 60.3237V21.3726C-0.026891 19.8291 0.706904 18.3581 1.95778 17.445C3.09459 16.6045 4.49374 16.2415 5.8967 16.4211C7.197 16.5816 8.39465 17.1967 9.29193 18.1671H46.0083L54.0991 0.85211C54.2321 0.515897 54.5249 0.236992 54.8937 0.110912C55.2435 -0.0380916 55.6389 -0.034271 55.9887 0.122374L61.1595 2.52936C61.8743 2.85793 62.1936 3.7061 61.8743 4.4282L55.4678 18.1671H55.6161C56.4069 18.1671 57.0495 18.8128 57.0495 19.6075V58.7802C57.0495 59.5749 56.4069 60.2205 55.6161 60.2205H8.58475C8.45168 60.2205 8.34902 60.2091 8.25017 60.1861C8.20454 60.1785 8.15892 60.1632 8.10949 60.1441C8.04486 60.1212 8.00684 60.1097 7.96882 60.0906C7.91559 60.0639 7.86616 60.0371 7.82054 60.0104C7.77871 59.9875 7.74069 59.9607 7.70647 59.934C7.66085 59.8996 7.62283 59.869 7.58481 59.8308C7.54679 59.7964 7.50877 59.7544 7.47455 59.7162C7.45174 59.6895 7.42892 59.6665 7.40611 59.6398C7.31106 59.5061 7.2046 59.3838 7.09054 59.273V63.0898C7.08674 63.5483 6.87763 63.9647 6.52024 64.236C5.82446 64.7327 5.02603 64.9925 4.19338 64.9963H3.63828V65.0001ZM3.68391 63.8539H4.18958C4.7827 63.8539 5.35681 63.6667 5.83967 63.319C5.9005 63.2732 5.94232 63.1853 5.94613 63.086V57.3398L6.74456 57.6875C7.36429 57.9587 7.90418 58.3866 8.29959 58.9292C8.311 58.9406 8.32241 58.9521 8.33001 58.9636L8.03725 59.4717L8.37564 59.0094L8.48209 59.0591C8.50871 59.0667 8.52772 59.0705 8.54673 59.0705H55.6123C55.772 59.0705 55.905 58.9406 55.905 58.7763V19.6075C55.905 19.447 55.7758 19.3133 55.6123 19.3133H53.6694L60.8325 3.95062C60.8933 3.81308 60.8287 3.64115 60.6842 3.57238H60.6804L55.5096 1.16158C55.4564 1.13866 55.388 1.13866 55.3309 1.16158L55.2701 1.1845C55.2131 1.20361 55.1636 1.24563 55.1408 1.30294L46.7345 19.3095H8.77485L8.60376 19.107C7.87757 18.2435 6.86622 17.6933 5.75983 17.5558C4.64583 17.4106 3.53563 17.701 2.63454 18.3658C1.68023 19.0611 1.12513 20.1767 1.14414 21.3573V60.316C1.14414 60.316 1.14414 60.3543 1.15174 60.381L1.16695 60.446V60.5109C1.15174 61.2903 1.37606 62.0391 1.8171 62.6734C2.25434 63.2961 2.9349 63.724 3.68771 63.8501L3.68391 63.8539ZM4.19338 63.3076C4.06791 63.3076 3.93864 63.2961 3.81318 63.2732C3.21245 63.1853 2.65355 62.8415 2.29236 62.3295L2.26574 62.2913C1.80189 61.6265 1.6232 60.8242 1.76007 60.0257C1.89695 59.2272 2.33798 58.5318 2.99954 58.0657C3.52042 57.6798 4.15156 57.4353 4.80931 57.3742L5.43285 57.3169V62.9561L5.09827 63.1089C4.81312 63.2388 4.50515 63.3076 4.19338 63.3076ZM4.29224 58.6617C4.07172 58.742 3.8588 58.8566 3.6687 58.9979C3.24667 59.2959 2.97292 59.7277 2.88548 60.2244C2.79803 60.721 2.91209 61.2215 3.19725 61.6342L3.22006 61.6685C3.40256 61.9283 3.68391 62.1003 3.99568 62.1461C4.09453 62.1652 4.19338 62.169 4.29224 62.1576V58.6617ZM55.3233 58.486H8.84329V19.9017H46.4646L42.8982 27.5429C42.8564 27.6384 42.8678 27.711 42.8868 27.7607L42.921 27.8676L48.4074 30.4236C48.4074 30.4236 48.4416 30.4389 48.4568 30.4504L48.5823 30.3434C48.6317 30.2975 48.6697 30.2249 48.6735 30.1371L48.6811 30.0301L53.4033 19.9055H55.3271V58.4936L55.3233 58.486ZM9.9839 57.3398H54.1865V21.0478H54.1295L49.8028 30.3281C49.7533 30.672 49.586 30.9814 49.3275 31.2107L48.6013 31.822C48.6013 31.822 48.5937 31.8258 48.5937 31.8296L46.2326 33.8163C45.9285 34.0455 45.5825 34.1411 45.2365 34.1029C45.0426 34.0914 44.8563 34.0455 44.6776 33.9653L42.6093 32.9949C42.1074 32.7695 41.7766 32.2575 41.7804 31.6921V31.3979V28.391V28.0357C41.6968 27.7186 41.7196 27.3862 41.8565 27.0844L41.8717 27.0462L44.6738 21.0478H9.9839V57.3436V57.3398ZM42.9172 31.3329L45.7764 32.7007L47.4873 31.2565L42.9134 29.1284V31.3329H42.9172ZM1.72205 58.3293V21.5369L1.74486 21.4566C1.75627 21.4184 1.76007 21.3841 1.75627 21.3497V21.3C1.75627 20.3181 2.23533 19.3935 3.02615 18.8281C3.80938 18.2664 4.77129 18.0257 5.72561 18.1556C6.6419 18.2703 7.48976 18.7173 8.10949 19.4164L8.25397 19.5807V57.8365L7.40231 57.3551C6.88523 57.0609 6.33013 56.8775 5.75222 56.8049C5.72561 56.8049 5.69139 56.8049 5.65337 56.8126L5.56972 56.8317L5.48608 56.824C4.47473 56.7552 3.4748 57.038 2.65735 57.6225L2.63074 57.6416L1.71825 58.3293H1.72205ZM2.86267 21.6935V56.1898C3.68391 55.8039 4.5888 55.6282 5.48988 55.6817C5.62675 55.6587 5.76363 55.6549 5.8929 55.6702C6.31112 55.7237 6.72174 55.8192 7.11716 55.9644V20.0277C6.69893 19.6228 6.16284 19.363 5.58493 19.2904C4.91197 19.1987 4.24281 19.3668 3.69531 19.7603C3.20485 20.1118 2.90829 20.6811 2.90069 21.2847C2.90829 21.4184 2.90069 21.556 2.86647 21.6897L2.86267 21.6935ZM48.1983 29.7206L46.5938 28.9718L43.594 27.5161L55.5324 1.74613L60.1443 3.97355L48.1983 29.7168V29.7206ZM45.0996 26.9736L47.6432 28.1962L58.6349 4.51607L56.0799 3.28202L45.0996 26.9736Z" fill="#243C84"/>
</g>
<defs>
<clipPath id="clip0_32_52">
<rect width="62" height="65" fill="white"/>
</clipPath>
</defs>
</svg>
