<svg width="26" height="29" viewBox="0 0 26 29" fill="none" xmlns="http://www.w3.org/2000/svg">
<path d="M8.61198 2.7577V0H17.224V2.7577H8.61198ZM11.4894 17.9496H14.3567V9.66667H11.4894V17.9496ZM12.9282 29C11.1527 29 9.48951 28.6761 7.91813 28.0186C6.34675 27.3611 4.97944 26.468 3.80601 25.3394C2.63257 24.2108 1.70403 22.8958 1.02038 21.3844C0.336724 19.8731 0 18.2734 0 16.5658C0 14.8582 0.336724 13.2585 1.02038 11.7472C1.70403 10.2359 2.63257 8.92081 3.80601 7.79222C4.97944 6.66362 6.34675 5.77056 7.91813 5.11303C9.48951 4.4555 11.1527 4.13164 12.9282 4.13164C14.4077 4.13164 15.8363 4.35736 17.2036 4.81861C18.5709 5.27986 19.8463 5.94721 21.0402 6.82064L23.0503 4.88731L25.0605 6.82064L23.0503 8.75398C23.9585 9.9022 24.6523 11.1387 25.1319 12.444C25.6115 13.7492 25.8462 15.1232 25.8462 16.556C25.8462 18.2636 25.5094 19.8633 24.8258 21.3746C24.1421 22.886 23.2136 24.201 22.0401 25.3296C20.8667 26.4582 19.4994 27.3513 17.928 28.0088C16.3566 28.6663 14.6934 28.9902 12.918 28.9902L12.9282 29ZM12.9282 26.2423C15.7036 26.2423 18.0709 25.3002 20.0402 23.4159C21.9993 21.5316 22.9789 19.245 22.9789 16.5756C22.9789 13.9063 21.9993 11.6294 20.0402 9.73536C18.0811 7.84129 15.7036 6.90897 12.9282 6.90897C10.1528 6.90897 7.78548 7.8511 5.81615 9.73536C3.85703 11.6196 2.87746 13.9063 2.87746 16.5756C2.87746 19.245 3.85703 21.5218 5.81615 23.4159C7.77527 25.3002 10.1528 26.2423 12.9282 26.2423Z" fill="#DA2222"/>
</svg>
