<svg width="71" height="65" viewBox="0 0 71 65" fill="none" xmlns="http://www.w3.org/2000/svg">
<g clip-path="url(#clip0_32_85)">
<path d="M15.9976 52.2195L35.4621 62.4479L54.9548 52.3249L35.2296 41.6104L15.9976 52.2195Z" fill="#DA2222"/>
<path d="M70.8439 61.2935C70.8719 61.1193 70.8439 60.9492 70.8158 60.775L69.0201 53.9736C68.8357 53.2728 68.1142 52.8474 67.4207 53.0338C66.7273 53.2201 66.3064 53.9493 66.4908 54.6501L67.4728 58.3485L56.2454 51.8023V30.0128C56.2454 29.8953 56.2334 29.7738 56.2054 29.6685C56.2054 29.628 56.1653 29.5874 56.1532 29.551L56.0731 29.3525C56.045 29.312 56.021 29.2877 55.9929 29.2472C55.9528 29.1945 55.9127 29.1297 55.8606 29.0892C55.8326 29.0608 55.7965 29.0365 55.7564 29.0082C55.7043 28.9677 55.6522 28.915 55.6001 28.8745L36.7809 18.0587V4.61393L39.4705 7.33206C39.731 7.59536 40.0597 7.71689 40.4004 7.71689C40.7411 7.71689 41.0698 7.58321 41.3304 7.33206C41.8434 6.81355 41.8434 5.97907 41.3304 5.46461L36.4121 0.494215C36.2959 0.37674 36.1516 0.267367 35.9792 0.202554C35.6625 0.0688754 35.2978 0.0688754 34.9811 0.202554C34.8248 0.267367 34.6805 0.360537 34.5482 0.494215L29.63 5.46461C29.1169 5.98312 29.1169 6.8176 29.63 7.33206C29.8905 7.59536 30.2192 7.71689 30.5599 7.71689C30.9006 7.71689 31.2293 7.58321 31.4898 7.33206L34.1794 4.61393V18.0547L15.3602 28.8704C15.3322 28.8826 15.3081 28.9231 15.268 28.9353C15.24 28.9636 15.2039 28.9758 15.1758 29.0001C15.1478 29.0244 15.1117 29.0406 15.0836 29.0649C15.0315 29.1175 15.0035 29.1702 14.9514 29.2229C14.9233 29.2634 14.8872 29.2877 14.8712 29.3282C14.8431 29.3809 14.8191 29.4457 14.791 29.5145C14.779 29.555 14.751 29.5955 14.7389 29.632C14.7389 29.6725 14.7389 29.7252 14.7269 29.7657C14.7269 29.8062 14.7269 29.8467 14.7149 29.8832C14.7149 29.9237 14.7029 29.948 14.7029 29.9885V51.778L3.47545 58.3242L4.45749 54.6258C4.64188 53.925 4.23303 53.1958 3.52756 53.0095C2.82209 52.8231 2.11261 53.2363 1.92822 53.9493L0.140496 60.7628C0.100412 60.937 0.0883873 61.1071 0.112437 61.2813C0.136488 61.4555 0.192605 61.6135 0.268763 61.7593C0.34893 61.893 0.453148 62.0105 0.557365 62.1036C0.585423 62.132 0.621499 62.1563 0.649557 62.1685C0.765799 62.2616 0.9101 62.3264 1.0544 62.367L7.78443 64.1817C7.90067 64.2101 8.0089 64.2222 8.12514 64.2222C8.70234 64.2222 9.23946 63.8374 9.39579 63.2419C9.58017 62.5411 9.17132 61.812 8.46585 61.6256L4.80622 60.6332L16.1779 53.9938L34.8408 64.7164C34.8408 64.7164 34.9731 64.7813 35.0372 64.8096C35.0773 64.8218 35.1174 64.8501 35.1535 64.8623C35.2577 64.8906 35.3779 64.9028 35.4942 64.9028C35.6104 64.9028 35.7187 64.8906 35.8349 64.8623C35.875 64.8623 35.9151 64.8339 35.9511 64.8096C36.0153 64.7813 36.0834 64.7691 36.1476 64.7286L54.8105 54.006L66.1822 60.6453L62.5225 61.6378C61.8291 61.8241 61.4082 62.5533 61.5926 63.2541C61.7489 63.8496 62.274 64.2344 62.8632 64.2344C62.9795 64.2344 63.0877 64.2222 63.2039 64.1939L69.934 62.3791C70.0783 62.3386 70.2105 62.2616 70.3388 62.1806C70.3669 62.1523 70.403 62.1401 70.431 62.1158C70.5473 62.0226 70.6394 61.9173 70.7196 61.7715C70.7998 61.6256 70.8519 61.4677 70.8759 61.2935H70.8359H70.8439ZM34.1354 61.3299L17.3323 51.6808L17.2682 51.616V32.3177L18.6591 33.1117L18.6711 33.1238L34.1193 42.0033V61.3421L34.1313 61.3299H34.1354ZM35.4461 20.3596L52.2732 30.0209L50.766 30.8837L37.5865 38.4507L35.4621 39.67L33.3377 38.4507L20.1582 30.8837L18.6511 30.0209L35.4782 20.3596H35.4501H35.4461ZM36.7608 59.6853V41.9912L52.209 33.1117L52.2211 33.0995L53.612 32.3056V51.6038L53.5478 51.6686L36.7448 61.3178V59.6731L36.7568 59.6853H36.7608Z" fill="#243C84" stroke="#243C84" stroke-width="0.5" stroke-miterlimit="10"/>
</g>
<defs>
<clipPath id="clip0_32_85">
<rect width="71" height="65" fill="white"/>
</clipPath>
</defs>
</svg>
