<svg width="20" height="25" viewBox="0 0 20 25" fill="none" xmlns="http://www.w3.org/2000/svg">
<g clip-path="url(#clip0_3_984)">
<path d="M7.0948 13.9271L8.19016 10.5327L5.31554 8.3298H8.87962L10.0028 4.99894L11.1259 8.3298H14.69L11.782 10.5327L12.8774 13.9271L10.0028 11.8142L7.0948 13.9271ZM2.50208 25V15.8017C1.71254 14.9703 1.09536 14.0172 0.656102 12.9422C0.216847 11.8672 0 10.7287 0 9.52129C0 6.86295 0.967473 4.61237 2.90798 2.76425C4.84292 0.921415 7.206 0 9.99722 0C12.7884 0 15.1515 0.921415 17.092 2.76954C19.027 4.61237 20 6.86825 20 9.52658C20 10.7393 19.7832 11.8778 19.3439 12.9475C18.9046 14.0172 18.293 14.9703 17.4979 15.807V25.0053L9.99722 22.6223L2.49652 25.0053L2.50208 25ZM9.99722 16.6649C12.0823 16.6649 13.8504 15.9712 15.3072 14.5838C16.764 13.1964 17.4924 11.5071 17.4924 9.52658C17.4924 7.54607 16.764 5.85681 15.3072 4.46939C13.8504 3.08197 12.0767 2.38827 9.99722 2.38827C7.91771 2.38827 6.14401 3.08197 4.68724 4.46939C3.23047 5.85681 2.50208 7.54607 2.50208 9.52658C2.50208 11.5071 3.23047 13.1964 4.68724 14.5838C6.14401 15.9712 7.91771 16.6649 9.99722 16.6649ZM4.99861 21.4573L9.99722 20.2394L14.9958 21.4573V17.7664C14.2674 18.1635 13.4779 18.476 12.6383 18.7037C11.7932 18.9314 10.9147 19.0479 9.99722 19.0479C9.07979 19.0479 8.20128 18.9314 7.35613 18.7037C6.51098 18.476 5.72699 18.1635 4.99861 17.7664V21.4573Z" fill="#DA2222"/>
</g>
<defs>
<clipPath id="clip0_3_984">
<rect width="20" height="25" fill="white"/>
</clipPath>
</defs>
</svg>
