<svg width="68" height="69" viewBox="0 0 68 69" fill="none" xmlns="http://www.w3.org/2000/svg">
<g clip-path="url(#clip0_3_702)">
<path d="M0.13623 68.8847L6.90809 34.4562H61.0875L67.8594 68.8847H0.13623ZM8.43312 61.9999H30.6141V55.1151H9.79021L8.43766 61.9999H8.43312ZM11.1428 48.2303H30.6141V41.3456H12.4999L11.1473 48.2303H11.1428ZM37.386 61.9999H59.567L58.2144 55.1151H37.3905V61.9999H37.386ZM37.386 48.2303H56.8574L55.5048 41.3456H37.3905V48.2303H37.386Z" fill="#243C84" stroke="#243C84" stroke-width="0.5" stroke-miterlimit="10"/>
<path d="M14.1065 25.2181L9.28174 20.3959L16.4757 13.082L21.3004 17.9041L14.1065 25.2181Z" fill="#FD1E1E"/>
<path d="M34 17.2119C29.3159 17.2119 25.3218 15.5323 22.0221 12.1776C18.7224 8.82284 17.0703 4.76212 17.0703 0H23.8422C23.8422 2.87019 24.8316 5.30663 26.806 7.31392C28.7804 9.32121 31.1814 10.3272 34 10.3272C36.8185 10.3272 39.2196 9.32121 41.1939 7.31392C43.1683 5.30663 44.1577 2.86558 44.1577 0H50.9296C50.9296 4.76212 49.2775 8.82284 45.9778 12.1776C42.6781 15.5323 38.684 17.2119 34 17.2119Z" fill="#FD1E1E"/>
<path d="M37.3859 20.6543H30.614V30.9815H37.3859V20.6543Z" fill="#FD1E1E"/>
<path d="M53.8936 25.2181L46.7859 17.9041L51.5244 13.082L58.7229 20.3129L53.8936 25.2181Z" fill="#FD1E1E"/>
<path d="M66.3838 6.62489L56.1941 6.48677L56.1402 -0.278707L66.3355 -0.26361L66.3838 6.62489Z" fill="#FD1E1E"/>
<path d="M3.41474 -0.343031L13.6045 -0.204912L13.6584 6.56057L3.46312 6.54547L3.41474 -0.343031Z" fill="#FD1E1E"/>
</g>
<defs>
<clipPath id="clip0_3_702">
<rect width="68" height="69" fill="white"/>
</clipPath>
</defs>
</svg>
