<svg width="141" height="22" viewBox="0 0 141 22" fill="none" xmlns="http://www.w3.org/2000/svg">
<path d="M9.33048 15.1382C9.5221 15.6246 9.46314 16.2437 9.3747 16.6269C9.21256 17.2902 8.75561 17.983 7.41427 17.983C6.07292 17.983 5.39487 17.2607 5.39487 16.1552V14.2095H0V15.7572C0 20.2382 3.52288 21.5943 7.31109 21.5943C11.0993 21.5943 13.9441 20.3562 14.4158 16.9954C14.6664 15.2561 14.4748 14.1211 14.4011 13.6936C13.5461 9.47797 5.92552 8.22506 5.35065 5.86665C5.27695 5.51289 5.26221 5.15912 5.33591 4.80536C5.48331 4.1568 5.91078 3.44927 7.17842 3.44927C8.44607 3.44927 9.05042 4.17154 9.05042 5.27704V6.52995H14.062V5.1149C14.062 0.737095 10.1264 0.0443115 7.2816 0.0443115C4.43677 0.0443115 0.781225 1.22352 0.250582 4.51056C0.103181 5.40971 0.0884406 6.20567 0.294802 7.22274C1.16447 11.3352 8.31341 12.5144 9.34522 15.1234" fill="black"/>
<path d="M21.5203 0.692871L17.791 20.7984H23.2301L25.9865 2.55012H26.1044L28.7871 20.7984H34.1967L30.497 0.692871H21.5497H21.5203ZM51.8996 0.692871L49.4233 16.0668H49.3053L46.829 0.692871H38.6335L38.1913 20.7984H43.2177L43.3356 2.727H43.4535L46.8143 20.7984H51.9143L55.2751 2.727H55.3782L55.5109 20.7984H60.5373L60.0951 0.692871H51.8996Z" fill="black"/>
<path d="M74.7025 15.0939C74.8942 15.5803 74.8352 16.1994 74.7468 16.5826C74.5846 17.2459 74.1277 17.9387 72.7863 17.9387C71.445 17.9387 70.7669 17.2164 70.7669 16.1109V14.1652H65.3721V15.7129C65.3721 20.1939 68.895 21.55 72.6832 21.55C76.4714 21.55 79.3162 20.3118 79.7879 16.9511C80.0385 15.2118 79.8468 14.0768 79.7731 13.6493C78.9182 9.43366 71.2976 8.18075 70.7227 5.82234C70.649 5.46857 70.6343 5.11481 70.708 4.76105C70.8554 4.11249 71.2828 3.40496 72.5505 3.40496C73.8181 3.40496 74.4225 4.12723 74.4225 5.23273V6.48564H79.4341V5.07059C79.4341 0.692786 75.4985 0 72.6537 0C69.8088 0 66.1533 1.17921 65.6227 4.46625C65.4753 5.36539 65.4605 6.16136 65.6669 7.17842C66.5365 11.2909 73.6855 12.4701 74.7173 15.0791" fill="black"/>
<path d="M91.58 17.7913C92.9803 17.7913 93.4077 16.8332 93.5109 16.3321C93.5551 16.111 93.5551 15.8162 93.5551 15.5656V0.692844H98.6405V15.1087C98.6405 15.5509 98.6405 15.9931 98.5962 16.4353C98.2425 20.194 95.2797 21.4027 91.58 21.4027C87.8802 21.4027 84.9174 20.1792 84.5637 16.4353C84.5637 16.2436 84.5047 15.4772 84.5195 15.1087V0.692844H89.6048V15.5656C89.6048 15.8309 89.6048 16.1257 89.649 16.3468C89.7374 16.8332 90.1796 17.8061 91.58 17.8061M116.166 0.692844L116.446 16.4795H116.343L111.715 0.692844H104.256V20.592H109.194L108.914 4.25995H109.017L113.985 20.592H121.149V0.692844H116.166ZM133.516 17.585C134.975 17.585 135.476 16.6711 135.564 16.1257C135.609 15.9046 135.609 15.6246 135.609 15.374V12.4407H133.545V9.50742H140.664V14.9023C140.664 15.2855 140.664 15.5509 140.591 16.2289C140.266 19.8992 137.083 21.1963 133.516 21.1963C129.948 21.1963 126.779 19.8844 126.44 16.2289C126.381 15.5656 126.367 15.2855 126.367 14.9023V6.44148C126.367 6.08772 126.411 5.45389 126.455 5.11487C126.897 1.35615 129.948 0.147461 133.516 0.147461C137.083 0.147461 140.208 1.34141 140.576 5.11487C140.635 5.76344 140.62 6.44148 140.62 6.44148V7.11952H135.55V5.98454C135.55 5.98454 135.55 5.51286 135.491 5.21805C135.402 4.77585 135.019 3.75878 133.486 3.75878C131.953 3.75878 131.599 4.73163 131.481 5.21805C131.422 5.48338 131.393 5.83714 131.393 6.16142V15.3592C131.393 15.6098 131.393 15.9046 131.437 16.1257C131.526 16.6711 132.042 17.585 133.501 17.585" fill="black"/>
</svg>
