<svg width="29" height="22" viewBox="0 0 29 22" fill="none" xmlns="http://www.w3.org/2000/svg">
<g clip-path="url(#clip0_1_20)">
<path d="M17.0477 12.3729C15.9841 12.3729 15.0875 11.9721 14.3454 11.1704C13.6034 10.3687 13.2323 9.39326 13.2323 8.25084C13.2323 7.10841 13.6034 6.13301 14.3454 5.33131C15.0875 4.52961 15.9903 4.12876 17.0477 4.12876C18.1051 4.12876 19.008 4.52961 19.75 5.33131C20.492 6.13301 20.8631 7.10841 20.8631 8.25084C20.8631 9.39326 20.492 10.3687 19.75 11.1704C19.008 11.9721 18.1051 12.3729 17.0477 12.3729ZM8.13693 16.5017C7.43816 16.5017 6.83834 16.2344 6.33746 15.6933C5.83657 15.1521 5.58922 14.5041 5.58922 13.7492V2.75251C5.58922 1.99757 5.83657 1.34953 6.33746 0.808381C6.83834 0.267234 7.43816 0 8.13693 0H25.9523C26.6511 0 27.2509 0.267234 27.7518 0.808381C28.2527 1.34953 28.5 1.99757 28.5 2.75251V13.7558C28.5 14.5108 28.2527 15.1588 27.7518 15.7C27.2509 16.2411 26.6511 16.5083 25.9523 16.5083H8.13693V16.5017ZM10.6846 13.7492H23.4108C23.4108 12.9942 23.6581 12.3462 24.159 11.805C24.6599 11.2639 25.2597 10.9967 25.9585 10.9967V5.49833C25.2597 5.49833 24.6599 5.2311 24.159 4.68995C23.6581 4.1488 23.4108 3.50076 23.4108 2.74582H10.6846C10.6846 3.50076 10.4373 4.1488 9.9364 4.68995C9.43551 5.2311 8.83569 5.49833 8.13693 5.49833V10.9967C8.83569 10.9967 9.43551 11.2639 9.9364 11.805C10.4373 12.3462 10.6846 12.9942 10.6846 13.7492ZM24.6846 22H3.0477C2.34894 22 1.74912 21.7328 1.24823 21.1916C0.74735 20.6505 0.5 20.0024 0.5 19.2475V4.12208H3.0477V19.2475H24.6846V22ZM8.13693 13.7492V2.75251V13.7558V13.7492Z" fill="#DA2222"/>
</g>
<defs>
<clipPath id="clip0_1_20">
<rect width="28" height="22" fill="white" transform="translate(0.5)"/>
</clipPath>
</defs>
</svg>
