<svg width="159" height="42" viewBox="0 0 159 42" fill="none" xmlns="http://www.w3.org/2000/svg">
<path d="M45.4285 30.7858C45.6971 30.6179 45.6635 30.3325 45.7307 30.1142C47.5609 23.1629 49.391 16.1949 51.2212 9.24361C51.5234 8.10185 51.6746 7.98432 52.8499 7.98432C53.8909 7.98432 54.9151 7.98432 55.9561 7.98432C56.7789 7.98432 57.0139 8.32013 56.7789 9.09249C54.1428 17.8236 51.4899 26.5546 48.8538 35.3025C48.6691 35.9405 48.3165 36.2428 47.6448 36.226C46.1505 36.2092 44.6729 36.2092 43.1786 36.226C42.5237 36.226 42.1879 35.9405 42.02 35.3361C39.3839 26.6218 36.731 17.9075 34.0949 9.19324C33.8262 8.30334 34.0613 7.98432 35.0016 7.96753C36.1265 7.96753 37.2515 7.96753 38.3765 7.96753C39.2496 7.96753 39.4846 8.15222 39.7029 8.99175C41.5499 16.0102 43.3968 23.0454 45.2438 30.0639C45.311 30.2989 45.3781 30.534 45.4285 30.7858Z" fill="black"/>
<path d="M7.75069 28.4354C6.40745 28.3514 5.46718 28.301 4.52691 28.2507C4.29184 28.2507 4.02319 28.2507 4.02319 27.9316C4.02319 27.5958 4.30863 27.579 4.56049 27.5958C5.73583 27.663 6.89437 27.7134 8.06971 27.8141C8.48947 27.8477 8.60701 27.747 8.6238 27.3272C8.75812 25.6146 8.38873 23.9691 8.13687 22.29C8.01934 21.5345 7.9018 20.7789 7.85143 20.0065C7.7339 17.9749 8.64059 16.3966 10.1349 15.1205C10.5547 14.7679 10.6051 14.4656 10.4708 13.9787C9.66481 10.6542 8.40552 7.464 7.06228 4.32417C6.86079 3.85404 6.64251 3.3839 6.3067 2.96414C6.18917 2.82982 6.07164 2.66191 5.87015 2.71228C5.66866 2.77944 5.63508 2.98093 5.61829 3.14883C5.55113 3.7365 5.66866 4.32417 5.80299 4.89505C6.44103 7.79981 7.56599 10.5031 9.02677 13.072C9.19467 13.3743 9.64802 13.8444 9.31221 14.0627C8.94282 14.2977 8.65738 13.7269 8.4391 13.4078C6.22275 10.0329 4.84593 6.37262 4.59407 2.3261C4.56049 1.73843 4.56049 1.15076 4.74519 0.579884C4.96346 -0.0245747 5.28248 -0.142108 5.81978 0.210493C6.40745 0.596675 6.82721 1.16755 7.23018 1.73843C9.07714 4.40812 10.5715 7.2793 11.9315 10.2344C12.4185 11.2922 12.8382 12.3836 13.258 13.475C13.3923 13.8108 13.5098 13.9451 13.8792 13.8948C14.6012 13.794 15.3232 13.7772 16.0284 13.8948C16.3978 13.9619 16.5489 13.8108 16.6497 13.475C18.0097 9.64677 19.9238 6.08718 22.0562 2.62833C22.5599 1.80559 23.114 0.999648 23.8528 0.361608C24.5748 -0.242851 25.0281 -0.0917368 25.2128 0.831742C25.5319 2.41005 25.2464 3.98836 24.877 5.5163C24.239 8.10204 23.3155 10.587 21.8379 12.837C21.6029 13.1896 21.351 13.5422 21.0824 13.8612C20.9648 14.0123 20.7801 14.2138 20.5786 14.0963C20.3268 13.9451 20.5283 13.7269 20.6122 13.559C20.8305 13.1224 21.0824 12.6859 21.3174 12.2493C22.6607 9.81467 23.6345 7.22893 24.1718 4.50887C24.2558 4.07231 24.2558 3.61897 24.2726 3.16563C24.2726 2.98093 24.2558 2.76265 24.0711 2.69549C23.836 2.61154 23.6849 2.81302 23.5842 2.98093C23.3659 3.31674 23.1476 3.66934 22.9797 4.03873C21.5357 7.31288 20.2428 10.6374 19.4033 14.1298C19.3362 14.4153 19.269 14.6839 19.5712 14.919C21.8715 16.7156 22.4424 19.0663 21.8883 21.8535C21.5525 23.5325 21.2167 25.2116 21.2838 26.941C21.3174 27.8309 21.3174 27.8141 22.2073 27.7637C23.2483 27.6966 24.2726 27.6462 25.3136 27.5958C25.5822 27.5958 25.918 27.5455 25.918 27.9316C25.918 28.2842 25.599 28.2339 25.3639 28.2507C23.5674 28.3514 21.7708 28.4354 19.9574 28.5529C19.7223 28.5529 19.5208 28.5529 19.3865 28.3178C19.2354 28.0492 18.9836 27.8981 18.7485 27.7302C18.144 27.2768 18.0937 26.8571 18.5806 26.2526C19.0339 25.6985 19.5208 25.1612 19.9574 24.5903C21.0824 23.1128 21.5189 21.4505 21.032 19.6371C20.5954 18.0084 19.4033 17.7062 18.2616 18.9487C16.9687 20.3255 16.3978 22.055 16.0284 23.8515C15.8773 24.54 15.8941 25.2452 15.8605 25.9336C15.8437 26.6556 16.0116 27.2936 16.4314 27.8981C17.0358 28.788 16.9687 29.1574 16.1292 29.829C15.424 30.3999 15.424 31.1218 16.1292 31.6927C17.1366 32.5155 18.8492 32.2132 19.4705 31.0547C19.6384 30.7525 19.7895 30.6349 20.1253 30.6517C21.4685 30.7525 22.8286 30.8028 24.1718 30.8868C24.4069 30.8868 24.7427 30.8532 24.7091 31.2226C24.6755 31.6256 24.3565 31.5416 24.0879 31.5248C23.0469 31.4577 22.0226 31.4073 20.9816 31.3233C20.6626 31.3065 20.4611 31.3905 20.2596 31.6591C19.1515 33.1367 17.6571 34.1273 15.9613 34.799C15.3064 35.0676 14.6348 35.0508 13.98 34.799C12.2841 34.1106 10.7898 33.1367 9.6816 31.6424C9.4969 31.3905 9.31221 31.3065 9.00998 31.3233C7.95218 31.4073 6.89437 31.4577 5.83657 31.5248C5.58471 31.5248 5.28248 31.592 5.23211 31.273C5.18174 30.87 5.53434 30.9036 5.80299 30.8868C7.14623 30.8028 8.50626 30.7357 9.8495 30.6517C10.1517 30.6349 10.3028 30.7021 10.4708 31.0043C11.0752 32.1461 12.5864 32.4987 13.6777 31.7935C14.5509 31.2226 14.5844 30.4166 13.7617 29.7618C13.1069 29.2413 12.9054 28.8048 13.3251 28.2171C14.2318 26.9914 14.1815 25.6481 13.9968 24.2713C13.7449 22.5587 13.1908 20.9468 12.2002 19.5196C11.6629 18.764 11.0248 17.9245 9.95025 18.2435C8.92603 18.5457 8.85886 19.5868 8.74133 20.4767C8.57342 21.9374 9.00998 23.2471 9.86629 24.4056C10.3532 25.0605 10.9073 25.6481 11.411 26.2862C11.8476 26.8403 11.7972 27.2432 11.2263 27.663C10.9577 27.8645 10.6554 28.0324 10.4875 28.3514C10.3532 28.6033 10.1517 28.5361 9.95025 28.5193C9.07714 28.4857 8.18724 28.4354 7.70032 28.4186L7.75069 28.4354ZM13.493 33.3046C14.4333 34.1777 15.6254 34.1777 16.5321 33.271C15.978 33.0528 15.5247 32.4819 15.0546 32.4147C14.5676 32.3643 14.0975 33.0528 13.5266 33.2542C13.5266 33.2542 13.5098 33.2878 13.493 33.3046Z" fill="black"/>
<path d="M67.7266 34.2616C66.1147 35.7392 64.4357 36.6459 62.3705 36.8138C57.199 37.2335 55.0498 34.0265 55.4528 29.7282C55.7382 26.6555 57.5516 24.9261 60.8257 24.3048C62.7399 23.9354 64.6876 24.0362 66.6185 24.0362C67.1558 24.0362 67.3237 23.9019 67.2733 23.3646C67.2229 22.8273 67.2733 22.29 67.1558 21.7527C66.9207 20.527 66.3162 19.8889 65.0737 19.7042C62.8742 19.3852 60.725 19.7042 58.5758 20.124C57.7027 20.2919 57.5012 20.1576 57.4844 19.2845C57.4844 18.5793 57.4844 17.8908 57.4844 17.1856C57.4844 16.6483 57.7195 16.279 58.2568 16.1614C61.3462 15.4898 64.4525 15.2212 67.5923 15.6913C70.581 16.1614 72.0418 17.8908 72.2769 20.9131C72.3944 22.3571 72.3608 23.8011 72.3608 25.2283C72.3608 28.4689 72.3608 31.7094 72.3608 34.9668C72.3608 35.991 72.1761 36.1925 71.1519 36.1925C70.3627 36.1925 69.5736 36.1925 68.7844 36.1925C67.9449 36.1925 67.7098 35.9575 67.6931 35.1011C67.6931 34.8661 67.6931 34.6142 67.6931 34.228L67.7266 34.2616ZM67.2901 29.4259C67.2901 28.8886 67.2901 28.3513 67.2901 27.7973C67.2901 27.495 67.2229 27.3439 66.8871 27.3439C65.695 27.3775 64.5029 27.3439 63.3107 27.4447C62.3033 27.5286 61.2959 27.7973 60.8425 28.8383C60.3388 30.0304 60.2549 31.2897 61.044 32.3811C61.7492 33.3717 62.8742 33.2878 63.9488 33.1199C64.0159 33.1199 64.0831 33.1199 64.1503 33.0863C65.3256 32.868 66.3162 32.2467 67.1054 31.424C67.5755 30.9203 67.1893 30.0808 67.2733 29.4091L67.2901 29.4259Z" fill="black"/>
<path d="M116.385 34.228C114.27 36.2764 111.902 37.1159 109.166 36.7969C106.126 36.4443 104.313 34.547 104.095 31.4575C104.028 30.5173 104.044 29.5602 104.28 28.6367C104.884 26.2357 106.597 25.0436 108.863 24.4559C110.895 23.9186 112.977 24.0529 115.042 24.0361C116.033 24.0361 115.949 24.2208 115.949 23.1462C115.932 20.4597 115.093 19.637 112.423 19.6034C110.542 19.5866 108.695 19.7881 106.865 20.1911C105.925 20.3926 105.707 20.2247 105.707 19.3012C105.707 18.596 105.707 17.9076 105.707 17.2024C105.707 16.6987 105.959 16.3629 106.412 16.2621C109.854 15.5401 113.313 15.1539 116.788 15.8591C119.509 16.4132 120.902 18.2938 120.969 21.3832C121.053 25.5305 121.02 29.6777 121.02 33.8082C121.02 34.3287 121.02 34.8492 121.02 35.3697C121.02 35.9574 120.717 36.2428 120.147 36.2428C119.223 36.2428 118.3 36.2428 117.376 36.2428C116.654 36.2428 116.402 35.991 116.385 35.269C116.385 34.9836 116.385 34.6981 116.385 34.2448V34.228ZM115.932 29.4259C115.932 28.855 115.932 28.3009 115.932 27.73C115.932 27.4446 115.831 27.3271 115.529 27.3271C114.27 27.3271 112.994 27.2599 111.751 27.4446C110.24 27.6629 109.401 28.3177 109.233 29.5098C108.914 31.7094 109.367 33.6739 112.708 33.103C112.776 33.103 112.843 33.103 112.91 33.0694C114.018 32.8176 114.975 32.2299 115.731 31.4407C116.218 30.9202 115.831 30.0975 115.915 29.4259H115.932Z" fill="black"/>
<path d="M129.935 18.0083C130.305 17.7396 130.573 17.5549 130.842 17.3535C133.176 15.708 135.745 15.1707 138.532 15.6576C141.017 16.0942 142.562 17.8404 142.747 20.4765C142.948 23.1294 142.831 25.7991 142.864 28.452C142.898 30.6516 142.864 32.8679 142.864 35.0675C142.864 35.9909 142.663 36.2092 141.706 36.2092C140.732 36.2092 139.775 36.2092 138.801 36.2092C137.928 36.2092 137.726 36.0077 137.726 35.1346C137.726 31.2224 137.726 27.2934 137.726 23.3813C137.726 22.7264 137.676 22.0716 137.474 21.4503C137.223 20.6108 136.635 20.1239 135.795 19.9896C133.848 19.6538 132.152 20.275 130.607 21.4168C130.322 21.6182 130.406 21.8869 130.406 22.1555C130.406 26.4203 130.406 30.6683 130.406 34.9331C130.406 36.0581 130.238 36.226 129.13 36.226C128.189 36.226 127.232 36.226 126.292 36.226C125.553 36.226 125.301 35.9741 125.301 35.2689C125.301 29.2076 125.301 23.1462 125.301 17.0848C125.301 16.3796 125.553 16.1277 126.292 16.111C127.098 16.111 127.921 16.111 128.727 16.111C129.734 16.111 129.919 16.3124 129.935 17.3367C129.935 17.5214 129.935 17.6893 129.935 18.0251V18.0083Z" fill="black"/>
<path d="M5.03091 8.50488C5.41709 9.42836 5.78648 10.2679 6.15587 11.1074C6.27341 11.3593 6.18945 11.5272 6.07192 11.7287C4.07385 15.1036 2.88172 18.7303 2.71382 22.6425C2.49554 28.0826 4.02348 32.9015 8.37222 36.4779C12.4187 39.8024 17.8253 39.6849 21.8214 36.31C24.9445 33.6571 26.5899 30.1982 27.0937 26.2021C27.7653 21.081 26.506 16.3293 23.9706 11.8966C23.7523 11.5104 23.7355 11.2417 23.9202 10.8556C24.2728 10.1168 24.5751 9.34441 24.9109 8.52167C25.5825 9.29404 26.0862 10.1504 26.5564 11.0067C29.1253 15.7584 30.4518 20.7955 29.7801 26.2021C29.0749 31.9277 26.6067 36.6962 21.5024 39.752C16.3813 42.8247 10.0681 41.9348 5.63537 37.6868C2.52912 34.6981 0.749326 30.9874 0.212029 26.773C-0.627497 20.1911 1.05156 14.1969 4.79584 8.75674C4.84621 8.68958 4.91337 8.62241 4.99733 8.52167L5.03091 8.50488Z" fill="black"/>
<path d="M147.095 21.4168C147.095 18.3777 147.095 15.3386 147.095 12.2827C147.095 11.376 147.297 11.1746 148.203 11.1746C149.194 11.1746 150.185 11.1746 151.175 11.1746C151.981 11.1746 152.2 11.4096 152.216 12.2324C152.216 13.3573 152.216 14.4823 152.216 15.6073C152.216 15.9934 152.334 16.0942 152.72 16.0942C154.231 16.0774 155.742 16.0942 157.253 16.0942C158.563 16.0942 158.714 16.2285 158.714 17.5718C158.714 18.1426 158.714 18.6967 158.714 19.2676C158.714 20.04 158.462 20.275 157.707 20.2918C156.078 20.2918 154.466 20.3086 152.838 20.2918C152.367 20.2918 152.233 20.4261 152.233 20.8963C152.25 23.8682 152.233 26.8401 152.233 29.812C152.233 31.7765 153.14 32.6664 155.104 32.6664C156.078 32.6664 157.035 32.5825 158.009 32.5153C158.731 32.4649 158.983 32.6496 159 33.3548C159 34.0768 159 34.7988 159 35.5208C159 36.0581 158.765 36.4443 158.211 36.5282C155.893 36.9144 153.543 37.0823 151.226 36.5282C148.808 35.9574 147.515 34.3287 147.23 31.6926C146.994 29.5098 147.146 27.327 147.112 25.1443C147.095 23.9018 147.112 22.6593 147.112 21.4336L147.095 21.4168Z" fill="black"/>
<path d="M91.2335 22.1556C91.2335 26.454 91.2335 30.7523 91.2335 35.0507C91.2335 36.0413 91.0488 36.2092 90.0413 36.226C89.1011 36.226 88.144 36.226 87.2037 36.226C86.3474 36.226 86.1292 35.991 86.1292 35.1514C86.1292 31.2393 86.1292 27.3103 86.1292 23.3981C86.1292 18.6631 86.1292 13.945 86.1292 9.21008C86.1292 8.20265 86.3474 7.98438 87.3549 7.98438C88.2951 7.98438 89.2522 7.98438 90.1924 7.98438C90.9816 7.98438 91.2335 8.25302 91.2335 9.04218C91.2335 13.4077 91.2335 17.7733 91.2335 22.1388V22.1556Z" fill="black"/>
<path d="M95.6999 22.0716C95.6999 17.7732 95.6999 13.4748 95.6999 9.17644C95.6999 8.21938 95.9182 8.0011 96.892 8.0011C97.8659 8.0011 98.8229 8.0011 99.7968 8.0011C100.552 8.0011 100.804 8.28654 100.804 9.04211C100.804 17.7732 100.804 26.521 100.804 35.2521C100.804 35.9909 100.536 36.2428 99.7632 36.2428C98.7558 36.2428 97.7316 36.2428 96.7241 36.2428C95.9182 36.2428 95.6831 36.0077 95.6831 35.185C95.6831 30.8194 95.6831 26.4539 95.6831 22.0883L95.6999 22.0716Z" fill="black"/>
<path d="M81.763 26.135C81.763 29.1237 81.763 32.1292 81.763 35.118C81.763 36.0079 81.5447 36.2261 80.6548 36.2261C79.6642 36.2261 78.6736 36.2261 77.6829 36.2261C76.9106 36.2261 76.6587 35.9743 76.6587 35.2355C76.6587 29.2077 76.6587 23.1799 76.6587 17.1353C76.6587 16.3797 76.9273 16.1111 77.6829 16.1111C78.6736 16.1111 79.6642 16.1111 80.6548 16.1111C81.5447 16.1111 81.7798 16.3462 81.7798 17.236C81.7798 20.208 81.7798 23.1799 81.7798 26.1518L81.763 26.135Z" fill="black"/>
<path d="M15.0212 2.67847C16.6835 2.71205 18.2618 3.11502 19.7561 3.87059C20.1087 4.05529 20.2263 4.18961 19.9912 4.55901C19.6218 5.12988 19.4707 5.95262 18.967 6.27164C18.48 6.57387 17.842 5.88546 17.2207 5.70076C15.2395 5.11309 13.3421 5.29779 11.5288 6.22127C11.1258 6.42275 10.9579 6.37238 10.7732 5.9862C10.5381 5.48248 10.2695 4.97877 9.96724 4.50863C9.76576 4.18961 9.84971 4.05529 10.1519 3.90418C11.6799 3.11502 13.2918 2.69526 15.0212 2.67847Z" fill="black"/>
<path d="M79.2118 12.8368C78.6409 12.8368 78.0869 12.8368 77.516 12.8368C76.8108 12.8368 76.5589 12.6186 76.5421 11.9301C76.5253 10.9227 76.5421 9.8985 76.5421 8.89106C76.5421 8.32019 76.8444 8.00117 77.4152 7.98438C78.6074 7.98438 79.7995 7.98438 80.9916 7.98438C81.5625 7.98438 81.8647 8.3034 81.8647 8.87427C81.8647 9.8817 81.8647 10.9059 81.8647 11.9134C81.8647 12.501 81.5793 12.8368 80.958 12.8368C80.3704 12.8368 79.7827 12.8368 79.195 12.8368H79.2118Z" fill="black"/>
<path d="M20.1593 21.7526C20.1089 23.0119 19.4037 24.0865 18.4634 24.3887C18.094 24.5062 17.7078 24.5902 17.4224 24.2208C17.2545 24.0025 17.372 22.8608 17.5567 22.7264C17.7246 22.5921 17.9093 22.7264 18.0772 22.7097C18.5138 22.6425 18.6481 22.3403 18.3627 22.0548C18.094 21.7694 18.0269 21.5847 18.2619 21.2825C18.581 20.8627 18.9503 20.5605 19.5044 20.6612C19.8906 20.7452 20.0417 21.0306 20.1089 21.3832C20.1257 21.5343 20.1425 21.7022 20.1593 21.7694V21.7526Z" fill="black"/>
<path d="M9.81611 21.6854C9.84969 21.2992 9.86648 20.7787 10.4877 20.6444C10.9747 20.5269 11.6127 20.9466 11.831 21.4671C11.9149 21.6686 11.8813 21.803 11.7134 21.9205C11.5623 22.038 11.4112 22.1891 11.5119 22.441C11.6127 22.6593 11.7974 22.6929 12.0157 22.6929C12.8888 22.6761 12.5698 23.3981 12.6369 23.8178C12.7209 24.3383 12.3347 24.5062 11.8478 24.4726C10.79 24.3887 9.81611 23.1294 9.79932 21.7022L9.81611 21.6854Z" fill="black"/>
<path d="M7.46525 29.9465C6.6761 29.9465 5.88694 29.9465 5.09779 29.9465C4.84593 29.9465 4.56049 29.9465 4.5437 29.6107C4.5437 29.2581 4.82914 29.2581 5.081 29.2581C6.6761 29.2581 8.28799 29.2581 9.88309 29.2748C10.1014 29.2748 10.2693 29.2581 10.2693 29.5771C10.2693 29.9129 10.1014 29.9297 9.83272 29.9297C9.04356 29.9297 8.25441 29.9297 7.46525 29.9297C7.46525 29.9297 7.46525 29.9465 7.46525 29.9633V29.9465Z" fill="black"/>
<path d="M22.4767 29.2581C23.2827 29.2581 24.0886 29.2581 24.9114 29.2581C25.1632 29.2581 25.4654 29.2581 25.4487 29.6107C25.4487 29.9297 25.1632 29.9633 24.8946 29.9633C23.2995 29.9633 21.7044 29.9465 20.1093 29.9465C19.8238 29.9465 19.7231 29.8457 19.7063 29.5603C19.7063 29.2077 19.9582 29.3084 20.1261 29.3084C20.9152 29.3084 21.7044 29.3084 22.4935 29.3084C22.4935 29.3084 22.4935 29.3084 22.4935 29.2916L22.4767 29.2581Z" fill="black"/>
</svg>
